G04*
G04 #@! TF.GenerationSoftware,Altium Limited,Altium Designer,22.3.1 (43)*
G04*
G04 Layer_Physical_Order=2*
G04 Layer_Color=16711680*
%FSLAX24Y24*%
%MOIN*%
G70*
G04*
G04 #@! TF.SameCoordinates,CDBB2D6B-2E46-4EDB-87CF-436FCBA96DB9*
G04*
G04*
G04 #@! TF.FilePolarity,Positive*
G04*
G01*
G75*
%ADD13C,0.0100*%
%ADD49C,0.0669*%
%ADD50R,0.0610X0.0610*%
%ADD51C,0.0610*%
%ADD52C,0.1102*%
%ADD53C,0.0571*%
%ADD54R,0.0571X0.0571*%
%ADD55C,0.2250*%
%ADD56C,0.0300*%
D13*
X21436Y35614D02*
Y35986D01*
X21372Y36050D02*
X21436Y35986D01*
Y35614D02*
X25650Y31400D01*
X20128Y13950D02*
X20600Y14422D01*
Y15650D01*
X18184Y16316D02*
X20912D01*
X19650Y16050D02*
X21050D01*
X22350Y17350D01*
X20912Y16316D02*
X20916Y16320D01*
X18300Y14700D02*
X19650Y16050D01*
X22350Y17350D02*
X25300D01*
X21050Y14900D02*
Y15650D01*
X24700Y12700D02*
X25650Y11750D01*
Y11350D02*
Y11750D01*
X11900Y12300D02*
Y12800D01*
Y12300D02*
X12800Y11400D01*
X11900Y13300D02*
X12800Y12400D01*
X10900Y13300D02*
X11900D01*
X14700Y19750D02*
X15900Y20950D01*
X13050Y19750D02*
X14700D01*
X12600Y13400D02*
X12700Y13500D01*
Y19400D01*
X12438Y13362D02*
X12476Y13400D01*
X12600D01*
X12700Y19400D02*
X13050Y19750D01*
X22050Y18050D02*
Y20150D01*
X11300Y30900D02*
Y33900D01*
Y30900D02*
X22050Y20150D01*
X14420Y31620D02*
X25924Y20116D01*
X12680Y31620D02*
X14420D01*
X11850Y32450D02*
X12680Y31620D01*
X11300Y33900D02*
X11850Y34450D01*
X16200Y19800D02*
X18300Y17700D01*
X25150D01*
X25300Y17350D02*
X25492Y17542D01*
X13510Y31790D02*
X14491D01*
X25350Y16250D02*
X26094Y16994D01*
X11850Y33450D02*
X13510Y31790D01*
X14491D02*
X26094Y20187D01*
Y16994D02*
Y20187D01*
X25492Y17542D02*
Y17926D01*
X25484Y17934D02*
X25492Y17926D01*
X25924Y17224D02*
Y20116D01*
X25350Y16650D02*
X25924Y17224D01*
X25350Y17050D02*
X25754Y17454D01*
Y20046D01*
X14350Y31450D02*
X25754Y20046D01*
X11850Y31450D02*
X14350D01*
X16600Y17900D02*
Y18820D01*
Y17900D02*
X18184Y16316D01*
X21750Y15600D02*
X25700D01*
X27100Y14200D01*
X21500Y15350D02*
X21750Y15600D01*
X21050Y14900D02*
X25100Y10850D01*
Y10100D02*
Y10850D01*
X21650Y10600D02*
Y11800D01*
X22550Y10600D02*
Y11300D01*
X23150Y11900D01*
D49*
X21900Y23100D02*
D03*
X15600D02*
D03*
D50*
X25650Y34400D02*
D03*
X11850Y34450D02*
D03*
X12800Y12400D02*
D03*
D51*
X25650Y33400D02*
D03*
Y32400D02*
D03*
Y31400D02*
D03*
X11850Y33450D02*
D03*
Y32450D02*
D03*
Y31450D02*
D03*
X13800Y12400D02*
D03*
X12800Y11400D02*
D03*
Y10400D02*
D03*
X13800Y11400D02*
D03*
Y10400D02*
D03*
D52*
X12413Y37117D02*
D03*
X17587D02*
D03*
X21337Y12883D02*
D03*
X16163D02*
D03*
X20163Y37117D02*
D03*
X25337D02*
D03*
D53*
X13622Y36050D02*
D03*
X14606D02*
D03*
X15394D02*
D03*
X20128Y13950D02*
D03*
X19144D02*
D03*
X18356D02*
D03*
X21372Y36050D02*
D03*
X22356D02*
D03*
X23144D02*
D03*
D54*
X16378D02*
D03*
X17372Y13950D02*
D03*
X24128Y36050D02*
D03*
D55*
X27500Y40000D02*
D03*
X10000D02*
D03*
Y10000D02*
D03*
X27500D02*
D03*
D56*
X20600Y15650D02*
D03*
X20916Y16320D02*
D03*
X21050Y15650D02*
D03*
X25650Y11350D02*
D03*
X24700Y12700D02*
D03*
X11900Y12800D02*
D03*
X15900Y20950D02*
D03*
X12438Y13362D02*
D03*
X13050Y19750D02*
D03*
X22050Y18050D02*
D03*
X25484Y17934D02*
D03*
X25350Y16250D02*
D03*
Y16650D02*
D03*
Y17050D02*
D03*
X16200Y19800D02*
D03*
X16600Y18820D02*
D03*
Y17900D02*
D03*
X27100Y14200D02*
D03*
X21500Y15350D02*
D03*
X25100Y10100D02*
D03*
X25150Y17700D02*
D03*
X18300Y14700D02*
D03*
X10900Y13300D02*
D03*
X21650Y10600D02*
D03*
X22550D02*
D03*
X21650Y11800D02*
D03*
X23150Y11900D02*
D03*
M02*
