G04*
G04 #@! TF.GenerationSoftware,Altium Limited,Altium Designer,22.3.1 (43)*
G04*
G04 Layer_Physical_Order=1*
G04 Layer_Color=255*
%FSLAX24Y24*%
%MOIN*%
G70*
G04*
G04 #@! TF.SameCoordinates,CDBB2D6B-2E46-4EDB-87CF-436FCBA96DB9*
G04*
G04*
G04 #@! TF.FilePolarity,Positive*
G04*
G01*
G75*
%ADD13C,0.0100*%
%ADD16R,0.0551X0.2008*%
%ADD17O,0.0236X0.0768*%
%ADD18O,0.0768X0.0236*%
%ADD19R,0.0413X0.0571*%
%ADD20R,0.0787X0.0787*%
%ADD21R,0.0591X0.0591*%
%ADD22R,0.0571X0.0453*%
%ADD23R,0.0453X0.0571*%
%ADD24R,0.0591X0.0591*%
%ADD25R,0.0819X0.1500*%
%ADD26R,0.4500X0.3500*%
%ADD27R,0.0689X0.0591*%
%ADD28R,0.0374X0.0571*%
%ADD29R,0.0453X0.0866*%
%ADD30R,0.0591X0.0551*%
%ADD31R,0.0531X0.0374*%
%ADD32R,0.0335X0.0531*%
%ADD33R,0.0610X0.0512*%
%ADD49C,0.0669*%
%ADD50R,0.0610X0.0610*%
%ADD51C,0.0610*%
%ADD52C,0.1102*%
%ADD53C,0.0571*%
%ADD54R,0.0571X0.0571*%
%ADD55C,0.2250*%
%ADD56C,0.0300*%
G36*
X27735Y37572D02*
Y37015D01*
X27978D01*
Y36880D01*
X27987Y36834D01*
X28013Y36794D01*
X28276Y36532D01*
X28257Y36485D01*
X27735D01*
Y36242D01*
X27495D01*
X27455Y36282D01*
Y36702D01*
X26887D01*
X26868Y36748D01*
X26918Y36798D01*
X27455D01*
Y37391D01*
X26745D01*
Y36971D01*
X26563Y36790D01*
X26563Y36790D01*
X25945Y36172D01*
X24483D01*
Y36405D01*
X23773D01*
Y35694D01*
X24310D01*
X25273Y34732D01*
Y34655D01*
X25275Y34643D01*
Y34025D01*
X26025D01*
Y34775D01*
X25517D01*
Y34783D01*
X25508Y34829D01*
X25481Y34869D01*
X24483Y35867D01*
Y35927D01*
X25996D01*
X26043Y35937D01*
X26083Y35963D01*
X26481Y36362D01*
X26528Y36343D01*
Y34882D01*
X26537Y34835D01*
X26563Y34795D01*
X26978Y34381D01*
Y32641D01*
X26745D01*
Y32221D01*
X26563Y32040D01*
X26537Y32000D01*
X26528Y31954D01*
Y30132D01*
X26537Y30085D01*
X26563Y30045D01*
X26978Y29631D01*
Y27891D01*
X26745D01*
Y27471D01*
X26563Y27290D01*
X26537Y27250D01*
X26528Y27204D01*
Y25382D01*
X26537Y25335D01*
X26563Y25295D01*
X26978Y24881D01*
Y23141D01*
X26745D01*
Y22721D01*
X26563Y22540D01*
X26537Y22500D01*
X26528Y22454D01*
Y20632D01*
X26537Y20585D01*
X26563Y20545D01*
X26978Y20131D01*
Y18391D01*
X26918D01*
X24672Y20637D01*
X24632Y20663D01*
X24585Y20672D01*
X24165D01*
X24165Y20885D01*
X24195Y20922D01*
X24195Y20933D01*
Y21248D01*
X23405D01*
X23405Y20922D01*
X23435Y20885D01*
X23435Y20872D01*
Y20672D01*
X23165D01*
X23165Y20885D01*
X23195Y20922D01*
X23195Y20933D01*
Y21248D01*
X22405D01*
X22405Y20922D01*
X22435Y20885D01*
X22435Y20872D01*
Y20204D01*
X22835D01*
Y19928D01*
X22832Y19925D01*
X22785Y19906D01*
X22728Y19944D01*
X22693Y19951D01*
Y19473D01*
Y18995D01*
X22728Y19002D01*
X22800Y19050D01*
X22804Y19057D01*
X22822Y19072D01*
X22884Y19030D01*
X22957Y19016D01*
X23031Y19030D01*
X23093Y19072D01*
X23137D01*
X23199Y19030D01*
X23272Y19016D01*
X23346Y19030D01*
X23397Y19064D01*
X23430Y19069D01*
X23463Y19064D01*
X23514Y19030D01*
X23587Y19016D01*
X23661Y19030D01*
X23712Y19064D01*
X23745Y19069D01*
X23778Y19064D01*
X23829Y19030D01*
X23902Y19016D01*
X23976Y19030D01*
X24038Y19072D01*
X24080Y19134D01*
X24080Y19135D01*
X24157D01*
X24162Y19085D01*
X24134Y19080D01*
X24072Y19038D01*
X24030Y18976D01*
X24016Y18902D01*
X24030Y18829D01*
X24064Y18778D01*
X24069Y18745D01*
X24064Y18712D01*
X24030Y18661D01*
X24016Y18587D01*
X24030Y18514D01*
X24064Y18463D01*
X24069Y18430D01*
X24064Y18397D01*
X24030Y18346D01*
X24016Y18272D01*
X24030Y18199D01*
X24072Y18137D01*
Y18093D01*
X24030Y18031D01*
X24016Y17957D01*
X24030Y17884D01*
X24064Y17833D01*
X24069Y17800D01*
X24064Y17767D01*
X24030Y17716D01*
X24016Y17643D01*
X24030Y17569D01*
X24064Y17518D01*
X24069Y17485D01*
X24064Y17452D01*
X24030Y17401D01*
X24016Y17328D01*
X24030Y17254D01*
X24064Y17203D01*
X24069Y17170D01*
X24064Y17137D01*
X24030Y17086D01*
X24016Y17013D01*
X24030Y16939D01*
X24064Y16888D01*
X24069Y16855D01*
X24064Y16822D01*
X24030Y16771D01*
X24016Y16698D01*
X24030Y16624D01*
X24072Y16562D01*
X24134Y16520D01*
X24207Y16506D01*
X24739D01*
X24755Y16509D01*
X25062Y16202D01*
X25102Y16175D01*
X25142Y16167D01*
X25143Y16164D01*
X25191Y16091D01*
X25264Y16043D01*
X25350Y16026D01*
X25436Y16043D01*
X25509Y16091D01*
X25557Y16164D01*
X25574Y16250D01*
X25557Y16336D01*
X25509Y16409D01*
X25484Y16425D01*
Y16475D01*
X25509Y16491D01*
X25557Y16564D01*
X25574Y16650D01*
X25557Y16736D01*
X25509Y16809D01*
X25484Y16825D01*
Y16875D01*
X25509Y16891D01*
X25557Y16964D01*
X25574Y17050D01*
X25557Y17136D01*
X25509Y17209D01*
X25436Y17257D01*
X25350Y17274D01*
X25307Y17266D01*
X25159Y17414D01*
X25140Y17427D01*
X25147Y17461D01*
X25155Y17477D01*
X25236Y17493D01*
X25309Y17541D01*
X25357Y17614D01*
X25371Y17685D01*
X25384Y17705D01*
X25421Y17722D01*
X25484Y17710D01*
X25570Y17727D01*
X25628Y17765D01*
X25678Y17745D01*
Y13001D01*
X25616Y12939D01*
X25566Y12959D01*
Y13159D01*
X25200D01*
X24834D01*
Y12971D01*
X24823Y12960D01*
X24784Y12938D01*
X24750Y12945D01*
Y12700D01*
X24700D01*
Y12650D01*
X24455D01*
X24464Y12602D01*
X24520Y12520D01*
X24602Y12464D01*
X24625Y12460D01*
X24639Y12412D01*
X23859Y11632D01*
X23188D01*
X23183Y11682D01*
X23236Y11693D01*
X23309Y11741D01*
X23357Y11814D01*
X23374Y11900D01*
X23357Y11986D01*
X23309Y12059D01*
X23272Y12083D01*
Y12345D01*
X23441D01*
Y13055D01*
X22887D01*
Y12345D01*
X23028D01*
Y12083D01*
X22991Y12059D01*
X22960Y12012D01*
X22910Y12027D01*
Y12212D01*
X22265D01*
X22246Y12258D01*
X22332Y12345D01*
X22713D01*
Y13055D01*
X22545D01*
Y13077D01*
X22536Y13124D01*
X22510Y13163D01*
X21797Y13876D01*
X21817Y13926D01*
X22100D01*
Y14302D01*
X22150D01*
Y14352D01*
X22545D01*
Y14678D01*
X22545D01*
X22515Y14704D01*
Y14928D01*
X22785D01*
X22785Y14715D01*
X22755Y14678D01*
X22755Y14667D01*
Y14352D01*
X23150D01*
X23545D01*
X23545Y14678D01*
X23515Y14715D01*
X23515Y14728D01*
Y14964D01*
X23524Y14967D01*
X23565Y14978D01*
X23599Y14956D01*
X23646Y14946D01*
X23698D01*
Y14397D01*
X24028D01*
Y14052D01*
X23814D01*
Y13542D01*
X23814Y13538D01*
X23806Y13492D01*
X23784D01*
Y13255D01*
X24150D01*
X24516D01*
Y13492D01*
X24494D01*
X24486Y13538D01*
X24486Y13542D01*
Y14052D01*
X24272D01*
Y14364D01*
X24309Y14397D01*
X24767D01*
X25057Y14107D01*
X25036Y14057D01*
X24864D01*
Y13546D01*
X24864Y13543D01*
X24856Y13496D01*
X24834D01*
Y13259D01*
X25200D01*
X25566D01*
Y13496D01*
X25544D01*
X25536Y13543D01*
X25536Y13546D01*
Y14057D01*
X25322D01*
Y14137D01*
X25313Y14184D01*
X25287Y14224D01*
X24907Y14603D01*
X24901Y14607D01*
Y15403D01*
X24527D01*
X24515Y15421D01*
X24091Y15845D01*
X24094Y15861D01*
Y16393D01*
X24080Y16466D01*
X24038Y16528D01*
X23976Y16570D01*
X23902Y16584D01*
X23829Y16570D01*
X23767Y16528D01*
X23723D01*
X23661Y16570D01*
X23587Y16584D01*
X23514Y16570D01*
X23452Y16528D01*
X23408D01*
X23346Y16570D01*
X23272Y16584D01*
X23199Y16570D01*
X23137Y16528D01*
X23119Y16543D01*
X23115Y16550D01*
X23043Y16598D01*
X23007Y16605D01*
Y16127D01*
X22907D01*
Y16605D01*
X22872Y16598D01*
X22800Y16550D01*
X22796Y16543D01*
X22778Y16528D01*
X22716Y16570D01*
X22643Y16584D01*
X22569Y16570D01*
X22507Y16528D01*
X22489Y16543D01*
X22485Y16550D01*
X22413Y16598D01*
X22378Y16605D01*
Y16127D01*
Y15649D01*
X22413Y15656D01*
X22470Y15694D01*
X22517Y15675D01*
X22520Y15672D01*
Y15574D01*
X22342Y15396D01*
X21785D01*
Y15230D01*
X21739Y15211D01*
X21699Y15251D01*
X21707Y15264D01*
X21724Y15350D01*
X21707Y15436D01*
X21659Y15509D01*
X21586Y15557D01*
X21500Y15574D01*
X21414Y15557D01*
X21341Y15509D01*
X21317Y15472D01*
X21256D01*
X21229Y15522D01*
X21257Y15564D01*
X21274Y15650D01*
X21257Y15736D01*
X21209Y15809D01*
X21136Y15857D01*
X21050Y15874D01*
X21007Y15866D01*
X20801Y16072D01*
X20830Y16113D01*
X20916Y16096D01*
X20994Y16111D01*
X21065Y16040D01*
X21104Y16014D01*
X21151Y16004D01*
X21506D01*
Y15861D01*
X21520Y15788D01*
X21562Y15725D01*
X21624Y15684D01*
X21698Y15669D01*
X21771Y15684D01*
X21833Y15725D01*
X21877D01*
X21939Y15684D01*
X22013Y15669D01*
X22086Y15684D01*
X22148Y15725D01*
X22166Y15710D01*
X22170Y15704D01*
X22242Y15656D01*
X22278Y15649D01*
Y16127D01*
Y16605D01*
X22242Y16598D01*
X22204Y16572D01*
X22154Y16599D01*
Y17855D01*
X22209Y17891D01*
X22257Y17964D01*
X22274Y18050D01*
X22257Y18136D01*
X22209Y18209D01*
X22136Y18257D01*
X22050Y18274D01*
X21964Y18257D01*
X21891Y18209D01*
X21843Y18136D01*
X21826Y18050D01*
X21843Y17964D01*
X21891Y17891D01*
X21909Y17880D01*
Y16550D01*
X21877Y16528D01*
X21833D01*
X21771Y16570D01*
X21698Y16584D01*
X21624Y16570D01*
X21562Y16528D01*
X21520Y16466D01*
X21506Y16393D01*
Y16249D01*
X21202D01*
X21139Y16312D01*
X21140Y16320D01*
X21132Y16359D01*
X21175Y16402D01*
X21201Y16441D01*
X21210Y16488D01*
Y16506D01*
X21393D01*
X21466Y16520D01*
X21528Y16562D01*
X21570Y16624D01*
X21584Y16698D01*
X21570Y16771D01*
X21536Y16822D01*
X21531Y16855D01*
X21536Y16888D01*
X21570Y16939D01*
X21584Y17013D01*
X21570Y17086D01*
X21536Y17137D01*
X21531Y17170D01*
X21536Y17203D01*
X21570Y17254D01*
X21584Y17328D01*
X21570Y17401D01*
X21536Y17452D01*
X21531Y17485D01*
X21536Y17518D01*
X21570Y17569D01*
X21584Y17643D01*
X21570Y17716D01*
X21536Y17767D01*
X21531Y17800D01*
X21536Y17833D01*
X21570Y17884D01*
X21584Y17957D01*
X21570Y18031D01*
X21528Y18093D01*
Y18137D01*
X21570Y18199D01*
X21584Y18272D01*
X21570Y18346D01*
X21536Y18397D01*
X21531Y18430D01*
X21536Y18463D01*
X21570Y18514D01*
X21584Y18587D01*
X21570Y18661D01*
X21536Y18712D01*
X21531Y18745D01*
X21536Y18778D01*
X21570Y18829D01*
X21584Y18902D01*
X21570Y18976D01*
X21528Y19038D01*
X21466Y19080D01*
X21393Y19094D01*
X20888D01*
X20867Y19144D01*
X21456Y19733D01*
X21506Y19712D01*
Y19207D01*
X21520Y19134D01*
X21562Y19072D01*
X21624Y19030D01*
X21698Y19016D01*
X21771Y19030D01*
X21822Y19064D01*
X21855Y19069D01*
X21888Y19064D01*
X21939Y19030D01*
X22013Y19016D01*
X22086Y19030D01*
X22148Y19072D01*
X22192D01*
X22254Y19030D01*
X22328Y19016D01*
X22401Y19030D01*
X22463Y19072D01*
X22481Y19057D01*
X22485Y19050D01*
X22557Y19002D01*
X22593Y18995D01*
Y19473D01*
Y19951D01*
X22557Y19944D01*
X22485Y19896D01*
X22481Y19890D01*
X22463Y19875D01*
X22401Y19916D01*
X22328Y19931D01*
X22254Y19916D01*
X22192Y19875D01*
X22148D01*
X22086Y19916D01*
X22013Y19931D01*
X21939Y19916D01*
X21888Y19882D01*
X21855Y19878D01*
X21822Y19882D01*
X21771Y19916D01*
X21720Y19926D01*
X21702Y19979D01*
X22237Y20513D01*
X22263Y20553D01*
X22272Y20600D01*
Y21759D01*
X22937Y22423D01*
X22963Y22463D01*
X22972Y22510D01*
Y27799D01*
X26287Y31113D01*
X26313Y31153D01*
X26322Y31200D01*
Y32850D01*
X26313Y32897D01*
X26287Y32937D01*
X25988Y33235D01*
X26015Y33302D01*
X26028Y33400D01*
X26015Y33498D01*
X25978Y33589D01*
X25918Y33668D01*
X25839Y33728D01*
X25748Y33765D01*
X25650Y33778D01*
X25552Y33765D01*
X25461Y33728D01*
X25382Y33668D01*
X25322Y33589D01*
X25285Y33498D01*
X25272Y33400D01*
X25285Y33302D01*
X25322Y33211D01*
X25382Y33132D01*
X25461Y33072D01*
X25552Y33035D01*
X25650Y33022D01*
X25748Y33035D01*
X25815Y33062D01*
X26078Y32799D01*
Y32409D01*
X26028Y32405D01*
X26015Y32498D01*
X25978Y32589D01*
X25918Y32668D01*
X25839Y32728D01*
X25748Y32765D01*
X25650Y32778D01*
X25552Y32765D01*
X25461Y32728D01*
X25382Y32668D01*
X25322Y32589D01*
X25285Y32498D01*
X25272Y32400D01*
X25285Y32302D01*
X25312Y32235D01*
X22563Y29487D01*
X22537Y29447D01*
X22528Y29400D01*
Y22601D01*
X21893Y21967D01*
X21867Y21927D01*
X21858Y21880D01*
Y20731D01*
X21213Y20086D01*
X21163Y20106D01*
Y22225D01*
X20644D01*
X20333Y22537D01*
X20293Y22563D01*
X20246Y22572D01*
X19150D01*
X19103Y22563D01*
X19063Y22537D01*
X18663Y22137D01*
X18637Y22097D01*
X18628Y22050D01*
Y20301D01*
X18483Y20156D01*
X18437Y20175D01*
Y21101D01*
X18111D01*
Y20047D01*
X18309D01*
X18328Y20001D01*
X18231Y19904D01*
X18204Y19864D01*
X18199Y19836D01*
X17963D01*
Y19172D01*
X17855D01*
Y19855D01*
X17302D01*
Y19145D01*
X17456D01*
Y19122D01*
X17465Y19075D01*
X17492Y19035D01*
X17563Y18963D01*
X17603Y18937D01*
X17650Y18928D01*
X18750D01*
X18797Y18937D01*
X18837Y18963D01*
X18843Y18970D01*
X18849Y18963D01*
X18889Y18937D01*
X18936Y18928D01*
X19589D01*
X19608Y18881D01*
X19263Y18537D01*
X19237Y18497D01*
X19228Y18450D01*
Y16350D01*
X19237Y16303D01*
X19263Y16263D01*
X20263Y15263D01*
X20303Y15237D01*
X20350Y15228D01*
X21317D01*
X21341Y15191D01*
X21414Y15143D01*
X21479Y15130D01*
X21489Y15115D01*
X21590Y15013D01*
X21563Y14987D01*
X21537Y14947D01*
X21528Y14900D01*
Y13850D01*
X21537Y13803D01*
X21563Y13763D01*
X22225Y13102D01*
X22206Y13055D01*
X22159D01*
Y12518D01*
X21663Y12022D01*
X21650Y12024D01*
X21564Y12007D01*
X21491Y11959D01*
X21467Y11922D01*
X19573D01*
X17727Y13768D01*
Y14306D01*
X17768Y14328D01*
X18050D01*
X18097Y14337D01*
X18137Y14363D01*
X18257Y14484D01*
X18300Y14476D01*
X18386Y14493D01*
X18459Y14541D01*
X18478Y14570D01*
X18528Y14555D01*
Y14317D01*
X18483Y14283D01*
X18449Y14297D01*
X18356Y14309D01*
X18264Y14297D01*
X18177Y14261D01*
X18103Y14204D01*
X18046Y14130D01*
X18010Y14043D01*
X17998Y13950D01*
X18010Y13858D01*
X18046Y13771D01*
X18103Y13697D01*
X18177Y13640D01*
X18264Y13604D01*
X18356Y13592D01*
X18449Y13604D01*
X18536Y13640D01*
X18610Y13697D01*
X18667Y13771D01*
X18703Y13858D01*
X18715Y13950D01*
X18703Y14043D01*
X18679Y14100D01*
X18717Y14138D01*
X18750Y14152D01*
X18783Y14138D01*
X18821Y14100D01*
X18797Y14043D01*
X18785Y13950D01*
X18797Y13858D01*
X18833Y13771D01*
X18890Y13697D01*
X18964Y13640D01*
X19051Y13604D01*
X19144Y13592D01*
X19236Y13604D01*
X19323Y13640D01*
X19397Y13697D01*
X19454Y13771D01*
X19490Y13858D01*
X19502Y13950D01*
X19490Y14043D01*
X19454Y14130D01*
X19397Y14204D01*
X19323Y14261D01*
X19236Y14297D01*
X19144Y14309D01*
X19051Y14297D01*
X19017Y14283D01*
X18972Y14317D01*
Y16916D01*
X18963Y16963D01*
X18937Y17003D01*
X17303Y18637D01*
X17263Y18663D01*
X17216Y18672D01*
X16819D01*
X16795Y18716D01*
X16807Y18734D01*
X16824Y18820D01*
X16807Y18906D01*
X16759Y18979D01*
X16722Y19003D01*
Y19145D01*
X17127D01*
Y19855D01*
X16573D01*
Y19352D01*
X16572Y19351D01*
X16513Y19293D01*
X16487Y19253D01*
X16478Y19206D01*
Y19003D01*
X16441Y18979D01*
X16393Y18906D01*
X16376Y18820D01*
X16393Y18734D01*
X16405Y18716D01*
X16381Y18672D01*
X15501D01*
X14422Y19751D01*
Y35589D01*
X14534Y35701D01*
X14606Y35691D01*
X14699Y35703D01*
X14756Y35727D01*
X15169Y35313D01*
X15209Y35287D01*
X15256Y35278D01*
X21707D01*
X21754Y35287D01*
X21793Y35313D01*
X22207Y35727D01*
X22264Y35703D01*
X22356Y35691D01*
X22449Y35703D01*
X22536Y35739D01*
X22610Y35796D01*
X22667Y35870D01*
X22703Y35957D01*
X22715Y36050D01*
X22703Y36142D01*
X22667Y36229D01*
X22632Y36274D01*
X22653Y36320D01*
X22696Y36324D01*
X22821Y36199D01*
X22797Y36142D01*
X22785Y36050D01*
X22797Y35957D01*
X22833Y35870D01*
X22890Y35796D01*
X22964Y35739D01*
X23051Y35703D01*
X23144Y35691D01*
X23236Y35703D01*
X23323Y35739D01*
X23397Y35796D01*
X23454Y35870D01*
X23490Y35957D01*
X23502Y36050D01*
X23490Y36142D01*
X23454Y36229D01*
X23397Y36303D01*
X23323Y36360D01*
X23236Y36396D01*
X23144Y36408D01*
X23051Y36396D01*
X22994Y36372D01*
X22825Y36542D01*
X22785Y36568D01*
X22738Y36577D01*
X22105D01*
X22058Y36568D01*
X22019Y36542D01*
X21778Y36301D01*
X21753Y36265D01*
X21745Y36261D01*
X21744Y36260D01*
X21699Y36256D01*
X21647Y36325D01*
X21566Y36386D01*
X21473Y36425D01*
X21422Y36432D01*
Y36050D01*
X21372D01*
Y36000D01*
X20990D01*
X20997Y35949D01*
X21035Y35855D01*
X21097Y35775D01*
X21104Y35770D01*
X21088Y35722D01*
X16733D01*
Y36405D01*
X16500D01*
Y37063D01*
X18432Y38995D01*
X18852D01*
Y39705D01*
X18259D01*
Y39168D01*
X16291Y37200D01*
X16265Y37160D01*
X16256Y37113D01*
Y36405D01*
X16196D01*
X14614Y37987D01*
X14574Y38013D01*
X14528Y38022D01*
X11215D01*
X11168Y38013D01*
X11128Y37987D01*
X10532Y37391D01*
X10203D01*
X10184Y37437D01*
X13275Y40528D01*
X17905D01*
Y40285D01*
X18635D01*
Y40528D01*
X18770D01*
X18816Y40537D01*
X18856Y40563D01*
X19118Y40826D01*
X19165Y40807D01*
Y40285D01*
X19408D01*
Y39745D01*
X19368Y39705D01*
X18948D01*
Y38995D01*
X19541D01*
Y39532D01*
X19616Y39608D01*
X19643Y39648D01*
X19652Y39694D01*
Y40285D01*
X19895D01*
Y40943D01*
X24364D01*
X27735Y37572D01*
D02*
G37*
G36*
X16023Y36232D02*
Y35722D01*
X15894D01*
X15716Y35900D01*
X15740Y35957D01*
X15752Y36050D01*
X15740Y36142D01*
X15704Y36229D01*
X15647Y36303D01*
X15573Y36360D01*
X15486Y36396D01*
X15394Y36408D01*
X15301Y36396D01*
X15244Y36372D01*
X15075Y36542D01*
X15035Y36568D01*
X14988Y36577D01*
X14305D01*
X14258Y36568D01*
X14219Y36542D01*
X14013Y36337D01*
X13987Y36297D01*
X13986Y36291D01*
X13932Y36278D01*
X13897Y36325D01*
X13816Y36386D01*
X13723Y36425D01*
X13672Y36432D01*
Y36050D01*
Y35667D01*
X13723Y35674D01*
X13816Y35713D01*
X13897Y35775D01*
X13928Y35815D01*
X13978Y35798D01*
Y19650D01*
X13987Y19603D01*
X14013Y19563D01*
X15283Y18293D01*
X15323Y18267D01*
X15370Y18258D01*
X17095D01*
X17843Y17510D01*
X17824Y17464D01*
X17105D01*
Y17233D01*
X17059Y17214D01*
X16722Y17551D01*
Y17717D01*
X16759Y17741D01*
X16807Y17814D01*
X16824Y17900D01*
X16807Y17986D01*
X16759Y18059D01*
X16686Y18107D01*
X16600Y18124D01*
X16514Y18107D01*
X16441Y18059D01*
X16420Y18027D01*
X16370Y18042D01*
Y18184D01*
X11730D01*
Y14881D01*
X11709D01*
X11662Y14872D01*
X11622Y14845D01*
X11163Y14387D01*
X11137Y14347D01*
X11128Y14300D01*
Y13445D01*
X11078Y13430D01*
X11059Y13459D01*
X10986Y13507D01*
X10900Y13524D01*
X10816Y13508D01*
X10812Y13510D01*
X10786Y13549D01*
X10887Y13649D01*
X10913Y13689D01*
X10922Y13735D01*
Y17704D01*
X10913Y17750D01*
X10887Y17790D01*
X10705Y17971D01*
Y18218D01*
X10887Y18399D01*
X10913Y18439D01*
X10922Y18485D01*
Y22454D01*
X10913Y22500D01*
X10887Y22540D01*
X10705Y22721D01*
Y22968D01*
X10887Y23149D01*
X10913Y23189D01*
X10922Y23235D01*
Y27204D01*
X10913Y27250D01*
X10887Y27290D01*
X10705Y27471D01*
Y27718D01*
X10887Y27899D01*
X10913Y27939D01*
X10922Y27985D01*
Y31954D01*
X10913Y32000D01*
X10887Y32040D01*
X10705Y32221D01*
Y32468D01*
X10887Y32649D01*
X10913Y32689D01*
X10922Y32735D01*
Y36704D01*
X10913Y36750D01*
X10887Y36790D01*
X10705Y36971D01*
Y37218D01*
X11265Y37778D01*
X12285D01*
X12292Y37729D01*
X12175Y37693D01*
X12067Y37636D01*
X11972Y37558D01*
X11894Y37463D01*
X11837Y37355D01*
X11801Y37238D01*
X11789Y37117D01*
X11801Y36995D01*
X11837Y36878D01*
X11894Y36770D01*
X11972Y36675D01*
X12067Y36598D01*
X12175Y36540D01*
X12292Y36504D01*
X12413Y36492D01*
X12535Y36504D01*
X12652Y36540D01*
X12760Y36598D01*
X12855Y36675D01*
X12932Y36770D01*
X12990Y36878D01*
X13026Y36995D01*
X13038Y37117D01*
X13026Y37238D01*
X12990Y37355D01*
X12932Y37463D01*
X12855Y37558D01*
X12760Y37636D01*
X12652Y37693D01*
X12535Y37729D01*
X12542Y37778D01*
X14477D01*
X16023Y36232D01*
D02*
G37*
G36*
X9995Y37226D02*
Y36798D01*
X10532D01*
X10582Y36748D01*
X10563Y36702D01*
X9995D01*
Y36282D01*
X9955Y36242D01*
X9715D01*
Y36485D01*
X9193D01*
X9174Y36532D01*
X9437Y36794D01*
X9463Y36834D01*
X9472Y36880D01*
Y37015D01*
X9715D01*
Y37258D01*
X9954D01*
X9956Y37258D01*
X9995Y37226D01*
D02*
G37*
G36*
X26078Y32391D02*
Y31557D01*
X26028Y31547D01*
X26004Y31604D01*
X25939Y31689D01*
X25854Y31754D01*
X25756Y31795D01*
X25700Y31802D01*
Y31400D01*
Y30998D01*
X25756Y31005D01*
X25766Y31009D01*
X25794Y30967D01*
X22819Y27992D01*
X22772Y28011D01*
Y29349D01*
X25485Y32062D01*
X25552Y32035D01*
X25650Y32022D01*
X25748Y32035D01*
X25839Y32072D01*
X25918Y32132D01*
X25978Y32211D01*
X26015Y32302D01*
X26028Y32395D01*
X26078Y32391D01*
D02*
G37*
G36*
X27358Y36034D02*
X27398Y36007D01*
X27444Y35998D01*
X27735D01*
Y35755D01*
X28393D01*
Y33096D01*
X28292Y32995D01*
X27735D01*
Y32265D01*
X27978D01*
Y32130D01*
X27987Y32084D01*
X28013Y32044D01*
X28276Y31782D01*
X28257Y31735D01*
X27735D01*
Y31492D01*
X27495D01*
X27455Y31532D01*
Y31952D01*
X26887D01*
X26868Y31998D01*
X26918Y32048D01*
X27455D01*
Y32641D01*
X27222D01*
Y34432D01*
X27213Y34479D01*
X27187Y34518D01*
X26772Y34932D01*
Y36109D01*
X27282D01*
X27358Y36034D01*
D02*
G37*
G36*
X10678Y32786D02*
X10532Y32641D01*
X9995D01*
Y32048D01*
X10532D01*
X10582Y31998D01*
X10563Y31952D01*
X9995D01*
Y31532D01*
X9955Y31492D01*
X9715D01*
Y31735D01*
X9193D01*
X9174Y31782D01*
X9437Y32044D01*
X9463Y32084D01*
X9472Y32130D01*
Y32265D01*
X9715D01*
Y32995D01*
X9472D01*
Y34462D01*
X9463Y34509D01*
X9437Y34549D01*
X9057Y34928D01*
Y35755D01*
X9715D01*
Y35998D01*
X10006D01*
X10052Y36007D01*
X10092Y36034D01*
X10168Y36109D01*
X10678D01*
Y32786D01*
D02*
G37*
G36*
X27358Y31284D02*
X27398Y31257D01*
X27444Y31248D01*
X27735D01*
Y31005D01*
X28393D01*
Y28346D01*
X28292Y28245D01*
X27735D01*
Y27515D01*
X27978D01*
Y27380D01*
X27987Y27334D01*
X28013Y27294D01*
X28276Y27032D01*
X28257Y26985D01*
X27735D01*
Y26742D01*
X27495D01*
X27455Y26782D01*
Y27202D01*
X26887D01*
X26868Y27248D01*
X26918Y27298D01*
X27455D01*
Y27891D01*
X27222D01*
Y29682D01*
X27213Y29729D01*
X27187Y29768D01*
X26772Y30182D01*
Y31359D01*
X27282D01*
X27358Y31284D01*
D02*
G37*
G36*
X10678Y28036D02*
X10532Y27891D01*
X9995D01*
Y27298D01*
X10532D01*
X10582Y27248D01*
X10563Y27202D01*
X9995D01*
Y26782D01*
X9955Y26742D01*
X9715D01*
Y26985D01*
X9193D01*
X9174Y27032D01*
X9437Y27294D01*
X9463Y27334D01*
X9472Y27380D01*
Y27515D01*
X9715D01*
Y28245D01*
X9472D01*
Y29712D01*
X9463Y29759D01*
X9437Y29799D01*
X9057Y30178D01*
Y31005D01*
X9715D01*
Y31248D01*
X10006D01*
X10052Y31257D01*
X10092Y31284D01*
X10168Y31359D01*
X10678D01*
Y28036D01*
D02*
G37*
G36*
X27358Y26534D02*
X27398Y26507D01*
X27444Y26498D01*
X27735D01*
Y26255D01*
X28393D01*
Y23596D01*
X28292Y23495D01*
X27735D01*
Y22765D01*
X27978D01*
Y22630D01*
X27987Y22584D01*
X28013Y22544D01*
X28276Y22282D01*
X28257Y22235D01*
X27735D01*
Y21992D01*
X27495D01*
X27455Y22032D01*
Y22452D01*
X26887D01*
X26868Y22498D01*
X26918Y22548D01*
X27455D01*
Y23141D01*
X27222D01*
Y24932D01*
X27213Y24979D01*
X27187Y25018D01*
X26772Y25432D01*
Y26609D01*
X27282D01*
X27358Y26534D01*
D02*
G37*
G36*
X10678Y23286D02*
X10532Y23141D01*
X9995D01*
Y22548D01*
X10532D01*
X10582Y22498D01*
X10563Y22452D01*
X9995D01*
Y22032D01*
X9955Y21992D01*
X9715D01*
Y22235D01*
X9193D01*
X9174Y22282D01*
X9437Y22544D01*
X9463Y22584D01*
X9472Y22630D01*
Y22765D01*
X9715D01*
Y23495D01*
X9472D01*
Y24962D01*
X9463Y25009D01*
X9437Y25049D01*
X9057Y25428D01*
Y26255D01*
X9715D01*
Y26498D01*
X10006D01*
X10052Y26507D01*
X10092Y26534D01*
X10168Y26609D01*
X10678D01*
Y23286D01*
D02*
G37*
G36*
X20471Y22052D02*
Y20077D01*
X21133D01*
X21154Y20027D01*
X20358Y19231D01*
X20312Y19250D01*
Y19836D01*
X19837D01*
Y19172D01*
X19663D01*
Y19836D01*
X19561D01*
Y20077D01*
X19785D01*
Y22225D01*
X19163D01*
X19144Y22271D01*
X19201Y22328D01*
X20196D01*
X20471Y22052D01*
D02*
G37*
G36*
X19093Y22155D02*
Y20077D01*
X19317D01*
Y19836D01*
X19188D01*
Y19172D01*
X19087D01*
Y19836D01*
X18612D01*
Y19172D01*
X18437D01*
Y19605D01*
X18440Y19617D01*
Y19767D01*
X18837Y20163D01*
X18863Y20203D01*
X18872Y20250D01*
Y21999D01*
X19047Y22174D01*
X19093Y22155D01*
D02*
G37*
G36*
X27358Y21784D02*
X27398Y21757D01*
X27444Y21748D01*
X27735D01*
Y21505D01*
X28393D01*
Y18846D01*
X28292Y18745D01*
X27735D01*
Y18015D01*
X27978D01*
Y17880D01*
X27987Y17834D01*
X28013Y17794D01*
X28276Y17532D01*
X28257Y17485D01*
X27735D01*
Y17242D01*
X27495D01*
X27455Y17282D01*
Y17702D01*
X26887D01*
X26868Y17748D01*
X26918Y17798D01*
X27455D01*
Y18391D01*
X27222D01*
Y20182D01*
X27213Y20229D01*
X27187Y20268D01*
X26772Y20682D01*
Y21859D01*
X27282D01*
X27358Y21784D01*
D02*
G37*
G36*
X10678Y18536D02*
X10532Y18391D01*
X9995D01*
Y17798D01*
X10532D01*
X10582Y17748D01*
X10563Y17702D01*
X9995D01*
Y17282D01*
X9955Y17242D01*
X9715D01*
Y17485D01*
X9193D01*
X9174Y17532D01*
X9437Y17794D01*
X9463Y17834D01*
X9472Y17880D01*
Y18015D01*
X9715D01*
Y18745D01*
X9472D01*
Y20212D01*
X9463Y20259D01*
X9437Y20299D01*
X9057Y20678D01*
Y21505D01*
X9715D01*
Y21748D01*
X10006D01*
X10052Y21757D01*
X10092Y21784D01*
X10168Y21859D01*
X10678D01*
Y18536D01*
D02*
G37*
G36*
X20264Y19114D02*
X20258Y19080D01*
Y18270D01*
X20267Y18223D01*
X20293Y18183D01*
X20580Y17897D01*
X20620Y17871D01*
X20666Y17861D01*
X20699D01*
X20718Y17833D01*
X20722Y17806D01*
X20687Y17760D01*
X20640Y17750D01*
X20601Y17724D01*
X20463Y17587D01*
X20437Y17547D01*
X20435Y17539D01*
X20425Y17494D01*
X19981D01*
Y17000D01*
Y16506D01*
X20425D01*
X20428Y16457D01*
Y16150D01*
X20437Y16103D01*
X20463Y16063D01*
X20576Y15951D01*
X20559Y15897D01*
X20502Y15885D01*
X20420Y15830D01*
X20364Y15748D01*
X20355Y15700D01*
X20600D01*
Y15600D01*
X20355D01*
X20358Y15586D01*
X20312Y15561D01*
X19472Y16401D01*
Y16506D01*
X19881D01*
Y17000D01*
Y17494D01*
X19472D01*
Y18399D01*
X20037Y18963D01*
X20037Y18963D01*
X20129Y19056D01*
X20156Y19096D01*
X20165Y19143D01*
Y19164D01*
X20236D01*
X20264Y19114D01*
D02*
G37*
G36*
X16441Y17741D02*
X16478Y17717D01*
Y17500D01*
X16487Y17453D01*
X16513Y17413D01*
X16997Y16930D01*
X17037Y16903D01*
X17084Y16894D01*
X17105D01*
Y16536D01*
X18033D01*
Y17255D01*
X18079Y17274D01*
X18528Y16825D01*
Y14845D01*
X18478Y14830D01*
X18459Y14859D01*
X18386Y14907D01*
X18300Y14924D01*
X18214Y14907D01*
X18141Y14859D01*
X18093Y14786D01*
X18076Y14700D01*
X18084Y14657D01*
X17999Y14572D01*
X16370D01*
Y17758D01*
X16420Y17773D01*
X16441Y17741D01*
D02*
G37*
G36*
X11730Y14544D02*
Y14544D01*
X15150D01*
X15171Y14494D01*
X15034Y14357D01*
X15033Y14355D01*
X14727D01*
Y13645D01*
X15241D01*
Y14125D01*
X15243Y14137D01*
Y14220D01*
X15351Y14328D01*
X16976D01*
X17017Y14306D01*
Y14073D01*
X15943D01*
X15896Y14063D01*
X15856Y14037D01*
X15192Y13372D01*
X13150D01*
X13103Y13363D01*
X13063Y13337D01*
X12713Y12987D01*
X12687Y12947D01*
X12678Y12900D01*
Y12775D01*
X12425D01*
Y12198D01*
X12013Y11787D01*
X11987Y11747D01*
X11978Y11700D01*
Y10316D01*
X11936Y10295D01*
X11929Y10294D01*
X10673Y11550D01*
X11337Y12213D01*
X11363Y12253D01*
X11372Y12300D01*
Y14249D01*
X11471Y14348D01*
X11517Y14329D01*
Y14050D01*
X11912D01*
Y14395D01*
X11584D01*
X11565Y14441D01*
X11685Y14562D01*
X11730Y14544D01*
D02*
G37*
G36*
X26745Y18218D02*
Y17971D01*
X26563Y17790D01*
X26537Y17750D01*
X26528Y17704D01*
Y15882D01*
X26537Y15835D01*
X26563Y15795D01*
X26978Y15381D01*
Y14383D01*
X26941Y14359D01*
X26893Y14286D01*
X26876Y14200D01*
X26893Y14114D01*
X26941Y14041D01*
X26978Y14017D01*
Y13641D01*
X26745D01*
Y13048D01*
X27455D01*
Y13641D01*
X27222D01*
Y14017D01*
X27259Y14041D01*
X27307Y14114D01*
X27324Y14200D01*
X27307Y14286D01*
X27259Y14359D01*
X27222Y14383D01*
Y15432D01*
X27213Y15479D01*
X27187Y15518D01*
X26772Y15932D01*
Y17109D01*
X27282D01*
X27358Y17034D01*
X27398Y17007D01*
X27444Y16998D01*
X27735D01*
Y16755D01*
X28393D01*
Y15928D01*
X28013Y15549D01*
X27987Y15509D01*
X27978Y15462D01*
Y13995D01*
X27735D01*
Y13265D01*
X27978D01*
Y13130D01*
X27987Y13084D01*
X28013Y13044D01*
X28276Y12782D01*
X28257Y12735D01*
X27735D01*
Y12492D01*
X27495D01*
X27455Y12532D01*
Y12952D01*
X26745D01*
Y12359D01*
X27282D01*
X27358Y12284D01*
X27398Y12257D01*
X27444Y12248D01*
X27735D01*
Y12005D01*
X28257D01*
X28276Y11959D01*
X27989Y11672D01*
X27150D01*
X27103Y11663D01*
X27063Y11637D01*
X26113Y10687D01*
X26087Y10647D01*
X26078Y10600D01*
Y10470D01*
X26040Y10440D01*
X25787D01*
Y10485D01*
X25778Y10532D01*
X25751Y10572D01*
X25237Y11087D01*
X25197Y11113D01*
X25150Y11122D01*
X24261D01*
X24242Y11169D01*
X25214Y12141D01*
X25260Y12121D01*
Y11936D01*
X26070D01*
Y12242D01*
X25912D01*
X25905Y12262D01*
X25904Y12292D01*
X25937Y12313D01*
X26237Y12613D01*
X26263Y12653D01*
X26272Y12700D01*
Y18131D01*
X26263Y18178D01*
X26237Y18217D01*
X25110Y19344D01*
X25070Y19371D01*
X25023Y19380D01*
X24094D01*
Y19739D01*
X24080Y19812D01*
X24038Y19875D01*
X23976Y19916D01*
X23902Y19931D01*
X23829Y19916D01*
X23778Y19882D01*
X23758Y19879D01*
X23710Y19911D01*
Y20204D01*
X24165D01*
Y20428D01*
X24535D01*
X26745Y18218D01*
D02*
G37*
G36*
X27744Y41229D02*
X27903Y41186D01*
X28054Y41123D01*
X28196Y41042D01*
X28326Y40942D01*
X28442Y40826D01*
X28542Y40696D01*
X28623Y40554D01*
X28686Y40403D01*
X28729Y40244D01*
X28750Y40082D01*
Y40000D01*
Y10000D01*
Y9918D01*
X28729Y9756D01*
X28686Y9597D01*
X28623Y9446D01*
X28542Y9304D01*
X28442Y9174D01*
X28326Y9058D01*
X28196Y8958D01*
X28054Y8877D01*
X27903Y8814D01*
X27744Y8771D01*
X27582Y8750D01*
X9918D01*
X9756Y8771D01*
X9597Y8814D01*
X9446Y8877D01*
X9304Y8958D01*
X9174Y9058D01*
X9058Y9174D01*
X8958Y9304D01*
X8877Y9446D01*
X8814Y9597D01*
X8771Y9756D01*
X8750Y9918D01*
Y10000D01*
Y11768D01*
X8800Y11784D01*
X8813Y11763D01*
X9113Y11463D01*
X9153Y11437D01*
X9200Y11428D01*
X10449D01*
X12048Y9829D01*
Y9615D01*
X11705D01*
Y8885D01*
X12435D01*
Y9615D01*
X12292D01*
Y9864D01*
X12334Y9885D01*
X12341Y9886D01*
X12513Y9713D01*
X12553Y9687D01*
X12600Y9678D01*
X14490D01*
X14507Y9655D01*
X14482Y9605D01*
X14059D01*
Y9372D01*
X13695D01*
Y9615D01*
X12965D01*
Y8885D01*
X13695D01*
Y9128D01*
X14059D01*
Y8895D01*
X14652D01*
Y9463D01*
X14698Y9482D01*
X14748Y9432D01*
Y8895D01*
X15341D01*
Y9605D01*
X14921D01*
X14640Y9887D01*
X14600Y9913D01*
X14554Y9922D01*
X12651D01*
X12222Y10351D01*
Y11649D01*
X12598Y12025D01*
X13175D01*
Y12775D01*
X12922D01*
Y12849D01*
X13201Y13128D01*
X15243D01*
X15289Y13137D01*
X15329Y13163D01*
X15994Y13828D01*
X17017D01*
Y13595D01*
X17554D01*
X19436Y11713D01*
X19476Y11687D01*
X19499Y11682D01*
X19494Y11632D01*
X16638D01*
X16051Y12220D01*
X16073Y12268D01*
X16163Y12259D01*
X16285Y12271D01*
X16402Y12307D01*
X16510Y12364D01*
X16605Y12442D01*
X16682Y12537D01*
X16740Y12645D01*
X16776Y12762D01*
X16788Y12883D01*
X16776Y13005D01*
X16740Y13122D01*
X16682Y13230D01*
X16605Y13325D01*
X16510Y13402D01*
X16402Y13460D01*
X16285Y13496D01*
X16163Y13508D01*
X16042Y13496D01*
X15925Y13460D01*
X15817Y13402D01*
X15722Y13325D01*
X15644Y13230D01*
X15587Y13122D01*
X15551Y13005D01*
X15539Y12883D01*
X15551Y12762D01*
X15587Y12645D01*
X15625Y12572D01*
X15595Y12522D01*
X14155D01*
X14128Y12589D01*
X14068Y12668D01*
X13989Y12728D01*
X13898Y12765D01*
X13800Y12778D01*
X13702Y12765D01*
X13611Y12728D01*
X13532Y12668D01*
X13472Y12589D01*
X13435Y12498D01*
X13422Y12400D01*
X13435Y12302D01*
X13472Y12211D01*
X13532Y12132D01*
X13611Y12072D01*
X13702Y12035D01*
X13800Y12022D01*
X13898Y12035D01*
X13989Y12072D01*
X14068Y12132D01*
X14128Y12211D01*
X14155Y12278D01*
X15647D01*
X16416Y11509D01*
X16397Y11462D01*
X14170D01*
X14165Y11498D01*
X14128Y11589D01*
X14068Y11668D01*
X13989Y11728D01*
X13898Y11765D01*
X13800Y11778D01*
X13702Y11765D01*
X13611Y11728D01*
X13532Y11668D01*
X13472Y11589D01*
X13435Y11498D01*
X13422Y11400D01*
X13435Y11302D01*
X13472Y11211D01*
X13532Y11132D01*
X13611Y11072D01*
X13601Y11022D01*
X13300D01*
X13253Y11013D01*
X13213Y10987D01*
X12965Y10738D01*
X12898Y10765D01*
X12800Y10778D01*
X12702Y10765D01*
X12611Y10728D01*
X12532Y10668D01*
X12472Y10589D01*
X12435Y10498D01*
X12422Y10400D01*
X12435Y10302D01*
X12472Y10211D01*
X12532Y10132D01*
X12611Y10072D01*
X12702Y10035D01*
X12800Y10022D01*
X12898Y10035D01*
X12989Y10072D01*
X13068Y10132D01*
X13128Y10211D01*
X13165Y10302D01*
X13178Y10400D01*
X13165Y10498D01*
X13138Y10565D01*
X13351Y10778D01*
X13601D01*
X13611Y10728D01*
X13532Y10668D01*
X13472Y10589D01*
X13435Y10498D01*
X13422Y10400D01*
X13435Y10302D01*
X13472Y10211D01*
X13532Y10132D01*
X13611Y10072D01*
X13702Y10035D01*
X13800Y10022D01*
X13898Y10035D01*
X13989Y10072D01*
X14068Y10132D01*
X14128Y10211D01*
X14165Y10302D01*
X14178Y10400D01*
X14165Y10498D01*
X14138Y10565D01*
X14451Y10878D01*
X21969D01*
X21969Y10878D01*
X23101D01*
X23102Y10878D01*
X25099D01*
X25491Y10486D01*
X25472Y10440D01*
X25290D01*
Y10295D01*
X25240Y10271D01*
X25186Y10307D01*
X25100Y10324D01*
X25014Y10307D01*
X24941Y10259D01*
X24893Y10186D01*
X24876Y10100D01*
X24893Y10014D01*
X24941Y9941D01*
X25014Y9893D01*
X25100Y9876D01*
X25186Y9893D01*
X25240Y9929D01*
X25290Y9905D01*
Y9788D01*
X26040D01*
X26078Y9758D01*
Y9625D01*
X25845Y9393D01*
X25795Y9414D01*
Y9615D01*
X25065D01*
Y8885D01*
X25795D01*
Y9128D01*
X25875D01*
X25922Y9137D01*
X25962Y9163D01*
X26287Y9488D01*
X26313Y9528D01*
X26322Y9575D01*
Y9590D01*
X26372Y9600D01*
X26432Y9456D01*
X26530Y9295D01*
X26652Y9152D01*
X26795Y9030D01*
X26956Y8932D01*
X27130Y8860D01*
X27312Y8816D01*
X27500Y8801D01*
X27688Y8816D01*
X27870Y8860D01*
X28044Y8932D01*
X28205Y9030D01*
X28348Y9152D01*
X28470Y9295D01*
X28568Y9456D01*
X28640Y9630D01*
X28684Y9812D01*
X28699Y10000D01*
X28684Y10188D01*
X28640Y10370D01*
X28568Y10544D01*
X28470Y10705D01*
X28348Y10848D01*
X28205Y10970D01*
X28044Y11068D01*
X27870Y11140D01*
X27688Y11184D01*
X27500Y11199D01*
X27312Y11184D01*
X27130Y11140D01*
X26956Y11068D01*
X26842Y10998D01*
X26811Y11038D01*
X27201Y11428D01*
X28040D01*
X28087Y11437D01*
X28127Y11463D01*
X28602Y11939D01*
X28628Y11978D01*
X28638Y12025D01*
Y12715D01*
X28628Y12762D01*
X28602Y12802D01*
X28222Y13181D01*
Y13265D01*
X28465D01*
Y13995D01*
X28222D01*
Y15412D01*
X28602Y15791D01*
X28628Y15831D01*
X28638Y15878D01*
Y17465D01*
X28628Y17512D01*
X28602Y17552D01*
X28222Y17931D01*
Y18015D01*
X28465D01*
Y18572D01*
X28602Y18709D01*
X28628Y18748D01*
X28638Y18795D01*
Y22215D01*
X28628Y22262D01*
X28602Y22302D01*
X28222Y22681D01*
Y22765D01*
X28465D01*
Y23322D01*
X28602Y23459D01*
X28628Y23498D01*
X28638Y23545D01*
Y26965D01*
X28628Y27012D01*
X28602Y27052D01*
X28222Y27431D01*
Y27515D01*
X28465D01*
Y28072D01*
X28602Y28209D01*
X28628Y28248D01*
X28638Y28295D01*
Y31715D01*
X28628Y31762D01*
X28602Y31802D01*
X28222Y32181D01*
Y32265D01*
X28465D01*
Y32822D01*
X28602Y32959D01*
X28628Y32998D01*
X28638Y33045D01*
Y36465D01*
X28628Y36512D01*
X28602Y36552D01*
X28222Y36931D01*
Y37015D01*
X28465D01*
Y37745D01*
X27908D01*
X24501Y41152D01*
X24461Y41178D01*
X24415Y41188D01*
X19185D01*
X19138Y41178D01*
X19098Y41152D01*
X18719Y40772D01*
X18635D01*
Y41015D01*
X17905D01*
Y40772D01*
X13224D01*
X13177Y40763D01*
X13137Y40737D01*
X9903Y37502D01*
X9715D01*
Y37745D01*
X8985D01*
Y37015D01*
X9228D01*
Y36931D01*
X8848Y36552D01*
X8822Y36512D01*
X8812Y36465D01*
Y34878D01*
X8822Y34831D01*
X8848Y34791D01*
X9228Y34412D01*
Y32995D01*
X8985D01*
Y32265D01*
X9228D01*
Y32181D01*
X8848Y31802D01*
X8822Y31762D01*
X8812Y31715D01*
Y30128D01*
X8822Y30081D01*
X8848Y30041D01*
X9228Y29662D01*
Y28245D01*
X8985D01*
Y27515D01*
X9228D01*
Y27431D01*
X8848Y27052D01*
X8822Y27012D01*
X8812Y26965D01*
Y25378D01*
X8822Y25331D01*
X8848Y25291D01*
X9228Y24912D01*
Y23495D01*
X8985D01*
Y22765D01*
X9228D01*
Y22681D01*
X8848Y22302D01*
X8822Y22262D01*
X8812Y22215D01*
Y20628D01*
X8822Y20581D01*
X8848Y20541D01*
X9228Y20162D01*
Y18745D01*
X8985D01*
Y18015D01*
X9228D01*
Y17931D01*
X8848Y17552D01*
X8822Y17512D01*
X8812Y17465D01*
Y15878D01*
X8822Y15831D01*
X8848Y15791D01*
X9228Y15412D01*
Y13995D01*
X8985D01*
Y13438D01*
X8813Y13266D01*
X8800Y13246D01*
X8750Y13261D01*
Y40000D01*
Y40082D01*
X8771Y40244D01*
X8814Y40403D01*
X8877Y40554D01*
X8958Y40696D01*
X9058Y40826D01*
X9174Y40942D01*
X9304Y41042D01*
X9446Y41123D01*
X9597Y41186D01*
X9756Y41229D01*
X9918Y41250D01*
X27582D01*
X27744Y41229D01*
D02*
G37*
G36*
X10678Y13786D02*
X10532Y13641D01*
X9995D01*
Y13048D01*
X10705D01*
Y13110D01*
X10710Y13114D01*
X10755Y13132D01*
X10814Y13093D01*
X10900Y13076D01*
X10986Y13093D01*
X11059Y13141D01*
X11078Y13170D01*
X11128Y13155D01*
Y12351D01*
X10449Y11672D01*
X9251D01*
X9022Y11901D01*
Y12005D01*
X9715D01*
Y12248D01*
X10006D01*
X10052Y12257D01*
X10092Y12284D01*
X10168Y12359D01*
X10705D01*
Y12952D01*
X9995D01*
Y12532D01*
X9955Y12492D01*
X9715D01*
Y12735D01*
X9022D01*
Y13129D01*
X9158Y13265D01*
X9715D01*
Y13995D01*
X9472D01*
Y15462D01*
X9463Y15509D01*
X9437Y15549D01*
X9057Y15928D01*
Y16755D01*
X9715D01*
Y16998D01*
X10006D01*
X10052Y17007D01*
X10092Y17034D01*
X10168Y17109D01*
X10678D01*
Y13786D01*
D02*
G37*
%LPC*%
G36*
X25337Y37741D02*
X25215Y37729D01*
X25098Y37693D01*
X24990Y37636D01*
X24895Y37558D01*
X24818Y37463D01*
X24760Y37355D01*
X24724Y37238D01*
X24712Y37117D01*
X24724Y36995D01*
X24760Y36878D01*
X24818Y36770D01*
X24895Y36675D01*
X24990Y36598D01*
X25098Y36540D01*
X25215Y36504D01*
X25337Y36492D01*
X25458Y36504D01*
X25575Y36540D01*
X25683Y36598D01*
X25778Y36675D01*
X25856Y36770D01*
X25913Y36878D01*
X25949Y36995D01*
X25961Y37117D01*
X25949Y37238D01*
X25913Y37355D01*
X25856Y37463D01*
X25778Y37558D01*
X25683Y37636D01*
X25575Y37693D01*
X25458Y37729D01*
X25337Y37741D01*
D02*
G37*
G36*
X20163D02*
X20042Y37729D01*
X19925Y37693D01*
X19817Y37636D01*
X19722Y37558D01*
X19644Y37463D01*
X19587Y37355D01*
X19551Y37238D01*
X19539Y37117D01*
X19551Y36995D01*
X19587Y36878D01*
X19644Y36770D01*
X19722Y36675D01*
X19817Y36598D01*
X19925Y36540D01*
X20042Y36504D01*
X20163Y36492D01*
X20285Y36504D01*
X20402Y36540D01*
X20510Y36598D01*
X20605Y36675D01*
X20682Y36770D01*
X20740Y36878D01*
X20776Y36995D01*
X20788Y37117D01*
X20776Y37238D01*
X20740Y37355D01*
X20682Y37463D01*
X20605Y37558D01*
X20510Y37636D01*
X20402Y37693D01*
X20285Y37729D01*
X20163Y37741D01*
D02*
G37*
G36*
X17587D02*
X17465Y37729D01*
X17348Y37693D01*
X17240Y37636D01*
X17145Y37558D01*
X17068Y37463D01*
X17010Y37355D01*
X16974Y37238D01*
X16962Y37117D01*
X16974Y36995D01*
X17010Y36878D01*
X17068Y36770D01*
X17145Y36675D01*
X17240Y36598D01*
X17348Y36540D01*
X17465Y36504D01*
X17587Y36492D01*
X17708Y36504D01*
X17825Y36540D01*
X17933Y36598D01*
X18028Y36675D01*
X18106Y36770D01*
X18163Y36878D01*
X18199Y36995D01*
X18211Y37117D01*
X18199Y37238D01*
X18163Y37355D01*
X18106Y37463D01*
X18028Y37558D01*
X17933Y37636D01*
X17825Y37693D01*
X17708Y37729D01*
X17587Y37741D01*
D02*
G37*
G36*
X21322Y36432D02*
X21271Y36425D01*
X21178Y36386D01*
X21097Y36325D01*
X21035Y36244D01*
X20997Y36150D01*
X20990Y36100D01*
X21322D01*
Y36432D01*
D02*
G37*
G36*
X21900Y23508D02*
X21794Y23494D01*
X21696Y23453D01*
X21611Y23389D01*
X21546Y23304D01*
X21505Y23206D01*
X21491Y23100D01*
X21505Y22994D01*
X21546Y22896D01*
X21611Y22811D01*
X21696Y22747D01*
X21794Y22706D01*
X21900Y22692D01*
X22005Y22706D01*
X22104Y22747D01*
X22188Y22811D01*
X22253Y22896D01*
X22294Y22994D01*
X22308Y23100D01*
X22294Y23206D01*
X22253Y23304D01*
X22188Y23389D01*
X22104Y23453D01*
X22005Y23494D01*
X21900Y23508D01*
D02*
G37*
G36*
X15600D02*
X15495Y23494D01*
X15396Y23453D01*
X15312Y23389D01*
X15247Y23304D01*
X15206Y23206D01*
X15192Y23100D01*
X15206Y22994D01*
X15247Y22896D01*
X15312Y22811D01*
X15396Y22747D01*
X15495Y22706D01*
X15600Y22692D01*
X15706Y22706D01*
X15804Y22747D01*
X15889Y22811D01*
X15954Y22896D01*
X15995Y22994D01*
X16009Y23100D01*
X15995Y23206D01*
X15954Y23304D01*
X15889Y23389D01*
X15804Y23453D01*
X15706Y23494D01*
X15600Y23508D01*
D02*
G37*
G36*
X24195Y21674D02*
X23850D01*
Y21348D01*
X24195D01*
Y21674D01*
D02*
G37*
G36*
X23750D02*
X23405D01*
Y21348D01*
X23750D01*
Y21674D01*
D02*
G37*
G36*
X23195D02*
X22850D01*
Y21348D01*
X23195D01*
Y21674D01*
D02*
G37*
G36*
X22750D02*
X22405D01*
Y21348D01*
X22750D01*
Y21674D01*
D02*
G37*
G36*
X17059Y22255D02*
X16733D01*
Y21201D01*
X17059D01*
Y22255D01*
D02*
G37*
G36*
X18437D02*
X18111D01*
Y21201D01*
X18437D01*
Y22255D01*
D02*
G37*
G36*
X16633D02*
X16307D01*
Y21201D01*
X16633D01*
Y22255D01*
D02*
G37*
G36*
X18011D02*
X17685D01*
Y21201D01*
X18011D01*
Y22255D01*
D02*
G37*
G36*
X15850Y21195D02*
X15802Y21186D01*
X15720Y21130D01*
X15664Y21048D01*
X15655Y21000D01*
X15850D01*
Y21195D01*
D02*
G37*
G36*
Y20900D02*
X15655D01*
X15664Y20852D01*
X15720Y20770D01*
X15802Y20714D01*
X15850Y20705D01*
Y20900D01*
D02*
G37*
G36*
X18011Y21101D02*
X17685D01*
Y20047D01*
X18011D01*
Y21101D01*
D02*
G37*
G36*
X17059D02*
X16733D01*
Y20047D01*
X17059D01*
Y21101D01*
D02*
G37*
G36*
X15529Y21684D02*
X14571D01*
Y20044D01*
X15356D01*
X15687Y19713D01*
X15727Y19687D01*
X15773Y19678D01*
X16017D01*
X16041Y19641D01*
X16114Y19593D01*
X16200Y19576D01*
X16286Y19593D01*
X16359Y19641D01*
X16407Y19714D01*
X16424Y19800D01*
X16407Y19886D01*
X16359Y19959D01*
X16324Y19982D01*
X16302Y19997D01*
X16302Y20003D01*
X16305Y20029D01*
X16314Y20044D01*
X16352Y20047D01*
X16352Y20047D01*
X16356Y20047D01*
X16633D01*
Y21101D01*
X16307D01*
Y21072D01*
X16119D01*
X16080Y21130D01*
X15998Y21186D01*
X15950Y21195D01*
Y20950D01*
Y20705D01*
X15998Y20714D01*
X16080Y20770D01*
X16119Y20828D01*
X16307D01*
Y20095D01*
X16307Y20075D01*
X16305Y20045D01*
X16304Y20043D01*
X16291Y20023D01*
X16255Y20013D01*
X16200Y20024D01*
X16114Y20007D01*
X16041Y19959D01*
X16017Y19922D01*
X15824D01*
X15529Y20217D01*
Y21684D01*
D02*
G37*
G36*
X20178Y14333D02*
Y14000D01*
X20510D01*
X20503Y14051D01*
X20465Y14145D01*
X20403Y14225D01*
X20322Y14287D01*
X20229Y14326D01*
X20178Y14333D01*
D02*
G37*
G36*
X20078D02*
X20027Y14326D01*
X19934Y14287D01*
X19853Y14225D01*
X19791Y14145D01*
X19752Y14051D01*
X19746Y14000D01*
X20078D01*
Y14333D01*
D02*
G37*
G36*
X23545Y14252D02*
X23200D01*
Y13926D01*
X23545D01*
Y14252D01*
D02*
G37*
G36*
X23100D02*
X22755D01*
Y13926D01*
X23100D01*
Y14252D01*
D02*
G37*
G36*
X22545D02*
X22200D01*
Y13926D01*
X22545D01*
Y14252D01*
D02*
G37*
G36*
X20510Y13900D02*
X20178D01*
Y13568D01*
X20229Y13575D01*
X20322Y13614D01*
X20403Y13676D01*
X20465Y13756D01*
X20503Y13850D01*
X20510Y13900D01*
D02*
G37*
G36*
X20078D02*
X19746D01*
X19752Y13850D01*
X19791Y13756D01*
X19853Y13676D01*
X19934Y13614D01*
X20027Y13575D01*
X20078Y13568D01*
Y13900D01*
D02*
G37*
G36*
X24100Y13155D02*
X23784D01*
Y12918D01*
X24100D01*
Y13155D01*
D02*
G37*
G36*
X24516D02*
X24200D01*
Y12918D01*
X24489D01*
X24496Y12910D01*
X24511Y12868D01*
X24464Y12798D01*
X24455Y12750D01*
X24650D01*
Y12945D01*
X24602Y12936D01*
X24562Y12908D01*
X24516Y12938D01*
Y13155D01*
D02*
G37*
G36*
X21337Y13508D02*
X21215Y13496D01*
X21098Y13460D01*
X20990Y13402D01*
X20895Y13325D01*
X20818Y13230D01*
X20760Y13122D01*
X20724Y13005D01*
X20712Y12883D01*
X20724Y12762D01*
X20760Y12645D01*
X20818Y12537D01*
X20895Y12442D01*
X20990Y12364D01*
X21098Y12307D01*
X21215Y12271D01*
X21337Y12259D01*
X21458Y12271D01*
X21575Y12307D01*
X21683Y12364D01*
X21778Y12442D01*
X21856Y12537D01*
X21913Y12645D01*
X21949Y12762D01*
X21961Y12883D01*
X21949Y13005D01*
X21913Y13122D01*
X21856Y13230D01*
X21778Y13325D01*
X21683Y13402D01*
X21575Y13460D01*
X21458Y13496D01*
X21337Y13508D01*
D02*
G37*
G36*
X13572Y36432D02*
X13521Y36425D01*
X13428Y36386D01*
X13347Y36325D01*
X13285Y36244D01*
X13247Y36150D01*
X13240Y36100D01*
X13572D01*
Y36432D01*
D02*
G37*
G36*
Y36000D02*
X13240D01*
X13247Y35949D01*
X13285Y35855D01*
X13347Y35775D01*
X13428Y35713D01*
X13521Y35674D01*
X13572Y35667D01*
Y36000D01*
D02*
G37*
G36*
X12225Y34825D02*
X11475D01*
Y34075D01*
X12225D01*
Y34825D01*
D02*
G37*
G36*
X11850Y33828D02*
X11752Y33815D01*
X11661Y33778D01*
X11582Y33718D01*
X11522Y33639D01*
X11485Y33548D01*
X11472Y33450D01*
X11485Y33352D01*
X11522Y33261D01*
X11582Y33182D01*
X11661Y33122D01*
X11752Y33085D01*
X11850Y33072D01*
X11948Y33085D01*
X12039Y33122D01*
X12118Y33182D01*
X12178Y33261D01*
X12215Y33352D01*
X12228Y33450D01*
X12215Y33548D01*
X12178Y33639D01*
X12118Y33718D01*
X12039Y33778D01*
X11948Y33815D01*
X11850Y33828D01*
D02*
G37*
G36*
Y32828D02*
X11752Y32815D01*
X11661Y32778D01*
X11582Y32718D01*
X11522Y32639D01*
X11485Y32548D01*
X11472Y32450D01*
X11485Y32352D01*
X11522Y32261D01*
X11582Y32182D01*
X11661Y32122D01*
X11752Y32085D01*
X11850Y32072D01*
X11948Y32085D01*
X12039Y32122D01*
X12118Y32182D01*
X12178Y32261D01*
X12215Y32352D01*
X12228Y32450D01*
X12215Y32548D01*
X12178Y32639D01*
X12118Y32718D01*
X12039Y32778D01*
X11948Y32815D01*
X11850Y32828D01*
D02*
G37*
G36*
Y31828D02*
X11752Y31815D01*
X11661Y31778D01*
X11582Y31718D01*
X11522Y31639D01*
X11485Y31548D01*
X11472Y31450D01*
X11485Y31352D01*
X11522Y31261D01*
X11582Y31182D01*
X11661Y31122D01*
X11752Y31085D01*
X11850Y31072D01*
X11948Y31085D01*
X12039Y31122D01*
X12118Y31182D01*
X12178Y31261D01*
X12215Y31352D01*
X12228Y31450D01*
X12215Y31548D01*
X12178Y31639D01*
X12118Y31718D01*
X12039Y31778D01*
X11948Y31815D01*
X11850Y31828D01*
D02*
G37*
G36*
X13559Y21714D02*
X13100D01*
Y20914D01*
X13559D01*
Y21714D01*
D02*
G37*
G36*
X13000D02*
X12541D01*
Y20914D01*
X13000D01*
Y21714D01*
D02*
G37*
G36*
X13559Y20814D02*
X13050D01*
X12541D01*
Y20014D01*
X12917D01*
X12920Y19964D01*
X12870Y19930D01*
X12815Y19848D01*
X12805Y19800D01*
X13295D01*
X13285Y19848D01*
X13230Y19930D01*
X13180Y19964D01*
X13183Y20014D01*
X13559D01*
Y20814D01*
D02*
G37*
G36*
X13295Y19700D02*
X13100D01*
Y19505D01*
X13148Y19514D01*
X13230Y19570D01*
X13285Y19652D01*
X13295Y19700D01*
D02*
G37*
G36*
X13000D02*
X12805D01*
X12815Y19652D01*
X12870Y19570D01*
X12952Y19514D01*
X13000Y19505D01*
Y19700D01*
D02*
G37*
G36*
X25600Y31802D02*
X25544Y31795D01*
X25446Y31754D01*
X25361Y31689D01*
X25296Y31604D01*
X25255Y31506D01*
X25248Y31450D01*
X25600D01*
Y31802D01*
D02*
G37*
G36*
Y31350D02*
X25248D01*
X25255Y31294D01*
X25296Y31196D01*
X25361Y31111D01*
X25446Y31046D01*
X25544Y31005D01*
X25600Y30998D01*
Y31350D01*
D02*
G37*
G36*
X12406Y14395D02*
X12012D01*
Y14050D01*
X12406D01*
Y14395D01*
D02*
G37*
G36*
X13853Y14365D02*
X13024D01*
Y13635D01*
X13853D01*
Y13878D01*
X13959D01*
Y13645D01*
X14473D01*
Y14355D01*
X13959D01*
Y14122D01*
X13853D01*
Y14365D01*
D02*
G37*
G36*
X12683Y13312D02*
X12488D01*
Y13117D01*
X12535Y13127D01*
X12618Y13182D01*
X12673Y13265D01*
X12683Y13312D01*
D02*
G37*
G36*
X12406Y13950D02*
X11517D01*
Y13605D01*
X11866D01*
X11874Y13566D01*
X11900Y13527D01*
X12151Y13276D01*
X12154Y13251D01*
X11950Y13047D01*
Y12850D01*
X12145D01*
X12137Y12889D01*
X12370Y13121D01*
X12388Y13117D01*
Y13362D01*
X12438D01*
Y13412D01*
X12683D01*
X12673Y13460D01*
X12618Y13542D01*
X12535Y13598D01*
X12438Y13617D01*
X12406Y13643D01*
Y13950D01*
D02*
G37*
G36*
X11850Y13045D02*
X11802Y13036D01*
X11720Y12980D01*
X11665Y12898D01*
X11655Y12850D01*
X11850D01*
Y13045D01*
D02*
G37*
G36*
X12145Y12750D02*
X11950D01*
Y12555D01*
X11998Y12565D01*
X12080Y12620D01*
X12135Y12702D01*
X12145Y12750D01*
D02*
G37*
G36*
X11850D02*
X11655D01*
X11665Y12702D01*
X11720Y12620D01*
X11802Y12565D01*
X11850Y12555D01*
Y12750D01*
D02*
G37*
G36*
X26070Y11836D02*
X25260D01*
Y11530D01*
X25417D01*
X25440Y11486D01*
X25415Y11448D01*
X25405Y11400D01*
X25895D01*
X25886Y11448D01*
X25860Y11486D01*
X25883Y11530D01*
X26070D01*
Y11836D01*
D02*
G37*
G36*
X25895Y11300D02*
X25700D01*
Y11105D01*
X25748Y11114D01*
X25830Y11170D01*
X25886Y11252D01*
X25895Y11300D01*
D02*
G37*
G36*
X25600D02*
X25405D01*
X25415Y11252D01*
X25470Y11170D01*
X25552Y11114D01*
X25600Y11105D01*
Y11300D01*
D02*
G37*
G36*
X27500Y41199D02*
X27312Y41184D01*
X27130Y41140D01*
X26956Y41068D01*
X26795Y40970D01*
X26652Y40848D01*
X26530Y40705D01*
X26432Y40544D01*
X26360Y40370D01*
X26316Y40188D01*
X26301Y40000D01*
X26316Y39812D01*
X26360Y39630D01*
X26432Y39456D01*
X26530Y39295D01*
X26652Y39152D01*
X26795Y39030D01*
X26956Y38932D01*
X27130Y38860D01*
X27312Y38816D01*
X27500Y38801D01*
X27688Y38816D01*
X27870Y38860D01*
X28044Y38932D01*
X28205Y39030D01*
X28348Y39152D01*
X28470Y39295D01*
X28568Y39456D01*
X28640Y39630D01*
X28684Y39812D01*
X28699Y40000D01*
X28684Y40188D01*
X28640Y40370D01*
X28568Y40544D01*
X28470Y40705D01*
X28348Y40848D01*
X28205Y40970D01*
X28044Y41068D01*
X27870Y41140D01*
X27688Y41184D01*
X27500Y41199D01*
D02*
G37*
G36*
X10000D02*
X9812Y41184D01*
X9630Y41140D01*
X9456Y41068D01*
X9295Y40970D01*
X9152Y40848D01*
X9030Y40705D01*
X8932Y40544D01*
X8860Y40370D01*
X8816Y40188D01*
X8801Y40000D01*
X8816Y39812D01*
X8860Y39630D01*
X8932Y39456D01*
X9030Y39295D01*
X9152Y39152D01*
X9295Y39030D01*
X9456Y38932D01*
X9630Y38860D01*
X9812Y38816D01*
X10000Y38801D01*
X10188Y38816D01*
X10370Y38860D01*
X10544Y38932D01*
X10705Y39030D01*
X10848Y39152D01*
X10970Y39295D01*
X11068Y39456D01*
X11140Y39630D01*
X11184Y39812D01*
X11199Y40000D01*
X11184Y40188D01*
X11140Y40370D01*
X11068Y40544D01*
X10970Y40705D01*
X10848Y40848D01*
X10705Y40970D01*
X10544Y41068D01*
X10370Y41140D01*
X10188Y41184D01*
X10000Y41199D01*
D02*
G37*
G36*
X12850Y11802D02*
Y11450D01*
X13202D01*
X13195Y11506D01*
X13154Y11604D01*
X13089Y11689D01*
X13004Y11754D01*
X12906Y11795D01*
X12850Y11802D01*
D02*
G37*
G36*
X12750D02*
X12694Y11795D01*
X12596Y11754D01*
X12511Y11689D01*
X12446Y11604D01*
X12405Y11506D01*
X12398Y11450D01*
X12750D01*
Y11802D01*
D02*
G37*
G36*
X13202Y11350D02*
X12850D01*
Y10998D01*
X12906Y11005D01*
X13004Y11046D01*
X13089Y11111D01*
X13154Y11196D01*
X13195Y11294D01*
X13202Y11350D01*
D02*
G37*
G36*
X12750D02*
X12398D01*
X12405Y11294D01*
X12446Y11196D01*
X12511Y11111D01*
X12596Y11046D01*
X12694Y11005D01*
X12750Y10998D01*
Y11350D01*
D02*
G37*
G36*
X22550Y10824D02*
X22464Y10807D01*
X22391Y10759D01*
X22343Y10686D01*
X22326Y10600D01*
X22343Y10514D01*
X22359Y10490D01*
X22332Y10440D01*
X22160D01*
Y9887D01*
X22114Y9868D01*
X21772Y10210D01*
Y10417D01*
X21809Y10441D01*
X21857Y10514D01*
X21874Y10600D01*
X21857Y10686D01*
X21809Y10759D01*
X21736Y10807D01*
X21650Y10824D01*
X21564Y10807D01*
X21491Y10759D01*
X21443Y10686D01*
X21426Y10600D01*
X21443Y10514D01*
X21491Y10441D01*
X21528Y10417D01*
Y10159D01*
X21537Y10112D01*
X21563Y10073D01*
X22204Y9432D01*
Y8895D01*
X22796D01*
Y9605D01*
X22377D01*
X22240Y9742D01*
X22259Y9788D01*
X22910D01*
Y10440D01*
X22768D01*
X22741Y10490D01*
X22757Y10514D01*
X22774Y10600D01*
X22757Y10686D01*
X22709Y10759D01*
X22636Y10807D01*
X22550Y10824D01*
D02*
G37*
G36*
X24535Y9615D02*
X23805D01*
Y9372D01*
X23485D01*
Y9605D01*
X22893D01*
Y8895D01*
X23485D01*
Y9128D01*
X23805D01*
Y8885D01*
X24535D01*
Y9615D01*
D02*
G37*
G36*
X10000Y11199D02*
X9812Y11184D01*
X9630Y11140D01*
X9456Y11068D01*
X9295Y10970D01*
X9152Y10848D01*
X9030Y10705D01*
X8932Y10544D01*
X8860Y10370D01*
X8816Y10188D01*
X8801Y10000D01*
X8816Y9812D01*
X8860Y9630D01*
X8932Y9456D01*
X9030Y9295D01*
X9152Y9152D01*
X9295Y9030D01*
X9456Y8932D01*
X9630Y8860D01*
X9812Y8816D01*
X10000Y8801D01*
X10188Y8816D01*
X10370Y8860D01*
X10544Y8932D01*
X10705Y9030D01*
X10848Y9152D01*
X10970Y9295D01*
X11068Y9456D01*
X11140Y9630D01*
X11184Y9812D01*
X11199Y10000D01*
X11184Y10188D01*
X11140Y10370D01*
X11068Y10544D01*
X10970Y10705D01*
X10848Y10848D01*
X10705Y10970D01*
X10544Y11068D01*
X10370Y11140D01*
X10188Y11184D01*
X10000Y11199D01*
D02*
G37*
%LPD*%
D13*
X19350Y16350D02*
Y18450D01*
X20350Y15350D02*
X21500D01*
X19350Y16350D02*
X20350Y15350D01*
X20916Y16320D02*
X20958D01*
X21151Y16127D01*
X20550Y16150D02*
X21050Y15650D01*
X11900Y12800D02*
Y12824D01*
X12438Y13362D01*
X15900Y20950D02*
X16482D01*
X16683Y21151D01*
X13050Y19750D02*
Y20864D01*
X11987Y13613D02*
Y13975D01*
X11962Y14000D02*
X11987Y13975D01*
X12238Y13362D02*
X12438D01*
X11987Y13613D02*
X12238Y13362D01*
X19350Y18450D02*
X19950Y19050D01*
X18936Y19050D02*
X19950D01*
X22423Y12609D02*
Y13077D01*
X20043Y19468D02*
X20075Y19500D01*
X20043Y19143D02*
Y19468D01*
X19950Y19050D02*
X20043Y19143D01*
X18850Y19136D02*
X18936Y19050D01*
X18850Y19136D02*
Y19500D01*
X17650Y19050D02*
X18750D01*
X18843Y19143D01*
X17578Y19122D02*
Y19500D01*
Y19122D02*
X17650Y19050D01*
X18850Y14244D02*
X19144Y13950D01*
X18850Y14244D02*
Y16916D01*
X17216Y18550D02*
X18850Y16916D01*
X22013Y16127D02*
X22031Y16145D01*
Y18031D02*
X22050Y18050D01*
X22031Y16145D02*
Y18031D01*
X25146Y18272D02*
X25484Y17934D01*
X24473Y16698D02*
X24739D01*
X25148Y16288D01*
X25312D01*
X25350Y16250D01*
X24987Y17013D02*
X25350Y16650D01*
X24473Y17013D02*
X24987D01*
X24473Y17328D02*
X25072D01*
X25350Y17050D01*
X20550Y16150D02*
Y17500D01*
X20687Y17637D01*
X21151Y16127D02*
X21698D01*
X24473Y17643D02*
Y17957D01*
X22650Y22550D02*
Y29400D01*
X25650Y32400D01*
X22850Y22510D02*
Y27850D01*
X26200Y31200D02*
Y32850D01*
X22850Y27850D02*
X26200Y31200D01*
X25650Y33400D02*
X26200Y32850D01*
X22150Y20600D02*
Y21810D01*
X22850Y22510D01*
X21980Y20680D02*
Y21880D01*
X22650Y22550D01*
X20380Y19080D02*
X21980Y20680D01*
X20550Y19000D02*
X22150Y20600D01*
X20380Y18270D02*
Y19080D01*
X20550Y18400D02*
Y19000D01*
X20380Y18270D02*
X20666Y17984D01*
X21101D01*
X21127Y17957D01*
X20678Y18272D02*
X21127D01*
X20550Y18400D02*
X20678Y18272D01*
X16850Y19421D02*
Y19500D01*
X16600Y19206D02*
X16659Y19265D01*
X16600Y18820D02*
Y19206D01*
X16693Y19265D02*
X16850Y19421D01*
X16659Y19265D02*
X16693D01*
X18750Y20250D02*
Y22050D01*
X18317Y19617D02*
Y19817D01*
X18750Y20250D01*
X18200Y19500D02*
X18317Y19617D01*
X19439Y19514D02*
Y21151D01*
X19425Y19500D02*
X19439Y19514D01*
X15773Y19800D02*
X16200D01*
X15450Y18550D02*
X17216D01*
X14300Y19700D02*
X15450Y18550D01*
X15370Y18380D02*
X17146D01*
X18650Y16876D01*
X14100Y19650D02*
X15370Y18380D01*
X16600Y17500D02*
Y17900D01*
X17553Y17016D02*
X17569Y17000D01*
X16600Y17500D02*
X17084Y17016D01*
X17553D01*
X25395Y34655D02*
Y34783D01*
Y34655D02*
X25650Y34400D01*
X24128Y36050D02*
X25395Y34783D01*
X23800Y20550D02*
X24585D01*
X27041Y18094D02*
X27100D01*
X24585Y20550D02*
X27041Y18094D01*
X27100Y13344D02*
Y14200D01*
Y15432D01*
X26650Y15882D02*
X27100Y15432D01*
X21575Y15201D02*
X21763Y15013D01*
X25100Y10100D02*
X25651D01*
X25665Y10114D01*
Y10485D01*
X21127Y16673D02*
Y16698D01*
X21088Y16488D02*
Y16635D01*
X20916Y16316D02*
X21088Y16488D01*
Y16635D02*
X21127Y16673D01*
X21121Y17637D02*
X21127Y17643D01*
X20687Y17637D02*
X21121D01*
X15050Y20523D02*
X15773Y19800D01*
X15050Y20523D02*
Y20864D01*
X24473Y18272D02*
X25146D01*
X24486Y17945D02*
X24905D01*
X25150Y17700D01*
X24473Y17957D02*
X24486Y17945D01*
X26150Y12700D02*
Y18131D01*
X25980Y12830D02*
Y18060D01*
X24473Y18587D02*
X25213D01*
X24483Y18892D02*
X25148D01*
X23965Y19257D02*
X25023D01*
X25800Y12950D02*
Y18000D01*
X25023Y19257D02*
X26150Y18131D01*
X25148Y18892D02*
X25980Y18060D01*
X25213Y18587D02*
X25800Y18000D01*
X24473Y18902D02*
X24483Y18892D01*
X15300Y14450D02*
X18050D01*
X18300Y14700D01*
X15121Y14271D02*
X15300Y14450D01*
X14984Y14000D02*
X15121Y14137D01*
Y14271D01*
X15943Y13950D02*
X17372D01*
X15243Y13250D02*
X15943Y13950D01*
X10350Y13344D02*
X10394Y13300D01*
X10900D01*
X11250Y14300D02*
X11709Y14759D01*
X11250Y12300D02*
Y14300D01*
X10500Y11550D02*
X11250Y12300D01*
X11709Y14759D02*
X12445D01*
X14050Y16364D01*
X17372Y13950D02*
X19522Y11800D01*
X21650D01*
X18750Y22050D02*
X19150Y22450D01*
X20246D01*
X20817Y21879D01*
Y21151D02*
Y21879D01*
X11215Y37900D02*
X14528D01*
X10409Y37094D02*
X11215Y37900D01*
X14528D02*
X16378Y36050D01*
Y37113D01*
X10350Y37094D02*
X10409D01*
X26650Y36704D02*
X27041Y37094D01*
X25996Y36050D02*
X26650Y36704D01*
X24128Y36050D02*
X25996D01*
X27041Y37094D02*
X27100D01*
X16378Y37113D02*
X18556Y39291D01*
Y39350D01*
X24415Y41065D02*
X28100Y37380D01*
X18270Y40650D02*
X18770D01*
X19185Y41065D01*
X24415D01*
X13224Y40650D02*
X18270D01*
X9954Y37380D02*
X13224Y40650D01*
X9350Y37380D02*
X9954D01*
X12100Y10300D02*
X12600Y9800D01*
X14554D02*
X15044Y9309D01*
X12600Y9800D02*
X14554D01*
X12100Y10300D02*
Y11700D01*
X12800Y12400D01*
X15044Y9250D02*
Y9309D01*
X18650Y14244D02*
Y16876D01*
X18356Y13950D02*
X18650Y14244D01*
X22110Y11340D02*
X22960D01*
X14270Y11170D02*
X22039D01*
X22960Y11340D02*
X23990D01*
X13860D02*
X22110D01*
X22890Y11510D02*
X22890Y11510D01*
X13800Y11400D02*
X13860Y11340D01*
X22180Y11510D02*
X22180Y11510D01*
X23101Y11000D02*
X23101Y11000D01*
X22180Y11510D02*
X22890D01*
X21969Y11000D02*
X21969Y11000D01*
X16588Y11510D02*
X22180D01*
X21969Y11000D02*
X23101D01*
X23101Y11000D02*
X25150D01*
X24070Y11170D02*
X25300Y12400D01*
X22039Y11170D02*
X22039Y11170D01*
X23031D02*
X23031Y11170D01*
X14000Y10900D02*
X14270Y11170D01*
X22890Y11510D02*
X23910D01*
X22960Y11340D02*
X22960Y11340D01*
X23031Y11170D02*
X24070D01*
X14400Y11000D02*
X21969D01*
X23990Y11340D02*
X25220Y12570D01*
X13800Y10400D02*
X14400Y11000D01*
X23910Y11510D02*
X25140Y12740D01*
X22110Y11340D02*
X22110Y11340D01*
X22039Y11170D02*
X23031D01*
X25150Y11000D02*
X25665Y10485D01*
X15698Y12400D02*
X16588Y11510D01*
X21650Y10159D02*
X22500Y9309D01*
X21650Y10159D02*
Y10600D01*
X22550Y10129D02*
Y10600D01*
X21650Y11835D02*
X22423Y12609D01*
X21650Y11800D02*
Y11835D01*
X22500Y9250D02*
Y9309D01*
X23150Y12686D02*
X23164Y12700D01*
X23150Y11900D02*
Y12686D01*
X22535Y10114D02*
X22550Y10129D01*
X23189Y9250D02*
X24170D01*
X27150Y11550D02*
X28040D01*
X26200Y10600D02*
X27150Y11550D01*
X28040D02*
X28515Y12025D01*
X26200Y9575D02*
Y10600D01*
X25875Y9250D02*
X26200Y9575D01*
X25430Y9250D02*
X25875D01*
X28515Y12025D02*
Y12715D01*
X28100Y13130D02*
X28515Y12715D01*
X28100Y13130D02*
Y13630D01*
Y15462D02*
X28515Y15878D01*
X28100Y13630D02*
Y15462D01*
Y17880D02*
Y18380D01*
Y17880D02*
X28515Y17465D01*
Y15878D02*
Y17465D01*
X28100Y22630D02*
X28515Y22215D01*
Y18795D02*
Y22215D01*
X28100Y22630D02*
Y23130D01*
Y18380D02*
X28515Y18795D01*
X28100Y27380D02*
X28515Y26965D01*
X28100Y23130D02*
X28515Y23545D01*
X28100Y27380D02*
Y27880D01*
X28515Y23545D02*
Y26965D01*
X28100Y32130D02*
X28515Y31715D01*
X28100Y27880D02*
X28515Y28295D01*
X28100Y32130D02*
Y32630D01*
X28515Y28295D02*
Y31715D01*
X28100Y36880D02*
X28515Y36465D01*
Y33045D02*
Y36465D01*
X28100Y36880D02*
Y37380D01*
Y32630D02*
X28515Y33045D01*
X26650Y34882D02*
Y36704D01*
Y34882D02*
X27100Y34432D01*
Y32344D02*
Y34432D01*
X26650Y31954D02*
X27041Y32344D01*
X26650Y30132D02*
Y31954D01*
Y30132D02*
X27100Y29682D01*
X27041Y32344D02*
X27100D01*
Y27594D02*
Y29682D01*
X26650Y25382D02*
Y27204D01*
Y25382D02*
X27100Y24932D01*
X26650Y27204D02*
X27041Y27594D01*
X27100Y22844D02*
Y24932D01*
X27041Y27594D02*
X27100D01*
X26650Y22454D02*
X27041Y22844D01*
X26650Y20632D02*
X27100Y20182D01*
X26650Y20632D02*
Y22454D01*
X27100Y18094D02*
Y20182D01*
X27041Y22844D02*
X27100D01*
X26650Y15882D02*
Y17704D01*
X27041Y18094D01*
X27100Y12656D02*
X27159D01*
X27444Y12370D02*
X28100D01*
X27159Y12656D02*
X27444Y12370D01*
Y17120D02*
X28100D01*
X27159Y17406D02*
X27444Y17120D01*
X27100Y17406D02*
X27159D01*
X27444Y21870D02*
X28100D01*
X27159Y22156D02*
X27444Y21870D01*
X27100Y22156D02*
X27159D01*
Y26906D02*
X27444Y26620D01*
X27100Y26906D02*
X27159D01*
X27444Y26620D02*
X28100D01*
X27159Y31656D02*
X27444Y31370D01*
X27100Y31656D02*
X27159D01*
X27444Y31370D02*
X28100D01*
X27444Y36120D02*
X28100D01*
X27159Y36406D02*
X27444Y36120D01*
X27100Y36406D02*
X27159D01*
X8900Y13180D02*
X9350Y13630D01*
X8900Y11850D02*
Y13180D01*
X10500Y11550D02*
X12170Y9880D01*
X8900Y11850D02*
X9200Y11550D01*
X10500D01*
X12170Y9250D02*
Y9880D01*
X14606Y36050D02*
X15256Y35400D01*
X21600Y35600D02*
X21864Y35864D01*
X14988Y36455D02*
X15394Y36050D01*
X15256Y35400D02*
X21707D01*
X22356Y36050D01*
X15394D02*
X15843Y35600D01*
X21600D01*
X21864Y35864D02*
Y36214D01*
X22105Y36455D01*
X22738D01*
X23144Y36050D01*
X14300Y19700D02*
Y35640D01*
X14606Y35946D01*
X14100Y19650D02*
Y36250D01*
X14305Y36455D01*
X14606Y35946D02*
Y36050D01*
X14305Y36455D02*
X14988D01*
X13300Y10900D02*
X14000D01*
X12800Y10400D02*
X13300Y10900D01*
X25850Y12400D02*
X26150Y12700D01*
X25720Y12570D02*
X25980Y12830D01*
X25220Y12570D02*
X25720D01*
X25300Y12400D02*
X25850D01*
X25140Y12740D02*
X25590D01*
X25800Y12950D01*
X23902Y19320D02*
X23965Y19257D01*
X23902Y19320D02*
Y19473D01*
X13800Y12400D02*
X15698D01*
X24781Y14517D02*
X24820D01*
X25200Y14137D01*
Y13800D02*
Y14137D01*
X21650Y13850D02*
X22423Y13077D01*
X21650Y14900D02*
X21763Y15013D01*
X21650Y13850D02*
Y14900D01*
X22113Y15013D02*
X22150Y15050D01*
X21763Y15013D02*
X22113D01*
X22150Y15050D02*
X22170D01*
X13150Y13250D02*
X15243D01*
X12800Y12900D02*
X13150Y13250D01*
X12800Y12400D02*
Y12900D01*
X13430Y9250D02*
X14356D01*
X13438Y14000D02*
X14216D01*
X8935Y15878D02*
X9350Y15462D01*
Y17880D02*
Y18380D01*
X8935Y17465D02*
X9350Y17880D01*
X8935Y15878D02*
Y17465D01*
X9350Y13630D02*
Y15462D01*
X8935Y20628D02*
Y22215D01*
Y20628D02*
X9350Y20212D01*
Y18380D02*
Y20212D01*
Y22630D02*
Y23130D01*
X8935Y22215D02*
X9350Y22630D01*
X8935Y26965D02*
X9350Y27380D01*
X8935Y25378D02*
X9350Y24962D01*
Y23130D02*
Y24962D01*
Y27380D02*
Y27880D01*
X8935Y25378D02*
Y26965D01*
Y30128D02*
Y31715D01*
X9350Y27880D02*
Y29712D01*
Y32130D02*
Y32630D01*
X8935Y31715D02*
X9350Y32130D01*
X8935Y30128D02*
X9350Y29712D01*
X8935Y34878D02*
Y36465D01*
Y34878D02*
X9350Y34462D01*
Y36880D02*
Y37380D01*
X8935Y36465D02*
X9350Y36880D01*
Y32630D02*
Y34462D01*
X19244Y39409D02*
X19530Y39694D01*
Y40650D01*
X19244Y39350D02*
Y39409D01*
X10409Y37094D02*
X10800Y36704D01*
Y32735D02*
Y36704D01*
X10409Y32344D02*
X10800Y32735D01*
X10409Y32344D02*
X10800Y31954D01*
X10409Y27594D02*
X10800Y27985D01*
Y31954D01*
X10350Y27594D02*
X10409D01*
X10350Y32344D02*
X10409D01*
Y27594D02*
X10800Y27204D01*
X10409Y22844D02*
X10800Y23235D01*
Y27204D01*
X10350Y22844D02*
X10409D01*
Y18094D02*
X10800Y18485D01*
Y22454D01*
X10409Y22844D02*
X10800Y22454D01*
Y13735D02*
Y17704D01*
X10409Y18094D02*
X10800Y17704D01*
X10409Y13344D02*
X10800Y13735D01*
X10350Y13344D02*
X10409D01*
X10006Y12370D02*
X10291Y12656D01*
X9350Y12370D02*
X10006D01*
X10291Y12656D02*
X10350D01*
X10006Y17120D02*
X10291Y17406D01*
X10350D01*
X9350Y17120D02*
X10006D01*
Y21870D02*
X10291Y22156D01*
X10350D01*
X9350Y21870D02*
X10006D01*
Y26620D02*
X10291Y26906D01*
X10350D01*
X9350Y26620D02*
X10006D01*
X10291Y31656D02*
X10350D01*
X9350Y31370D02*
X10006D01*
X10291Y31656D01*
X10006Y36120D02*
X10291Y36406D01*
X10350D01*
X9350Y36120D02*
X10006D01*
X24150Y13795D02*
Y14745D01*
X23902Y15861D02*
Y16127D01*
Y15861D02*
X24429Y15335D01*
X23995Y14900D02*
X24150Y14745D01*
X23587Y15127D02*
Y16127D01*
X23272Y15172D02*
Y16127D01*
X23826Y15069D02*
X23995Y14900D01*
X23646Y15069D02*
X23826D01*
X23587Y15127D02*
X23646Y15069D01*
X24605Y14693D02*
X24781Y14517D01*
X24429Y15076D02*
Y15335D01*
X24605Y14693D02*
Y14900D01*
X24429Y15076D02*
X24605Y14900D01*
X22800Y20550D02*
X23800D01*
X23587Y20337D02*
X23800Y20550D01*
X22957Y19473D02*
Y20393D01*
X23587Y19473D02*
Y20337D01*
X22800Y20550D02*
X22957Y20393D01*
X22643Y15523D02*
Y16127D01*
X22170Y15050D02*
X23150D01*
X22170D02*
X22643Y15523D01*
X23150Y15050D02*
X23272Y15172D01*
D16*
X16683Y21151D02*
D03*
X18061D02*
D03*
X19439D02*
D03*
X20817D02*
D03*
D17*
X21698Y16127D02*
D03*
X22013D02*
D03*
X22328D02*
D03*
X22643D02*
D03*
X22957D02*
D03*
X23272D02*
D03*
X23587D02*
D03*
X23902D02*
D03*
Y19473D02*
D03*
X23587D02*
D03*
X23272D02*
D03*
X22957D02*
D03*
X22643D02*
D03*
X22328D02*
D03*
X22013D02*
D03*
X21698D02*
D03*
D18*
X24473Y16698D02*
D03*
Y17013D02*
D03*
Y17328D02*
D03*
Y17643D02*
D03*
Y17957D02*
D03*
Y18272D02*
D03*
Y18587D02*
D03*
Y18902D02*
D03*
X21127D02*
D03*
Y18587D02*
D03*
Y18272D02*
D03*
Y17957D02*
D03*
Y17643D02*
D03*
Y17328D02*
D03*
Y17013D02*
D03*
Y16698D02*
D03*
D19*
X16850Y19500D02*
D03*
X17578D02*
D03*
X23164Y12700D02*
D03*
X22436D02*
D03*
D20*
X19931Y17000D02*
D03*
X17569D02*
D03*
D21*
X28100Y23130D02*
D03*
Y21870D02*
D03*
X9350Y13630D02*
D03*
Y12370D02*
D03*
Y32630D02*
D03*
Y31370D02*
D03*
Y18380D02*
D03*
Y17120D02*
D03*
Y23130D02*
D03*
Y21870D02*
D03*
Y27880D02*
D03*
Y26620D02*
D03*
Y37380D02*
D03*
Y36120D02*
D03*
X28100Y18380D02*
D03*
Y17120D02*
D03*
Y27880D02*
D03*
Y26620D02*
D03*
Y32630D02*
D03*
Y31370D02*
D03*
Y37380D02*
D03*
Y36120D02*
D03*
Y13630D02*
D03*
Y12370D02*
D03*
D22*
X27100Y22156D02*
D03*
Y22844D02*
D03*
Y17406D02*
D03*
Y18094D02*
D03*
Y26906D02*
D03*
Y27594D02*
D03*
Y31656D02*
D03*
Y32344D02*
D03*
Y36406D02*
D03*
Y37094D02*
D03*
X10350Y36406D02*
D03*
Y37094D02*
D03*
Y31656D02*
D03*
Y32344D02*
D03*
Y26906D02*
D03*
Y27594D02*
D03*
Y22156D02*
D03*
Y22844D02*
D03*
Y17406D02*
D03*
Y18094D02*
D03*
Y12656D02*
D03*
Y13344D02*
D03*
X27100Y12656D02*
D03*
Y13344D02*
D03*
D23*
X19244Y39350D02*
D03*
X18556D02*
D03*
X14356Y9250D02*
D03*
X15044D02*
D03*
X23189D02*
D03*
X22500D02*
D03*
D24*
X18270Y40650D02*
D03*
X19530D02*
D03*
X12070Y9250D02*
D03*
X13330D02*
D03*
X25430D02*
D03*
X24170D02*
D03*
D25*
X13050Y20864D02*
D03*
X15050D02*
D03*
D26*
X14050Y16364D02*
D03*
D27*
X13438Y14000D02*
D03*
X11962D02*
D03*
D28*
X14984D02*
D03*
X14216D02*
D03*
D29*
X23995Y14900D02*
D03*
X24605D02*
D03*
D30*
X23800Y21298D02*
D03*
Y20550D02*
D03*
X22800Y21298D02*
D03*
Y20550D02*
D03*
X23150Y14302D02*
D03*
Y15050D02*
D03*
X22150Y14302D02*
D03*
Y15050D02*
D03*
D31*
X25200Y13209D02*
D03*
Y13800D02*
D03*
X24150Y13205D02*
D03*
Y13795D02*
D03*
D32*
X19425Y19500D02*
D03*
X20075D02*
D03*
X18200D02*
D03*
X18850D02*
D03*
D33*
X25665Y10114D02*
D03*
X22535D02*
D03*
X25665Y11886D02*
D03*
X22535D02*
D03*
D49*
X21900Y23100D02*
D03*
X15600D02*
D03*
D50*
X25650Y34400D02*
D03*
X11850Y34450D02*
D03*
X12800Y12400D02*
D03*
D51*
X25650Y33400D02*
D03*
Y32400D02*
D03*
Y31400D02*
D03*
X11850Y33450D02*
D03*
Y32450D02*
D03*
Y31450D02*
D03*
X13800Y12400D02*
D03*
X12800Y11400D02*
D03*
Y10400D02*
D03*
X13800Y11400D02*
D03*
Y10400D02*
D03*
D52*
X12413Y37117D02*
D03*
X17587D02*
D03*
X21337Y12883D02*
D03*
X16163D02*
D03*
X20163Y37117D02*
D03*
X25337D02*
D03*
D53*
X13622Y36050D02*
D03*
X14606D02*
D03*
X15394D02*
D03*
X20128Y13950D02*
D03*
X19144D02*
D03*
X18356D02*
D03*
X21372Y36050D02*
D03*
X22356D02*
D03*
X23144D02*
D03*
D54*
X16378D02*
D03*
X17372Y13950D02*
D03*
X24128Y36050D02*
D03*
D55*
X27500Y40000D02*
D03*
X10000D02*
D03*
Y10000D02*
D03*
X27500D02*
D03*
D56*
X20600Y15650D02*
D03*
X20916Y16320D02*
D03*
X21050Y15650D02*
D03*
X25650Y11350D02*
D03*
X24700Y12700D02*
D03*
X11900Y12800D02*
D03*
X15900Y20950D02*
D03*
X12438Y13362D02*
D03*
X13050Y19750D02*
D03*
X22050Y18050D02*
D03*
X25484Y17934D02*
D03*
X25350Y16250D02*
D03*
Y16650D02*
D03*
Y17050D02*
D03*
X16200Y19800D02*
D03*
X16600Y18820D02*
D03*
Y17900D02*
D03*
X27100Y14200D02*
D03*
X21500Y15350D02*
D03*
X25100Y10100D02*
D03*
X25150Y17700D02*
D03*
X18300Y14700D02*
D03*
X10900Y13300D02*
D03*
X21650Y10600D02*
D03*
X22550D02*
D03*
X21650Y11800D02*
D03*
X23150Y11900D02*
D03*
M02*
