G04*
G04 #@! TF.GenerationSoftware,Altium Limited,Altium Designer,22.3.1 (43)*
G04*
G04 Layer_Color=32896*
%FSLAX24Y24*%
%MOIN*%
G70*
G04*
G04 #@! TF.SameCoordinates,CDBB2D6B-2E46-4EDB-87CF-436FCBA96DB9*
G04*
G04*
G04 #@! TF.FilePolarity,Positive*
G04*
G01*
G75*
G36*
X18130Y30330D02*
X18190D01*
Y30310D01*
X18230D01*
Y30290D01*
X18290D01*
Y30270D01*
X18330D01*
Y30250D01*
X18410D01*
Y30230D01*
X18450D01*
Y30210D01*
X18490D01*
Y30190D01*
X18530D01*
Y30170D01*
X18570D01*
Y30150D01*
X18590D01*
Y30130D01*
X18610D01*
Y30110D01*
X18650D01*
Y30090D01*
X18670D01*
Y30070D01*
X18690D01*
Y30050D01*
X18710D01*
Y30030D01*
X18730D01*
Y30010D01*
X18750D01*
Y29990D01*
X18770D01*
Y29970D01*
X18790D01*
Y29930D01*
X18810D01*
Y29910D01*
X18830D01*
Y29710D01*
X18890D01*
Y29730D01*
X18970D01*
Y29710D01*
X19030D01*
Y29690D01*
X19070D01*
Y29670D01*
X19090D01*
Y29650D01*
X19130D01*
Y29630D01*
X19150D01*
Y29610D01*
X19170D01*
Y29550D01*
X19190D01*
Y29530D01*
X19470D01*
Y29510D01*
X19490D01*
Y29530D01*
X19750D01*
Y29510D01*
X20010D01*
Y29490D01*
X20050D01*
Y29470D01*
X20070D01*
Y29430D01*
X20090D01*
Y29250D01*
X20070D01*
Y29210D01*
X20050D01*
Y29170D01*
X20030D01*
Y29150D01*
X20010D01*
Y29110D01*
X19990D01*
Y29070D01*
X19970D01*
Y29030D01*
X19950D01*
Y29010D01*
X19930D01*
Y28970D01*
X19910D01*
Y28950D01*
X19890D01*
Y28910D01*
X19870D01*
Y28890D01*
X19850D01*
Y28870D01*
X19830D01*
Y28850D01*
X19810D01*
Y28810D01*
X19790D01*
Y28790D01*
X19810D01*
Y28770D01*
X19850D01*
Y28750D01*
X19870D01*
Y28730D01*
X19890D01*
Y28710D01*
X19930D01*
Y28690D01*
X19950D01*
Y28670D01*
X19970D01*
Y28650D01*
X19990D01*
Y28630D01*
X20010D01*
Y28610D01*
X20050D01*
Y28590D01*
X20070D01*
Y28570D01*
X20090D01*
Y28550D01*
X20110D01*
Y28530D01*
X20130D01*
Y28510D01*
X20170D01*
Y28490D01*
X20190D01*
Y28470D01*
X20210D01*
Y28450D01*
X20250D01*
Y28430D01*
X20270D01*
Y28410D01*
X20290D01*
Y28390D01*
X20330D01*
Y28370D01*
X20370D01*
Y28350D01*
X20390D01*
Y28330D01*
X20430D01*
Y28310D01*
X20470D01*
Y28290D01*
X20490D01*
Y28270D01*
X20530D01*
Y28250D01*
X20550D01*
Y28230D01*
X20590D01*
Y28210D01*
X20610D01*
Y28190D01*
X20650D01*
Y28170D01*
X20670D01*
Y28150D01*
X20710D01*
Y28130D01*
X20750D01*
Y28110D01*
X20790D01*
Y28090D01*
X20830D01*
Y28070D01*
X20870D01*
Y28050D01*
X20910D01*
Y28030D01*
X20970D01*
Y28010D01*
X21010D01*
Y27990D01*
X21050D01*
Y27970D01*
X21090D01*
Y27950D01*
X21150D01*
Y27930D01*
X21190D01*
Y27910D01*
X21250D01*
Y27890D01*
X21290D01*
Y27870D01*
X21350D01*
Y27850D01*
X21390D01*
Y27830D01*
X21430D01*
Y27810D01*
X21470D01*
Y27790D01*
X21510D01*
Y27770D01*
X21570D01*
Y27750D01*
X21610D01*
Y27730D01*
X21670D01*
Y27710D01*
X21730D01*
Y27690D01*
X21790D01*
Y27670D01*
X21830D01*
Y27650D01*
X21890D01*
Y27630D01*
X21930D01*
Y27610D01*
X21990D01*
Y27590D01*
X22030D01*
Y27570D01*
X22090D01*
Y27550D01*
X22150D01*
Y27530D01*
X22230D01*
Y27510D01*
X22290D01*
Y27490D01*
X22370D01*
Y27470D01*
X22450D01*
Y27450D01*
X22530D01*
Y27430D01*
X22610D01*
Y27410D01*
X22710D01*
Y27390D01*
X22850D01*
Y27370D01*
X22990D01*
Y27350D01*
X23130D01*
Y27330D01*
X23310D01*
Y27310D01*
X23430D01*
Y27290D01*
X23650D01*
Y27310D01*
X23790D01*
Y27330D01*
X23910D01*
Y27350D01*
X24030D01*
Y27370D01*
X24170D01*
Y27390D01*
X24250D01*
Y27410D01*
X24310D01*
Y27430D01*
X24370D01*
Y27450D01*
X24430D01*
Y27470D01*
X24470D01*
Y27490D01*
X24530D01*
Y27510D01*
X24590D01*
Y27530D01*
X24630D01*
Y27550D01*
X24670D01*
Y27570D01*
X24710D01*
Y27590D01*
X24750D01*
Y27610D01*
X24790D01*
Y27630D01*
X24830D01*
Y27650D01*
X24870D01*
Y27670D01*
X24910D01*
Y27690D01*
X24950D01*
Y27710D01*
X24970D01*
Y27730D01*
X25010D01*
Y27750D01*
X25050D01*
Y27770D01*
X25070D01*
Y27790D01*
X25090D01*
Y27810D01*
X25130D01*
Y27830D01*
X25170D01*
Y27850D01*
X25190D01*
Y27870D01*
X25230D01*
Y27890D01*
X25250D01*
Y27910D01*
X25290D01*
Y27930D01*
X25310D01*
Y27950D01*
X25350D01*
Y27970D01*
X25390D01*
Y27990D01*
X25410D01*
Y28010D01*
X25450D01*
Y28030D01*
X25470D01*
Y28050D01*
X25490D01*
Y28070D01*
X25530D01*
Y28090D01*
X25550D01*
Y28110D01*
X25590D01*
Y28130D01*
X25610D01*
Y28150D01*
X25650D01*
Y28170D01*
X25690D01*
Y28190D01*
X25710D01*
Y28210D01*
X25750D01*
Y28230D01*
X25770D01*
Y28250D01*
X25790D01*
Y28270D01*
X25830D01*
Y28290D01*
X25850D01*
Y28310D01*
X25870D01*
Y28330D01*
X25910D01*
Y28350D01*
X25930D01*
Y28370D01*
X25950D01*
Y28390D01*
X25990D01*
Y28410D01*
X26010D01*
Y28430D01*
X26030D01*
Y28450D01*
X26050D01*
Y28470D01*
X26070D01*
Y28490D01*
X26090D01*
Y28510D01*
X26110D01*
Y28530D01*
X26150D01*
Y28550D01*
X26170D01*
Y28570D01*
X26190D01*
Y28590D01*
X26210D01*
Y28610D01*
X26230D01*
Y28630D01*
X26250D01*
Y28650D01*
X26270D01*
Y28670D01*
X26290D01*
Y28690D01*
X26310D01*
Y28710D01*
X26330D01*
Y28730D01*
X26350D01*
Y28770D01*
X26390D01*
Y28790D01*
X26410D01*
Y28810D01*
X26430D01*
Y28830D01*
X26450D01*
Y28850D01*
X26490D01*
Y28870D01*
X26530D01*
Y28890D01*
X26550D01*
Y28910D01*
X26570D01*
Y28930D01*
X26590D01*
Y28950D01*
X26630D01*
Y28970D01*
X26670D01*
Y28990D01*
X26710D01*
Y29010D01*
X26750D01*
Y29030D01*
X26770D01*
Y29050D01*
X26810D01*
Y29070D01*
X26850D01*
Y29090D01*
X26870D01*
Y29110D01*
X26910D01*
Y29130D01*
X26930D01*
Y29150D01*
X26950D01*
Y29170D01*
X26990D01*
Y29210D01*
X27010D01*
Y29230D01*
X27070D01*
Y29210D01*
X27090D01*
Y29050D01*
X27070D01*
Y28890D01*
X27050D01*
Y28750D01*
X27030D01*
Y28650D01*
X27010D01*
Y28530D01*
X26990D01*
Y28410D01*
X26970D01*
Y28330D01*
X26950D01*
Y28230D01*
X26930D01*
Y28110D01*
X26910D01*
Y27990D01*
X26890D01*
Y27910D01*
X26870D01*
Y27830D01*
X26850D01*
Y27750D01*
X26830D01*
Y27690D01*
X26810D01*
Y27650D01*
X26790D01*
Y27610D01*
X26770D01*
Y27570D01*
X26750D01*
Y27530D01*
X26730D01*
Y27490D01*
X26710D01*
Y27450D01*
X26690D01*
Y27410D01*
X26670D01*
Y27370D01*
X26650D01*
Y27330D01*
X26630D01*
Y27290D01*
X26610D01*
Y27250D01*
X26590D01*
Y27210D01*
X26570D01*
Y27170D01*
X26550D01*
Y27150D01*
X26530D01*
Y27090D01*
X26510D01*
Y27050D01*
X26490D01*
Y27010D01*
X26470D01*
Y26970D01*
X26450D01*
Y26910D01*
X26430D01*
Y26870D01*
X26410D01*
Y26810D01*
X26390D01*
Y26750D01*
X26370D01*
Y26710D01*
X26350D01*
Y26650D01*
X26330D01*
Y26610D01*
X26310D01*
Y26550D01*
X26290D01*
Y26490D01*
X26270D01*
Y26450D01*
X26250D01*
Y26410D01*
X26230D01*
Y26370D01*
X26210D01*
Y26330D01*
X26190D01*
Y26290D01*
X26170D01*
Y26250D01*
X26150D01*
Y26210D01*
X26130D01*
Y26190D01*
X26110D01*
Y26150D01*
X26090D01*
Y26110D01*
X26070D01*
Y26070D01*
X26050D01*
Y26030D01*
X26030D01*
Y25990D01*
X26010D01*
Y25950D01*
X25990D01*
Y25910D01*
X25970D01*
Y25890D01*
X25950D01*
Y25850D01*
X25930D01*
Y25810D01*
X25910D01*
Y25790D01*
X25890D01*
Y25750D01*
X25870D01*
Y25710D01*
X25850D01*
Y25690D01*
X25830D01*
Y25650D01*
X25810D01*
Y25630D01*
X25790D01*
Y25590D01*
X25770D01*
Y25570D01*
X25750D01*
Y25550D01*
X25730D01*
Y25530D01*
X25710D01*
Y25510D01*
X25690D01*
Y25470D01*
X25670D01*
Y25450D01*
X25650D01*
Y25430D01*
X25630D01*
Y25410D01*
X25610D01*
Y25390D01*
X25590D01*
Y25370D01*
X25570D01*
Y25350D01*
X25550D01*
Y25330D01*
X25530D01*
Y25310D01*
X25510D01*
Y25290D01*
X25490D01*
Y25270D01*
X25450D01*
Y25250D01*
X25430D01*
Y25230D01*
X25390D01*
Y25210D01*
X25370D01*
Y25190D01*
X25330D01*
Y25170D01*
X25310D01*
Y25150D01*
X25290D01*
Y25130D01*
X25250D01*
Y25110D01*
X25230D01*
Y25090D01*
X25190D01*
Y25070D01*
X25170D01*
Y25050D01*
X25130D01*
Y25030D01*
X25090D01*
Y25010D01*
X25070D01*
Y24990D01*
X25030D01*
Y24970D01*
X25010D01*
Y24950D01*
X24970D01*
Y24930D01*
X24950D01*
Y24910D01*
X24910D01*
Y24890D01*
X24870D01*
Y24870D01*
X24830D01*
Y24850D01*
X24790D01*
Y24830D01*
X24750D01*
Y24810D01*
X24710D01*
Y24790D01*
X24670D01*
Y24770D01*
X24610D01*
Y24750D01*
X24550D01*
Y24730D01*
X24490D01*
Y24710D01*
X24410D01*
Y24690D01*
X24330D01*
Y24670D01*
X24230D01*
Y24650D01*
X24130D01*
Y24630D01*
X24010D01*
Y24610D01*
X23810D01*
Y24590D01*
X23650D01*
Y24570D01*
X23450D01*
Y24550D01*
X23310D01*
Y24530D01*
X23110D01*
Y24510D01*
X22890D01*
Y24490D01*
X22750D01*
Y24450D01*
X22770D01*
Y24430D01*
X22790D01*
Y24410D01*
X22810D01*
Y24390D01*
X22830D01*
Y24370D01*
X22850D01*
Y24350D01*
X22870D01*
Y24330D01*
X22890D01*
Y24310D01*
X22910D01*
Y24290D01*
X22930D01*
Y24270D01*
X22950D01*
Y24250D01*
X22990D01*
Y24230D01*
X23010D01*
Y24210D01*
X23030D01*
Y24190D01*
X23050D01*
Y24170D01*
X23070D01*
Y24150D01*
X23110D01*
Y24130D01*
X23130D01*
Y24110D01*
X23150D01*
Y24090D01*
X23190D01*
Y24070D01*
X23210D01*
Y24050D01*
X23230D01*
Y24030D01*
X23250D01*
Y24010D01*
X23270D01*
Y23990D01*
X23290D01*
Y23970D01*
X23310D01*
Y23950D01*
X23350D01*
Y23930D01*
X23370D01*
Y23910D01*
X23390D01*
Y23890D01*
X23410D01*
Y23870D01*
X23430D01*
Y23850D01*
X23450D01*
Y23830D01*
X23470D01*
Y23810D01*
X23510D01*
Y23790D01*
X23530D01*
Y23770D01*
X23550D01*
Y23750D01*
X23570D01*
Y23730D01*
X23590D01*
Y23710D01*
X23610D01*
Y23690D01*
X23650D01*
Y23670D01*
X23670D01*
Y23650D01*
X23690D01*
Y23630D01*
X23710D01*
Y23610D01*
X23730D01*
Y23590D01*
X23750D01*
Y23570D01*
X23770D01*
Y23550D01*
X23790D01*
Y23530D01*
X23810D01*
Y23510D01*
X23830D01*
Y23490D01*
X23850D01*
Y23470D01*
X23870D01*
Y23450D01*
X23910D01*
Y23430D01*
X23930D01*
Y23410D01*
X23950D01*
Y23390D01*
X23970D01*
Y23370D01*
X23990D01*
Y23350D01*
X24010D01*
Y23330D01*
X24030D01*
Y23310D01*
X24050D01*
Y23290D01*
X24090D01*
Y23270D01*
X24110D01*
Y23250D01*
X24130D01*
Y23230D01*
X24170D01*
Y23210D01*
X24190D01*
Y23190D01*
X24210D01*
Y23170D01*
X24230D01*
Y23150D01*
X24250D01*
Y23130D01*
X24290D01*
Y23110D01*
X24310D01*
Y23090D01*
X24330D01*
Y23070D01*
X24350D01*
Y23030D01*
X24370D01*
Y23010D01*
X24390D01*
Y22990D01*
X24410D01*
Y22970D01*
X24430D01*
Y22950D01*
X24450D01*
Y22930D01*
X24490D01*
Y22890D01*
X24530D01*
Y22870D01*
X24550D01*
Y22850D01*
X24570D01*
Y22830D01*
X24590D01*
Y22810D01*
X24610D01*
Y22790D01*
X24630D01*
Y22750D01*
X24670D01*
Y22710D01*
X24710D01*
Y22670D01*
X24750D01*
Y22630D01*
X24770D01*
Y22610D01*
X24790D01*
Y22570D01*
X24770D01*
Y22550D01*
X24750D01*
Y22530D01*
X24670D01*
Y22550D01*
X24590D01*
Y22570D01*
X24490D01*
Y22590D01*
X24410D01*
Y22610D01*
X24330D01*
Y22630D01*
X24190D01*
Y22650D01*
X24130D01*
Y22670D01*
X24070D01*
Y22690D01*
X24010D01*
Y22710D01*
X23910D01*
Y22730D01*
X23850D01*
Y22750D01*
X23770D01*
Y22770D01*
X23710D01*
Y22790D01*
X23650D01*
Y22810D01*
X23610D01*
Y22830D01*
X23550D01*
Y22850D01*
X23490D01*
Y22870D01*
X23430D01*
Y22890D01*
X23390D01*
Y22910D01*
X23330D01*
Y22930D01*
X23270D01*
Y22950D01*
X23210D01*
Y22970D01*
X23170D01*
Y22990D01*
X23110D01*
Y23010D01*
X23070D01*
Y23030D01*
X23030D01*
Y23050D01*
X22970D01*
Y23070D01*
X22930D01*
Y23090D01*
X22870D01*
Y23110D01*
X22810D01*
Y23130D01*
X22750D01*
Y23150D01*
X22710D01*
Y23170D01*
X22650D01*
Y23190D01*
X22610D01*
Y23210D01*
X22550D01*
Y23230D01*
X22490D01*
Y23250D01*
X22430D01*
Y23270D01*
X22390D01*
Y23290D01*
X22330D01*
Y23310D01*
X22290D01*
Y23330D01*
X22230D01*
Y23350D01*
X22190D01*
Y23370D01*
X22150D01*
Y23390D01*
X22090D01*
Y23410D01*
X22050D01*
Y23430D01*
X21990D01*
Y23450D01*
X21950D01*
Y23470D01*
X21890D01*
Y23490D01*
X21830D01*
Y23510D01*
X21790D01*
Y23530D01*
X21730D01*
Y23550D01*
X21670D01*
Y23570D01*
X21630D01*
Y23590D01*
X21590D01*
Y23610D01*
X21570D01*
Y23590D01*
X21550D01*
Y23510D01*
X21530D01*
Y23410D01*
X21510D01*
Y23290D01*
X21490D01*
Y22930D01*
X21510D01*
Y22790D01*
X21530D01*
Y22570D01*
X21550D01*
Y22470D01*
X21570D01*
Y22410D01*
X21590D01*
Y22250D01*
X21610D01*
Y22170D01*
X21630D01*
Y22090D01*
X21650D01*
Y21990D01*
X21670D01*
Y21850D01*
X21690D01*
Y21690D01*
X21710D01*
Y21550D01*
X21730D01*
Y21450D01*
X21750D01*
Y21170D01*
X21730D01*
Y21050D01*
X21710D01*
Y20950D01*
X21690D01*
Y20910D01*
X21670D01*
Y20870D01*
X21650D01*
Y20850D01*
X21630D01*
Y20830D01*
X21610D01*
Y20810D01*
X21590D01*
Y20790D01*
X21570D01*
Y20770D01*
X21550D01*
Y20750D01*
X21530D01*
Y20730D01*
X21490D01*
Y20710D01*
X21470D01*
Y20690D01*
X21450D01*
Y20670D01*
X21430D01*
Y20650D01*
X21390D01*
Y20630D01*
X21370D01*
Y20610D01*
X21330D01*
Y20590D01*
X21310D01*
Y20570D01*
X21270D01*
Y20550D01*
X21230D01*
Y20530D01*
X21210D01*
Y20510D01*
X21170D01*
Y20490D01*
X21130D01*
Y20470D01*
X21090D01*
Y20450D01*
X21050D01*
Y20430D01*
X21010D01*
Y20410D01*
X20990D01*
Y20390D01*
X20970D01*
Y20370D01*
X20930D01*
Y20350D01*
X20910D01*
Y20330D01*
X20890D01*
Y20310D01*
X20870D01*
Y20290D01*
X20830D01*
Y20270D01*
X20810D01*
Y20250D01*
X20790D01*
Y20210D01*
X20770D01*
Y20190D01*
X20750D01*
Y20170D01*
X20730D01*
Y20150D01*
X20710D01*
Y20130D01*
X20690D01*
Y20110D01*
X20670D01*
Y20090D01*
X20650D01*
Y20070D01*
X20630D01*
Y20050D01*
X20610D01*
Y20030D01*
X20590D01*
Y20010D01*
X20570D01*
Y19990D01*
X20550D01*
Y19950D01*
X20510D01*
Y19910D01*
X20470D01*
Y19870D01*
X20450D01*
Y19850D01*
X20430D01*
Y19830D01*
X20410D01*
Y19810D01*
X20390D01*
Y19790D01*
X20370D01*
Y19770D01*
X20350D01*
Y19750D01*
X20330D01*
Y19730D01*
X20310D01*
Y19710D01*
X20290D01*
Y19690D01*
X20270D01*
Y19670D01*
X20250D01*
Y19650D01*
X20210D01*
Y19630D01*
X20150D01*
Y19650D01*
X20130D01*
Y19670D01*
X20110D01*
Y19690D01*
X20090D01*
Y19790D01*
X20110D01*
Y19910D01*
X20090D01*
Y19890D01*
X20070D01*
Y19870D01*
X20050D01*
Y19850D01*
X20030D01*
Y19830D01*
X19950D01*
Y19870D01*
X19930D01*
Y19930D01*
X19950D01*
Y19990D01*
X19970D01*
Y20030D01*
X19930D01*
Y20010D01*
X19910D01*
Y19990D01*
X19890D01*
Y19970D01*
X19770D01*
Y19990D01*
X19750D01*
Y20010D01*
X19730D01*
Y20110D01*
X19750D01*
Y20170D01*
X19770D01*
Y20210D01*
X19750D01*
Y20190D01*
X19630D01*
Y20210D01*
X19610D01*
Y20370D01*
X19630D01*
Y20430D01*
X19650D01*
Y20470D01*
X19670D01*
Y20490D01*
X19690D01*
Y20510D01*
X19710D01*
Y20530D01*
X19730D01*
Y20550D01*
X19750D01*
Y20570D01*
X19770D01*
Y20610D01*
X19790D01*
Y20630D01*
X19810D01*
Y20650D01*
X19830D01*
Y20690D01*
X19850D01*
Y20710D01*
X19870D01*
Y20730D01*
X19910D01*
Y20770D01*
X19930D01*
Y20790D01*
X19950D01*
Y20810D01*
X19970D01*
Y20850D01*
X19990D01*
Y20870D01*
X20010D01*
Y20890D01*
X20030D01*
Y20910D01*
X20070D01*
Y20930D01*
X20090D01*
Y20950D01*
X20110D01*
Y20970D01*
X20130D01*
Y20990D01*
X20150D01*
Y21010D01*
X20170D01*
Y21030D01*
X20190D01*
Y21050D01*
X20210D01*
Y21070D01*
X20230D01*
Y21090D01*
X20250D01*
Y21110D01*
X20290D01*
Y21130D01*
X20310D01*
Y21150D01*
X20350D01*
Y21170D01*
X20390D01*
Y21550D01*
X20370D01*
Y21650D01*
X20350D01*
Y21730D01*
X20330D01*
Y21870D01*
X20310D01*
Y21990D01*
X20290D01*
Y22110D01*
X20270D01*
Y22130D01*
X20250D01*
Y22150D01*
X20230D01*
Y22190D01*
X20210D01*
Y22210D01*
X20190D01*
Y22250D01*
X20170D01*
Y22270D01*
X20150D01*
Y22330D01*
X20130D01*
Y22350D01*
X20110D01*
Y22410D01*
X20090D01*
Y22450D01*
X20070D01*
Y22630D01*
X20090D01*
Y22750D01*
X20110D01*
Y22830D01*
X20130D01*
Y22930D01*
X20110D01*
Y23030D01*
X20090D01*
Y23390D01*
X20110D01*
Y23510D01*
X20130D01*
Y23650D01*
X20150D01*
Y23730D01*
X20170D01*
Y23770D01*
X20190D01*
Y23810D01*
X20210D01*
Y23870D01*
X20230D01*
Y23930D01*
X20250D01*
Y23990D01*
X20270D01*
Y24050D01*
X20290D01*
Y24090D01*
X20190D01*
Y24070D01*
X20070D01*
Y24050D01*
X19950D01*
Y24030D01*
X19830D01*
Y24010D01*
X19730D01*
Y23990D01*
X19650D01*
Y23970D01*
X19530D01*
Y23950D01*
X19430D01*
Y23930D01*
X19310D01*
Y23910D01*
X19210D01*
Y23890D01*
X19110D01*
Y23870D01*
X19030D01*
Y23850D01*
X18930D01*
Y23830D01*
X18810D01*
Y23810D01*
X18690D01*
Y23790D01*
X18550D01*
Y23770D01*
X18410D01*
Y23750D01*
X18270D01*
Y23730D01*
X18130D01*
Y23710D01*
X17990D01*
Y23690D01*
X17710D01*
Y23670D01*
X17670D01*
Y23650D01*
X17690D01*
Y23610D01*
X17670D01*
Y23470D01*
X17650D01*
Y23390D01*
X17630D01*
Y23250D01*
X17610D01*
Y23190D01*
X17590D01*
Y23090D01*
X17570D01*
Y23050D01*
X17550D01*
Y23010D01*
X17530D01*
Y22970D01*
X17510D01*
Y22930D01*
X17490D01*
Y22890D01*
X17470D01*
Y22850D01*
X17450D01*
Y22810D01*
X17430D01*
Y22770D01*
X17410D01*
Y22730D01*
X17390D01*
Y22690D01*
X17370D01*
Y22650D01*
X17350D01*
Y22610D01*
X17330D01*
Y22570D01*
X17310D01*
Y22530D01*
X17290D01*
Y22490D01*
X17270D01*
Y22450D01*
X17290D01*
Y22410D01*
X17310D01*
Y22370D01*
X17330D01*
Y22350D01*
X17350D01*
Y22310D01*
X17370D01*
Y22290D01*
X17390D01*
Y22250D01*
X17410D01*
Y22230D01*
X17430D01*
Y22190D01*
X17450D01*
Y22170D01*
X17470D01*
Y22110D01*
X17490D01*
Y22050D01*
X17510D01*
Y21970D01*
X17530D01*
Y21890D01*
X17550D01*
Y21750D01*
X17570D01*
Y21670D01*
X17590D01*
Y21350D01*
X17570D01*
Y21250D01*
X17550D01*
Y21150D01*
X17530D01*
Y21070D01*
X17510D01*
Y21030D01*
X17490D01*
Y21010D01*
X17470D01*
Y20990D01*
X17450D01*
Y20970D01*
X17430D01*
Y20950D01*
X17390D01*
Y20930D01*
X17370D01*
Y20910D01*
X17330D01*
Y20890D01*
X17290D01*
Y20870D01*
X17250D01*
Y20850D01*
X17210D01*
Y20830D01*
X17170D01*
Y20810D01*
X17130D01*
Y20790D01*
X17110D01*
Y20770D01*
X17070D01*
Y20750D01*
X17030D01*
Y20730D01*
X16990D01*
Y20710D01*
X16950D01*
Y20690D01*
X16930D01*
Y20670D01*
X16890D01*
Y20650D01*
X16850D01*
Y20630D01*
X16830D01*
Y20610D01*
X16790D01*
Y20590D01*
X16750D01*
Y20570D01*
X16710D01*
Y20550D01*
X16670D01*
Y20530D01*
X16630D01*
Y20510D01*
X16590D01*
Y20490D01*
X16550D01*
Y20470D01*
X16510D01*
Y20450D01*
X16470D01*
Y20430D01*
X16450D01*
Y20410D01*
X16430D01*
Y20390D01*
X16410D01*
Y20350D01*
X16390D01*
Y20330D01*
X16370D01*
Y20290D01*
X16350D01*
Y20250D01*
X16330D01*
Y20210D01*
X16310D01*
Y20190D01*
X16290D01*
Y20150D01*
X16270D01*
Y20130D01*
X16250D01*
Y20110D01*
X16230D01*
Y20090D01*
X16210D01*
Y20070D01*
X16190D01*
Y20050D01*
X16170D01*
Y20030D01*
X16130D01*
Y20010D01*
X16090D01*
Y19990D01*
X16030D01*
Y19970D01*
X15950D01*
Y19990D01*
X15890D01*
Y20010D01*
X15870D01*
Y20050D01*
X15850D01*
Y20110D01*
X15870D01*
Y20210D01*
X15890D01*
Y20230D01*
X15830D01*
Y20210D01*
X15730D01*
Y20230D01*
X15710D01*
Y20250D01*
X15690D01*
Y20350D01*
X15710D01*
Y20430D01*
X15730D01*
Y20470D01*
X15670D01*
Y20450D01*
X15550D01*
Y20470D01*
X15530D01*
Y20490D01*
X15510D01*
Y20570D01*
X15530D01*
Y20630D01*
X15550D01*
Y20670D01*
X15570D01*
Y20690D01*
X15470D01*
Y20710D01*
X15430D01*
Y20730D01*
X15410D01*
Y20750D01*
X15390D01*
Y20850D01*
X15410D01*
Y20890D01*
X15430D01*
Y20930D01*
X15450D01*
Y20950D01*
X15470D01*
Y20970D01*
X15490D01*
Y20990D01*
X15510D01*
Y21010D01*
X15530D01*
Y21030D01*
X15570D01*
Y21050D01*
X15610D01*
Y21070D01*
X15670D01*
Y21090D01*
X15710D01*
Y21110D01*
X15790D01*
Y21130D01*
X15850D01*
Y21150D01*
X15890D01*
Y21170D01*
X15930D01*
Y21190D01*
X15950D01*
Y21210D01*
X15990D01*
Y21230D01*
X16030D01*
Y21250D01*
X16050D01*
Y21270D01*
X16090D01*
Y21290D01*
X16110D01*
Y21310D01*
X16150D01*
Y21330D01*
X16190D01*
Y21350D01*
X16210D01*
Y21370D01*
X16250D01*
Y21390D01*
X16270D01*
Y21410D01*
X16290D01*
Y21450D01*
X16310D01*
Y21690D01*
X16290D01*
Y21790D01*
X16270D01*
Y21930D01*
X16250D01*
Y21950D01*
X16230D01*
Y21970D01*
X16210D01*
Y21990D01*
X16190D01*
Y22010D01*
X16170D01*
Y22030D01*
X16150D01*
Y22050D01*
X16130D01*
Y22090D01*
X16110D01*
Y22110D01*
X16090D01*
Y22230D01*
X16110D01*
Y22290D01*
X16130D01*
Y22330D01*
X16150D01*
Y22350D01*
X16170D01*
Y22370D01*
X16150D01*
Y22390D01*
X16130D01*
Y22410D01*
X16110D01*
Y22430D01*
X16090D01*
Y22450D01*
X16070D01*
Y22490D01*
X16050D01*
Y22510D01*
X16030D01*
Y22530D01*
X16010D01*
Y22550D01*
X15990D01*
Y22590D01*
X15970D01*
Y22630D01*
X15950D01*
Y22690D01*
X15930D01*
Y22730D01*
X15910D01*
Y22790D01*
X15890D01*
Y22970D01*
X15870D01*
Y23190D01*
X15890D01*
Y23370D01*
X15910D01*
Y23430D01*
X15930D01*
Y23490D01*
X15950D01*
Y23550D01*
X15970D01*
Y23610D01*
X15990D01*
Y23650D01*
X15530D01*
Y23670D01*
X15370D01*
Y23690D01*
X15050D01*
Y23710D01*
X14890D01*
Y23730D01*
X14710D01*
Y23750D01*
X14570D01*
Y23770D01*
X14430D01*
Y23790D01*
X14310D01*
Y23810D01*
X14110D01*
Y23830D01*
X13950D01*
Y23850D01*
X13870D01*
Y23870D01*
X13770D01*
Y23890D01*
X13690D01*
Y23910D01*
X13530D01*
Y23930D01*
X13430D01*
Y23950D01*
X13350D01*
Y23970D01*
X13290D01*
Y23990D01*
X13250D01*
Y24010D01*
X13210D01*
Y24030D01*
X13150D01*
Y24050D01*
X13110D01*
Y24070D01*
X13070D01*
Y24090D01*
X13010D01*
Y24110D01*
X12970D01*
Y24130D01*
X12950D01*
Y24150D01*
X12910D01*
Y24170D01*
X12890D01*
Y24190D01*
X12850D01*
Y24210D01*
X12830D01*
Y24230D01*
X12810D01*
Y24250D01*
X12770D01*
Y24270D01*
X12750D01*
Y24290D01*
X12730D01*
Y24310D01*
X12710D01*
Y24330D01*
X12690D01*
Y24350D01*
X12650D01*
Y24390D01*
X12630D01*
Y24410D01*
X12610D01*
Y24430D01*
X12590D01*
Y24450D01*
X12570D01*
Y24490D01*
X12550D01*
Y24510D01*
X12530D01*
Y24530D01*
X12510D01*
Y24550D01*
X12490D01*
Y24570D01*
X12470D01*
Y24590D01*
X12450D01*
Y24630D01*
X12430D01*
Y24650D01*
X12410D01*
Y24690D01*
X12390D01*
Y24710D01*
X12370D01*
Y24750D01*
X12350D01*
Y24790D01*
X12330D01*
Y24850D01*
X12310D01*
Y24930D01*
X12290D01*
Y25050D01*
X12270D01*
Y25230D01*
X12250D01*
Y25310D01*
X12230D01*
Y25290D01*
X12210D01*
Y25030D01*
X12150D01*
Y25050D01*
X12130D01*
Y25150D01*
X12110D01*
Y25270D01*
X12130D01*
Y25370D01*
X12150D01*
Y25470D01*
X12170D01*
Y25530D01*
X12190D01*
Y25590D01*
X12210D01*
Y25610D01*
X12230D01*
Y25650D01*
X12250D01*
Y25690D01*
X12270D01*
Y25730D01*
X12290D01*
Y25750D01*
X12310D01*
Y25790D01*
X12330D01*
Y25810D01*
X12350D01*
Y25850D01*
X12370D01*
Y25890D01*
X12390D01*
Y25910D01*
X12410D01*
Y25950D01*
X12430D01*
Y25970D01*
X12450D01*
Y26010D01*
X12470D01*
Y26030D01*
X12490D01*
Y26070D01*
X12510D01*
Y26090D01*
X12530D01*
Y26130D01*
X12550D01*
Y26170D01*
X12570D01*
Y26210D01*
X12590D01*
Y26250D01*
X12610D01*
Y26290D01*
X12630D01*
Y26330D01*
X12650D01*
Y26370D01*
X12670D01*
Y26410D01*
X12690D01*
Y26450D01*
X12710D01*
Y26490D01*
X12730D01*
Y26510D01*
X12750D01*
Y26530D01*
X12770D01*
Y26550D01*
X12790D01*
Y26570D01*
X12810D01*
Y26590D01*
X12830D01*
Y26610D01*
X12850D01*
Y26630D01*
X12870D01*
Y26650D01*
X12890D01*
Y26670D01*
X12910D01*
Y26710D01*
X12930D01*
Y26730D01*
X12950D01*
Y26770D01*
X12970D01*
Y26790D01*
X12990D01*
Y26810D01*
X13010D01*
Y26830D01*
X13030D01*
Y26850D01*
X13050D01*
Y26870D01*
X13070D01*
Y26890D01*
X13090D01*
Y26910D01*
X13130D01*
Y26930D01*
X13170D01*
Y26950D01*
X13190D01*
Y26970D01*
X13210D01*
Y26990D01*
X13250D01*
Y27010D01*
X13270D01*
Y27030D01*
X13290D01*
Y27050D01*
X13310D01*
Y27070D01*
X13330D01*
Y27090D01*
X13350D01*
Y27110D01*
X13370D01*
Y27130D01*
X13390D01*
Y27450D01*
X13410D01*
Y27530D01*
X13430D01*
Y27610D01*
X13450D01*
Y27650D01*
X13230D01*
Y27630D01*
X12550D01*
Y27610D01*
X12410D01*
Y27590D01*
X12330D01*
Y27570D01*
X12210D01*
Y27550D01*
X12090D01*
Y27530D01*
X11950D01*
Y27510D01*
X11770D01*
Y27490D01*
X11630D01*
Y27470D01*
X11510D01*
Y27450D01*
X11390D01*
Y27430D01*
X11210D01*
Y27410D01*
X11090D01*
Y27390D01*
X11010D01*
Y27370D01*
X10890D01*
Y27350D01*
X10790D01*
Y27330D01*
X10710D01*
Y27310D01*
X10650D01*
Y27290D01*
X10610D01*
Y27270D01*
X10550D01*
Y27250D01*
X10510D01*
Y27230D01*
X10550D01*
Y27210D01*
X10570D01*
Y27190D01*
X10590D01*
Y27170D01*
X10610D01*
Y27150D01*
X10630D01*
Y27130D01*
X10650D01*
Y27110D01*
X10690D01*
Y27090D01*
X10710D01*
Y27070D01*
X10730D01*
Y27050D01*
X10770D01*
Y27030D01*
X10790D01*
Y27010D01*
X10810D01*
Y26990D01*
X10850D01*
Y26970D01*
X10870D01*
Y26950D01*
X10890D01*
Y26930D01*
X10930D01*
Y26910D01*
X10950D01*
Y26890D01*
X10970D01*
Y26870D01*
X11010D01*
Y26850D01*
X11030D01*
Y26830D01*
X11050D01*
Y26810D01*
X11070D01*
Y26790D01*
X11110D01*
Y26770D01*
X11150D01*
Y26750D01*
X11190D01*
Y26730D01*
X11210D01*
Y26710D01*
X11250D01*
Y26690D01*
X11290D01*
Y26670D01*
X11310D01*
Y26650D01*
X11350D01*
Y26630D01*
X11390D01*
Y26610D01*
X11410D01*
Y26590D01*
X11450D01*
Y26570D01*
X11490D01*
Y26550D01*
X11530D01*
Y26530D01*
X11570D01*
Y26510D01*
X11590D01*
Y26490D01*
X11630D01*
Y26470D01*
X11670D01*
Y26450D01*
X11710D01*
Y26430D01*
X11750D01*
Y26410D01*
X11790D01*
Y26390D01*
X11830D01*
Y26370D01*
X11870D01*
Y26350D01*
X11910D01*
Y26330D01*
X11970D01*
Y26310D01*
X12010D01*
Y26290D01*
X12050D01*
Y26270D01*
X12090D01*
Y26250D01*
X12150D01*
Y26230D01*
X12190D01*
Y26210D01*
X12250D01*
Y26190D01*
X12270D01*
Y26170D01*
X12290D01*
Y26130D01*
X12270D01*
Y26110D01*
X12230D01*
Y26130D01*
X12150D01*
Y26150D01*
X12110D01*
Y26170D01*
X12050D01*
Y26190D01*
X12010D01*
Y26210D01*
X11950D01*
Y26230D01*
X11910D01*
Y26250D01*
X11870D01*
Y26270D01*
X11830D01*
Y26290D01*
X11770D01*
Y26310D01*
X11730D01*
Y26330D01*
X11690D01*
Y26350D01*
X11650D01*
Y26370D01*
X11610D01*
Y26390D01*
X11570D01*
Y26410D01*
X11550D01*
Y26430D01*
X11510D01*
Y26450D01*
X11470D01*
Y26470D01*
X11430D01*
Y26490D01*
X11390D01*
Y26510D01*
X11370D01*
Y26530D01*
X11330D01*
Y26550D01*
X11290D01*
Y26570D01*
X11270D01*
Y26590D01*
X11230D01*
Y26610D01*
X11190D01*
Y26630D01*
X11170D01*
Y26650D01*
X11130D01*
Y26670D01*
X11090D01*
Y26690D01*
X11050D01*
Y26710D01*
X11030D01*
Y26730D01*
X11010D01*
Y26750D01*
X10970D01*
Y26770D01*
X10950D01*
Y26790D01*
X10930D01*
Y26810D01*
X10890D01*
Y26830D01*
X10870D01*
Y26850D01*
X10850D01*
Y26870D01*
X10810D01*
Y26890D01*
X10790D01*
Y26910D01*
X10770D01*
Y26930D01*
X10750D01*
Y26950D01*
X10710D01*
Y26970D01*
X10690D01*
Y26990D01*
X10650D01*
Y27010D01*
X10630D01*
Y27030D01*
X10610D01*
Y27050D01*
X10590D01*
Y27070D01*
X10550D01*
Y27090D01*
X10530D01*
Y27110D01*
X10510D01*
Y27130D01*
X10490D01*
Y27150D01*
X10470D01*
Y27170D01*
X10430D01*
Y27190D01*
X10410D01*
Y27210D01*
X10390D01*
Y27230D01*
X10370D01*
Y27290D01*
X10390D01*
Y27310D01*
X10430D01*
Y27330D01*
X10470D01*
Y27350D01*
X10530D01*
Y27370D01*
X10590D01*
Y27390D01*
X10630D01*
Y27410D01*
X10690D01*
Y27430D01*
X10750D01*
Y27450D01*
X10850D01*
Y27470D01*
X10950D01*
Y27490D01*
X11050D01*
Y27510D01*
X11130D01*
Y27530D01*
X11290D01*
Y27550D01*
X11430D01*
Y27570D01*
X11550D01*
Y27590D01*
X11670D01*
Y27610D01*
X11830D01*
Y27630D01*
X11970D01*
Y27650D01*
X12110D01*
Y27670D01*
X12210D01*
Y27690D01*
X12330D01*
Y27710D01*
X12410D01*
Y27730D01*
X12570D01*
Y27750D01*
X13270D01*
Y27770D01*
X13510D01*
Y27790D01*
X13530D01*
Y27810D01*
X13550D01*
Y27850D01*
X13570D01*
Y27890D01*
X13590D01*
Y27910D01*
X13610D01*
Y27950D01*
X13630D01*
Y27990D01*
X13650D01*
Y28010D01*
X13670D01*
Y28050D01*
X13690D01*
Y28090D01*
X13710D01*
Y28130D01*
X13730D01*
Y28170D01*
X13750D01*
Y28210D01*
X13770D01*
Y28250D01*
X13790D01*
Y28270D01*
X13810D01*
Y28310D01*
X13830D01*
Y28350D01*
X13850D01*
Y28370D01*
X13870D01*
Y28410D01*
X13890D01*
Y28430D01*
X13910D01*
Y28470D01*
X13930D01*
Y28510D01*
X13950D01*
Y28550D01*
X13970D01*
Y28590D01*
X13990D01*
Y28630D01*
X14010D01*
Y28670D01*
X14030D01*
Y28710D01*
X14050D01*
Y28730D01*
X14070D01*
Y28770D01*
X14090D01*
Y28810D01*
X14110D01*
Y28830D01*
X14130D01*
Y28850D01*
X14150D01*
Y28870D01*
X14170D01*
Y28910D01*
X14190D01*
Y28930D01*
X14210D01*
Y28950D01*
X14230D01*
Y28970D01*
X14250D01*
Y28990D01*
X14270D01*
Y29010D01*
X14290D01*
Y29030D01*
X14310D01*
Y29050D01*
X14330D01*
Y29070D01*
X14350D01*
Y29090D01*
X14370D01*
Y29130D01*
X14390D01*
Y29150D01*
X14410D01*
Y29170D01*
X14430D01*
Y29190D01*
X14450D01*
Y29210D01*
X14470D01*
Y29230D01*
X14490D01*
Y29250D01*
X14510D01*
Y29270D01*
X14530D01*
Y29290D01*
X14550D01*
Y29310D01*
X14570D01*
Y29330D01*
X14590D01*
Y29350D01*
X14610D01*
Y29370D01*
X14630D01*
Y29390D01*
X14650D01*
Y29410D01*
X14670D01*
Y29430D01*
X14710D01*
Y29450D01*
X14730D01*
Y29470D01*
X14750D01*
Y29490D01*
X14790D01*
Y29510D01*
X14810D01*
Y29530D01*
X14830D01*
Y29550D01*
X14870D01*
Y29570D01*
X14890D01*
Y29590D01*
X14930D01*
Y29610D01*
X14950D01*
Y29630D01*
X14990D01*
Y29650D01*
X15030D01*
Y29670D01*
X15070D01*
Y29690D01*
X15110D01*
Y29710D01*
X15170D01*
Y29730D01*
X15210D01*
Y29750D01*
X15250D01*
Y29770D01*
X15290D01*
Y29790D01*
X15330D01*
Y29810D01*
X15370D01*
Y29830D01*
X15430D01*
Y29850D01*
X15510D01*
Y29870D01*
X15610D01*
Y29890D01*
X15690D01*
Y29910D01*
X15810D01*
Y29930D01*
X15970D01*
Y29950D01*
X16230D01*
Y29970D01*
X16430D01*
Y29990D01*
X16610D01*
Y30010D01*
X16750D01*
Y30030D01*
X17230D01*
Y30050D01*
X17390D01*
Y30030D01*
X17750D01*
Y30070D01*
X17770D01*
Y30090D01*
X17790D01*
Y30110D01*
X17810D01*
Y30150D01*
X17830D01*
Y30170D01*
X17850D01*
Y30210D01*
X17870D01*
Y30250D01*
X17890D01*
Y30270D01*
X17910D01*
Y30290D01*
X17970D01*
Y30310D01*
X18030D01*
Y30330D01*
X18090D01*
Y30350D01*
X18130D01*
Y30330D01*
D02*
G37*
%LPC*%
G36*
X18450Y30030D02*
X18430D01*
Y30010D01*
X18450D01*
Y30030D01*
D02*
G37*
G36*
X18010Y30190D02*
X17990D01*
Y30170D01*
X17970D01*
Y30150D01*
X17950D01*
Y30110D01*
X17970D01*
Y30090D01*
X18010D01*
Y30070D01*
X18050D01*
Y30050D01*
X18090D01*
Y30030D01*
X18150D01*
Y30010D01*
X18190D01*
Y29990D01*
X18250D01*
Y29970D01*
X18290D01*
Y29950D01*
X18350D01*
Y29930D01*
X18370D01*
Y29950D01*
X18350D01*
Y29970D01*
X18310D01*
Y29990D01*
X18270D01*
Y30010D01*
X18250D01*
Y30030D01*
X18210D01*
Y30050D01*
X18170D01*
Y30070D01*
X18150D01*
Y30090D01*
X18110D01*
Y30110D01*
X18090D01*
Y30130D01*
X18070D01*
Y30150D01*
X18030D01*
Y30170D01*
X18010D01*
Y30190D01*
D02*
G37*
G36*
X18510Y30010D02*
X18470D01*
Y29990D01*
X18510D01*
Y29970D01*
X18530D01*
Y29950D01*
X18570D01*
Y29930D01*
X18610D01*
Y29910D01*
X18650D01*
Y29890D01*
X18670D01*
Y29870D01*
X18690D01*
Y29910D01*
X18670D01*
Y29930D01*
X18650D01*
Y29950D01*
X18590D01*
Y29970D01*
X18550D01*
Y29990D01*
X18530D01*
X18510Y30010D01*
D02*
G37*
G36*
X17930Y30030D02*
X17870D01*
Y30010D01*
X17850D01*
Y29970D01*
X17830D01*
Y29910D01*
X17870D01*
Y29890D01*
X17910D01*
Y29870D01*
X17970D01*
Y29850D01*
X18030D01*
Y29830D01*
X18090D01*
Y29810D01*
X18150D01*
Y29790D01*
X18210D01*
Y29770D01*
X18270D01*
Y29750D01*
X18330D01*
Y29730D01*
X18390D01*
Y29710D01*
X18490D01*
Y29690D01*
X18510D01*
Y29710D01*
X18490D01*
Y29730D01*
X18450D01*
Y29750D01*
X18410D01*
Y29770D01*
X18390D01*
Y29790D01*
X18350D01*
Y29810D01*
X18310D01*
Y29830D01*
X18270D01*
Y29850D01*
X18230D01*
Y29870D01*
X18190D01*
Y29890D01*
X18150D01*
Y29910D01*
X18110D01*
Y29930D01*
X18070D01*
Y29950D01*
X18030D01*
Y29970D01*
X17990D01*
Y29990D01*
X17970D01*
Y30010D01*
X17930D01*
Y30030D01*
D02*
G37*
G36*
X18710Y29730D02*
X18650D01*
Y29710D01*
X18670D01*
Y29630D01*
X18650D01*
Y29610D01*
X18630D01*
Y29590D01*
X18590D01*
Y29570D01*
X18610D01*
Y29550D01*
X18630D01*
Y29510D01*
X18650D01*
Y29530D01*
X18670D01*
Y29570D01*
X18690D01*
Y29590D01*
X18710D01*
Y29610D01*
X18730D01*
Y29650D01*
X18710D01*
Y29690D01*
Y29710D01*
Y29730D01*
D02*
G37*
G36*
X17810Y29850D02*
X17770D01*
Y29730D01*
X17830D01*
Y29710D01*
X17930D01*
Y29690D01*
X18010D01*
Y29670D01*
X18090D01*
Y29650D01*
X18150D01*
Y29630D01*
X18210D01*
Y29610D01*
X18250D01*
Y29590D01*
X18310D01*
Y29570D01*
X18350D01*
Y29550D01*
X18390D01*
Y29530D01*
X18410D01*
Y29510D01*
X18450D01*
Y29490D01*
X18530D01*
Y29530D01*
X18490D01*
Y29550D01*
X18470D01*
Y29570D01*
X18450D01*
Y29590D01*
X18410D01*
Y29610D01*
X18370D01*
Y29630D01*
X18330D01*
Y29650D01*
X18270D01*
Y29670D01*
X18210D01*
Y29690D01*
X18150D01*
Y29710D01*
X18090D01*
Y29730D01*
X18050D01*
Y29750D01*
X17990D01*
Y29770D01*
X17930D01*
Y29790D01*
X17890D01*
Y29810D01*
X17850D01*
Y29830D01*
X17810D01*
Y29850D01*
D02*
G37*
G36*
Y29470D02*
X17770D01*
Y29450D01*
X17810D01*
Y29470D01*
D02*
G37*
G36*
X18610Y29410D02*
X18570D01*
Y29390D01*
X18590D01*
Y29350D01*
X18610D01*
Y29410D01*
D02*
G37*
G36*
X17830Y29630D02*
X17770D01*
Y29590D01*
X17790D01*
Y29570D01*
X17850D01*
Y29550D01*
X17910D01*
Y29530D01*
X17970D01*
Y29510D01*
X18050D01*
Y29490D01*
X18090D01*
Y29470D01*
X18150D01*
Y29450D01*
X18190D01*
Y29430D01*
X18250D01*
Y29410D01*
X18290D01*
Y29390D01*
X18310D01*
Y29370D01*
X18330D01*
Y29350D01*
X18370D01*
Y29330D01*
X18490D01*
Y29370D01*
X18470D01*
Y29390D01*
X18450D01*
Y29410D01*
X18370D01*
Y29430D01*
X18290D01*
Y29450D01*
X18210D01*
Y29470D01*
X18150D01*
Y29490D01*
X18110D01*
Y29510D01*
X18050D01*
Y29530D01*
X18010D01*
Y29550D01*
X17950D01*
Y29570D01*
X17910D01*
Y29590D01*
X17870D01*
Y29610D01*
X17830D01*
Y29630D01*
D02*
G37*
G36*
X19970Y29330D02*
X19870D01*
Y29310D01*
X19910D01*
Y29290D01*
X19930D01*
Y29270D01*
X19970D01*
Y29330D01*
D02*
G37*
G36*
X19370Y29410D02*
X19350D01*
Y29390D01*
X19370D01*
Y29370D01*
X19430D01*
Y29350D01*
X19470D01*
Y29330D01*
X19510D01*
Y29310D01*
X19570D01*
Y29290D01*
X19650D01*
Y29270D01*
X19690D01*
Y29290D01*
X19650D01*
Y29310D01*
X19590D01*
Y29330D01*
X19530D01*
Y29350D01*
X19490D01*
Y29370D01*
X19430D01*
Y29390D01*
X19370D01*
Y29410D01*
D02*
G37*
G36*
X18810Y29510D02*
X18770D01*
Y29470D01*
X18750D01*
Y29450D01*
X18730D01*
Y29370D01*
X18710D01*
Y29350D01*
X18730D01*
Y29330D01*
X18750D01*
Y29310D01*
X18770D01*
Y29250D01*
X18750D01*
Y29230D01*
Y29210D01*
X18770D01*
Y29170D01*
X18830D01*
Y29210D01*
X18850D01*
Y29410D01*
X18830D01*
Y29470D01*
X18810D01*
Y29510D01*
D02*
G37*
G36*
X19890Y29150D02*
X19810D01*
Y29130D01*
X19830D01*
Y29090D01*
X19870D01*
Y29130D01*
X19890D01*
Y29150D01*
D02*
G37*
G36*
X19210Y29330D02*
X19170D01*
Y29250D01*
X19190D01*
Y29230D01*
X19230D01*
Y29210D01*
X19290D01*
Y29190D01*
X19330D01*
Y29170D01*
X19390D01*
Y29150D01*
X19450D01*
Y29130D01*
X19510D01*
Y29110D01*
X19570D01*
Y29090D01*
X19650D01*
Y29070D01*
X19710D01*
Y29090D01*
X19690D01*
Y29110D01*
X19670D01*
Y29130D01*
X19630D01*
Y29150D01*
X19610D01*
Y29170D01*
X19570D01*
Y29190D01*
X19530D01*
Y29210D01*
X19490D01*
Y29230D01*
X19430D01*
Y29250D01*
X19370D01*
Y29270D01*
X19310D01*
Y29290D01*
X19270D01*
Y29310D01*
X19210D01*
Y29330D01*
D02*
G37*
G36*
X18970Y29610D02*
X18910D01*
Y29530D01*
X18930D01*
Y29470D01*
X18950D01*
Y29390D01*
X18970D01*
Y29250D01*
X18950D01*
Y29130D01*
X18930D01*
Y29090D01*
X18910D01*
Y29050D01*
X18970D01*
Y29070D01*
X18990D01*
Y29110D01*
X19010D01*
Y29150D01*
X19030D01*
Y29230D01*
X19050D01*
Y29370D01*
X19070D01*
Y29550D01*
X19030D01*
Y29570D01*
X19010D01*
Y29590D01*
X18970D01*
Y29610D01*
D02*
G37*
G36*
X19190Y29150D02*
X19130D01*
Y29090D01*
X19170D01*
Y29070D01*
X19210D01*
Y29050D01*
X19270D01*
Y29030D01*
X19330D01*
Y29010D01*
X19390D01*
Y28990D01*
X19450D01*
Y28970D01*
X19510D01*
Y28990D01*
X19470D01*
Y29010D01*
X19430D01*
Y29030D01*
X19390D01*
Y29050D01*
X19350D01*
Y29070D01*
X19310D01*
Y29090D01*
X19270D01*
Y29110D01*
X19230D01*
Y29130D01*
X19190D01*
Y29150D01*
D02*
G37*
G36*
X19110Y29010D02*
X19070D01*
Y28970D01*
X19110D01*
Y28950D01*
X19150D01*
Y28930D01*
X19210D01*
Y28910D01*
X19270D01*
Y28890D01*
X19330D01*
Y28870D01*
X19390D01*
Y28890D01*
X19350D01*
Y28910D01*
X19310D01*
Y28930D01*
X19270D01*
Y28950D01*
X19210D01*
Y28970D01*
X19150D01*
Y28990D01*
X19110D01*
Y29010D01*
D02*
G37*
G36*
X19650Y28850D02*
X19630D01*
Y28830D01*
Y28810D01*
X19650D01*
Y28850D01*
D02*
G37*
G36*
X19150D02*
X19090D01*
Y28830D01*
X19110D01*
Y28810D01*
X19130D01*
Y28790D01*
X19150D01*
Y28770D01*
X19210D01*
Y28750D01*
X19270D01*
Y28730D01*
X19350D01*
Y28710D01*
X19430D01*
Y28730D01*
X19390D01*
Y28750D01*
X19350D01*
Y28770D01*
X19310D01*
Y28790D01*
X19250D01*
Y28810D01*
X19190D01*
Y28830D01*
X19150D01*
Y28850D01*
D02*
G37*
G36*
X17410Y29930D02*
X17210D01*
Y29910D01*
X16730D01*
Y29890D01*
X16610D01*
Y29870D01*
X16410D01*
Y29850D01*
X16230D01*
Y29830D01*
X15930D01*
Y29810D01*
X15810D01*
Y29790D01*
X15690D01*
Y29770D01*
X15610D01*
Y29750D01*
X15490D01*
Y29730D01*
X15430D01*
Y29710D01*
X15390D01*
Y29690D01*
X15350D01*
Y29670D01*
X15310D01*
Y29650D01*
X15270D01*
Y29630D01*
X15230D01*
Y29610D01*
X15170D01*
Y29590D01*
X15130D01*
Y29570D01*
X15090D01*
Y29550D01*
X15050D01*
Y29530D01*
X15010D01*
Y29510D01*
X14990D01*
Y29490D01*
X14950D01*
Y29470D01*
X14930D01*
Y29450D01*
X14890D01*
Y29430D01*
X14870D01*
Y29410D01*
X14830D01*
Y29390D01*
X14810D01*
Y29370D01*
X14790D01*
Y29350D01*
X14770D01*
Y29330D01*
X14750D01*
Y29310D01*
X14710D01*
Y29290D01*
X14690D01*
Y29270D01*
X14670D01*
Y29250D01*
X14650D01*
Y29230D01*
X14630D01*
Y29210D01*
X14610D01*
Y29190D01*
X14590D01*
Y29170D01*
X14570D01*
Y29150D01*
X14550D01*
Y29130D01*
X14530D01*
Y29110D01*
X14510D01*
Y29090D01*
X14490D01*
Y29070D01*
X14470D01*
Y29030D01*
X14450D01*
Y29010D01*
X14430D01*
Y28990D01*
X14410D01*
Y28970D01*
X14390D01*
Y28950D01*
X14370D01*
Y28930D01*
X14350D01*
Y28910D01*
X14330D01*
Y28890D01*
X14310D01*
Y28870D01*
X14290D01*
Y28850D01*
X14270D01*
Y28810D01*
X14250D01*
Y28790D01*
X14230D01*
Y28770D01*
X14210D01*
Y28750D01*
X14190D01*
Y28710D01*
X14170D01*
Y28670D01*
X14150D01*
Y28650D01*
X14130D01*
Y28610D01*
X14110D01*
Y28570D01*
X14090D01*
Y28530D01*
X14070D01*
Y28490D01*
X14050D01*
Y28450D01*
X14030D01*
Y28430D01*
X14010D01*
Y28390D01*
X13990D01*
Y28350D01*
X13970D01*
Y28330D01*
X13950D01*
Y28290D01*
X13930D01*
Y28250D01*
X13910D01*
Y28230D01*
X13890D01*
Y28190D01*
X13870D01*
Y28150D01*
X13850D01*
Y28110D01*
X13830D01*
Y28070D01*
X13810D01*
Y28030D01*
X13790D01*
Y27990D01*
X13770D01*
Y27970D01*
X13750D01*
Y27930D01*
X13730D01*
Y27890D01*
X13710D01*
Y27870D01*
X13690D01*
Y27830D01*
X13670D01*
Y27790D01*
X13650D01*
Y27770D01*
X13630D01*
Y27730D01*
X13610D01*
Y27690D01*
X13590D01*
Y27650D01*
X13570D01*
Y27590D01*
X13550D01*
Y27550D01*
X13530D01*
Y27470D01*
X13510D01*
Y27370D01*
X13490D01*
Y27210D01*
X13510D01*
Y27150D01*
X13490D01*
Y27090D01*
X13470D01*
Y27050D01*
X13450D01*
Y27030D01*
X13430D01*
Y27010D01*
X13410D01*
Y26990D01*
X13390D01*
Y26970D01*
X13370D01*
Y26950D01*
X13350D01*
Y26930D01*
X13310D01*
Y26910D01*
X13290D01*
Y26890D01*
X13270D01*
Y26870D01*
X13250D01*
Y26850D01*
X13210D01*
Y26830D01*
X13170D01*
Y26810D01*
X13150D01*
Y26790D01*
X13110D01*
Y26770D01*
X13090D01*
Y26750D01*
X13070D01*
Y26710D01*
X13050D01*
Y26690D01*
X13030D01*
Y26670D01*
X13010D01*
Y26630D01*
X12990D01*
Y26610D01*
X12970D01*
Y26570D01*
X12950D01*
Y26550D01*
X12930D01*
Y26530D01*
X12910D01*
Y26510D01*
X12890D01*
Y26490D01*
X12850D01*
Y26470D01*
X12830D01*
Y26430D01*
X12810D01*
Y26410D01*
X12790D01*
Y26390D01*
X12770D01*
Y26330D01*
X12750D01*
Y26290D01*
X12730D01*
Y26250D01*
X12710D01*
Y26210D01*
X12690D01*
Y26170D01*
X12670D01*
Y26130D01*
X12650D01*
Y26090D01*
X12630D01*
Y26070D01*
X12610D01*
Y26030D01*
X12590D01*
Y25990D01*
X12570D01*
Y25970D01*
X12550D01*
Y25930D01*
X12530D01*
Y25910D01*
X12510D01*
Y25870D01*
X12490D01*
Y25850D01*
X12470D01*
Y25810D01*
X12450D01*
Y25790D01*
X12430D01*
Y25750D01*
X12410D01*
Y25710D01*
X12390D01*
Y25690D01*
X12370D01*
Y25650D01*
X12350D01*
Y25630D01*
X12330D01*
Y25590D01*
X12310D01*
Y25550D01*
X12290D01*
Y25510D01*
X12270D01*
Y25450D01*
X12250D01*
Y25430D01*
X12270D01*
Y25410D01*
X12290D01*
Y25370D01*
X12310D01*
Y25310D01*
X12330D01*
Y25230D01*
X12350D01*
Y25130D01*
X12370D01*
Y25010D01*
X12390D01*
Y24930D01*
X12410D01*
Y24850D01*
X12430D01*
Y24810D01*
X12450D01*
Y24790D01*
X12470D01*
Y24750D01*
X12490D01*
Y24730D01*
X12510D01*
Y24690D01*
X12530D01*
Y24670D01*
X12550D01*
Y24650D01*
X12570D01*
Y24610D01*
X12590D01*
Y24590D01*
X12610D01*
Y24570D01*
X12630D01*
Y24550D01*
X12650D01*
Y24530D01*
X12670D01*
Y24510D01*
X12690D01*
Y24490D01*
X12710D01*
Y24470D01*
X12730D01*
Y24430D01*
X12770D01*
Y24410D01*
X12790D01*
Y24390D01*
X12810D01*
Y24370D01*
X12830D01*
Y24350D01*
X12850D01*
Y24330D01*
X12890D01*
Y24310D01*
X12910D01*
Y24290D01*
X12930D01*
Y24270D01*
X12970D01*
Y24250D01*
X12990D01*
Y24230D01*
X13030D01*
Y24210D01*
X13070D01*
Y24190D01*
X13110D01*
Y24170D01*
X13170D01*
Y24150D01*
X13210D01*
Y24130D01*
X13250D01*
Y24110D01*
X13310D01*
Y24090D01*
X13350D01*
Y24070D01*
X13430D01*
Y24050D01*
X13530D01*
Y24030D01*
X13650D01*
Y24010D01*
X13770D01*
Y23990D01*
X13850D01*
Y23970D01*
X13950D01*
Y23950D01*
X14090D01*
Y23930D01*
X14250D01*
Y23910D01*
X14430D01*
Y23890D01*
X14530D01*
Y23870D01*
X14710D01*
Y23850D01*
X14830D01*
Y23830D01*
X15030D01*
Y23810D01*
X15310D01*
Y23790D01*
X15510D01*
Y23770D01*
X15910D01*
Y23750D01*
X16070D01*
Y23770D01*
X16130D01*
Y23750D01*
X17310D01*
Y23770D01*
X17550D01*
Y23790D01*
X17770D01*
Y23810D01*
X18010D01*
Y23830D01*
X18170D01*
Y23850D01*
X18290D01*
Y23870D01*
X18430D01*
Y23890D01*
X18570D01*
Y23910D01*
X18710D01*
Y23930D01*
X18830D01*
Y23950D01*
X18950D01*
Y23970D01*
X19030D01*
Y23990D01*
X19130D01*
Y24010D01*
X19230D01*
Y24030D01*
X19330D01*
Y24050D01*
X19430D01*
Y24070D01*
X19550D01*
Y24090D01*
X19650D01*
Y24110D01*
X19750D01*
Y24130D01*
X19850D01*
Y24150D01*
X19970D01*
Y24170D01*
X20090D01*
Y24190D01*
X20210D01*
Y24210D01*
X20290D01*
Y24230D01*
X20390D01*
Y24270D01*
X20370D01*
Y24290D01*
X20330D01*
Y24310D01*
X20290D01*
Y24330D01*
X20230D01*
Y24350D01*
X20190D01*
Y24370D01*
X20170D01*
Y24390D01*
X20130D01*
Y24410D01*
X20090D01*
Y24430D01*
X20050D01*
Y24450D01*
X20030D01*
Y24470D01*
X19990D01*
Y24490D01*
X19970D01*
Y24510D01*
X19930D01*
Y24530D01*
X19910D01*
Y24550D01*
X19870D01*
Y24570D01*
X19850D01*
Y24590D01*
X19830D01*
Y24610D01*
X19790D01*
Y24630D01*
X19750D01*
Y24650D01*
X19730D01*
Y24670D01*
X19690D01*
Y24690D01*
X19650D01*
Y24710D01*
X19610D01*
Y24730D01*
X19550D01*
Y24750D01*
X19510D01*
Y24770D01*
X19470D01*
Y24790D01*
X19430D01*
Y24810D01*
X19410D01*
Y24830D01*
X19370D01*
Y24850D01*
X19350D01*
Y24870D01*
X19310D01*
Y24890D01*
X19290D01*
Y24910D01*
X19250D01*
Y24930D01*
X19230D01*
Y24950D01*
X19210D01*
Y24970D01*
X19170D01*
Y24990D01*
X19150D01*
Y25010D01*
X19130D01*
Y25030D01*
X19090D01*
Y25050D01*
X19070D01*
Y25070D01*
X19050D01*
Y25090D01*
X19030D01*
Y25110D01*
X19010D01*
Y25130D01*
X18990D01*
Y25150D01*
Y25170D01*
X18970D01*
Y25210D01*
X18990D01*
Y25230D01*
X19030D01*
Y25210D01*
X19050D01*
Y25190D01*
X19070D01*
Y25170D01*
X19090D01*
Y25150D01*
X19130D01*
Y25130D01*
X19150D01*
Y25110D01*
X19170D01*
Y25090D01*
X19210D01*
Y25070D01*
X19230D01*
Y25050D01*
X19270D01*
Y25030D01*
X19290D01*
Y25010D01*
X19310D01*
Y24990D01*
X19350D01*
Y24970D01*
X19370D01*
Y24950D01*
X19410D01*
Y24930D01*
X19450D01*
Y24910D01*
X19470D01*
Y24890D01*
X19510D01*
Y24870D01*
X19550D01*
Y24850D01*
X19610D01*
Y24830D01*
X19650D01*
Y24810D01*
X19690D01*
Y24790D01*
X19730D01*
Y24770D01*
X19770D01*
Y24750D01*
X19810D01*
Y24730D01*
X19850D01*
Y24710D01*
X19870D01*
Y24690D01*
X19910D01*
Y24670D01*
X19930D01*
Y24650D01*
X19970D01*
Y24630D01*
X19990D01*
Y24610D01*
X20030D01*
Y24590D01*
X20050D01*
Y24570D01*
X20090D01*
Y24550D01*
X20110D01*
Y24530D01*
X20150D01*
Y24510D01*
X20190D01*
Y24490D01*
X20210D01*
Y24470D01*
X20250D01*
Y24450D01*
X20290D01*
Y24430D01*
X20350D01*
Y24410D01*
X20390D01*
Y24390D01*
X20430D01*
Y24370D01*
X20450D01*
Y24350D01*
X20490D01*
Y24330D01*
X20530D01*
Y24310D01*
X20550D01*
Y24290D01*
X20650D01*
Y24270D01*
X20670D01*
Y24250D01*
X20710D01*
Y24230D01*
X20730D01*
Y24210D01*
X20770D01*
Y24170D01*
X20790D01*
Y24150D01*
X20830D01*
Y24130D01*
X20850D01*
Y24110D01*
X20890D01*
Y24090D01*
X20910D01*
Y24070D01*
X20950D01*
Y24050D01*
X20970D01*
Y24030D01*
X21010D01*
Y24010D01*
X21050D01*
Y23990D01*
X21070D01*
Y23970D01*
X21110D01*
Y23950D01*
X21150D01*
Y23930D01*
X21190D01*
Y23910D01*
X21250D01*
Y23890D01*
X21270D01*
Y23870D01*
X21330D01*
Y23850D01*
X21370D01*
Y23830D01*
X21410D01*
Y23810D01*
X21450D01*
Y23790D01*
X21490D01*
Y23770D01*
X21530D01*
Y23750D01*
X21570D01*
Y23730D01*
X21610D01*
Y23710D01*
X21650D01*
Y23690D01*
X21710D01*
Y23670D01*
X21750D01*
Y23650D01*
X21790D01*
Y23630D01*
X21850D01*
Y23610D01*
X21910D01*
Y23590D01*
X21970D01*
Y23570D01*
X22010D01*
Y23550D01*
X22070D01*
Y23530D01*
X22110D01*
Y23510D01*
X22170D01*
Y23490D01*
X22210D01*
Y23470D01*
X22250D01*
Y23450D01*
X22310D01*
Y23430D01*
X22350D01*
Y23410D01*
X22410D01*
Y23390D01*
X22450D01*
Y23370D01*
X22510D01*
Y23350D01*
X22570D01*
Y23330D01*
X22630D01*
Y23310D01*
X22670D01*
Y23290D01*
X22730D01*
Y23270D01*
X22770D01*
Y23250D01*
X22830D01*
Y23230D01*
X22890D01*
Y23210D01*
X22950D01*
Y23190D01*
X22990D01*
Y23170D01*
X23050D01*
Y23150D01*
X23090D01*
Y23130D01*
X23130D01*
Y23110D01*
X23190D01*
Y23090D01*
X23230D01*
Y23070D01*
X23290D01*
Y23050D01*
X23350D01*
Y23030D01*
X23410D01*
Y23010D01*
X23450D01*
Y22990D01*
X23510D01*
Y22970D01*
X23550D01*
Y22950D01*
X23630D01*
Y22930D01*
X23690D01*
Y22910D01*
X23730D01*
Y22890D01*
X23790D01*
Y22870D01*
X23850D01*
Y22850D01*
X23950D01*
Y22830D01*
X24030D01*
Y22810D01*
X24090D01*
Y22790D01*
X24170D01*
Y22770D01*
X24230D01*
Y22750D01*
X24310D01*
Y22730D01*
X24370D01*
Y22710D01*
X24470D01*
Y22690D01*
X24550D01*
Y22710D01*
X24510D01*
Y22750D01*
X24470D01*
Y22770D01*
X24450D01*
Y22790D01*
X24430D01*
Y22830D01*
X24390D01*
Y22850D01*
X24370D01*
Y22870D01*
X24350D01*
Y22890D01*
X24330D01*
Y22910D01*
X24310D01*
Y22930D01*
X24290D01*
Y22950D01*
X24270D01*
Y22970D01*
X24250D01*
Y22990D01*
X24230D01*
Y23010D01*
X24210D01*
Y23030D01*
X24170D01*
Y23050D01*
X24150D01*
Y23070D01*
X24130D01*
Y23090D01*
X24110D01*
Y23110D01*
X24090D01*
Y23130D01*
X24070D01*
Y23150D01*
X24050D01*
Y23170D01*
X24010D01*
Y23190D01*
X23990D01*
Y23210D01*
X23970D01*
Y23230D01*
X23950D01*
Y23250D01*
X23930D01*
Y23270D01*
X23890D01*
Y23290D01*
X23870D01*
Y23310D01*
X23850D01*
Y23330D01*
X23830D01*
Y23350D01*
X23810D01*
Y23370D01*
X23790D01*
Y23390D01*
X23770D01*
Y23410D01*
X23750D01*
Y23430D01*
X23730D01*
Y23450D01*
X23710D01*
Y23470D01*
X23690D01*
Y23490D01*
X23670D01*
Y23510D01*
X23650D01*
Y23530D01*
X23630D01*
Y23550D01*
X23610D01*
Y23570D01*
X23570D01*
Y23590D01*
X23550D01*
Y23610D01*
X23530D01*
Y23630D01*
X23510D01*
Y23650D01*
X23490D01*
Y23670D01*
X23450D01*
Y23690D01*
X23430D01*
Y23710D01*
X23410D01*
Y23730D01*
X23390D01*
Y23750D01*
X23370D01*
Y23770D01*
X23350D01*
Y23790D01*
X23330D01*
Y23810D01*
X23310D01*
Y23830D01*
X23270D01*
Y23850D01*
X23250D01*
Y23870D01*
X23230D01*
Y23890D01*
X23210D01*
Y23910D01*
X23190D01*
Y23930D01*
X23170D01*
Y23950D01*
X23130D01*
Y23970D01*
X23110D01*
Y23990D01*
X23090D01*
Y24010D01*
X23070D01*
Y24030D01*
X23030D01*
Y24050D01*
X23010D01*
Y24070D01*
X22990D01*
Y24090D01*
X22970D01*
Y24110D01*
X22930D01*
Y24130D01*
X22910D01*
Y24150D01*
X22890D01*
Y24170D01*
X22870D01*
Y24190D01*
X22850D01*
Y24210D01*
X22830D01*
Y24230D01*
X22810D01*
Y24250D01*
X22790D01*
Y24270D01*
X22770D01*
Y24290D01*
X22750D01*
Y24310D01*
X22730D01*
Y24330D01*
X22710D01*
Y24350D01*
X22690D01*
Y24370D01*
X22670D01*
Y24390D01*
X22650D01*
Y24410D01*
X22630D01*
Y24430D01*
X22610D01*
Y24450D01*
X22590D01*
Y24470D01*
X22550D01*
Y24490D01*
X22530D01*
Y24510D01*
X22510D01*
Y24530D01*
X22470D01*
Y24550D01*
X22450D01*
Y24590D01*
X22430D01*
Y24610D01*
X22410D01*
Y24630D01*
X22390D01*
Y24650D01*
X22370D01*
Y24670D01*
X22350D01*
Y24690D01*
X22330D01*
Y24710D01*
X22290D01*
Y24750D01*
X22270D01*
Y24770D01*
X22250D01*
Y24790D01*
X22230D01*
Y24810D01*
X22210D01*
Y24830D01*
X22190D01*
Y24850D01*
X22170D01*
Y24870D01*
X22150D01*
Y24890D01*
X22130D01*
Y24910D01*
X22110D01*
Y24930D01*
X22070D01*
Y24950D01*
X22050D01*
Y24970D01*
X22030D01*
Y24990D01*
X22010D01*
Y25010D01*
X21990D01*
Y25030D01*
X21970D01*
Y25050D01*
X21950D01*
Y25070D01*
X21910D01*
Y25090D01*
X21890D01*
Y25110D01*
X21870D01*
Y25130D01*
X21850D01*
Y25150D01*
X21830D01*
Y25170D01*
X21810D01*
Y25190D01*
X21790D01*
Y25210D01*
X21750D01*
Y25230D01*
X21730D01*
Y25250D01*
X21710D01*
Y25270D01*
X21690D01*
Y25290D01*
X21670D01*
Y25310D01*
X21630D01*
Y25330D01*
X21610D01*
Y25350D01*
X21590D01*
Y25370D01*
X21570D01*
Y25390D01*
X21530D01*
Y25410D01*
X21510D01*
Y25430D01*
X21470D01*
Y25450D01*
X21450D01*
Y25470D01*
X21410D01*
Y25490D01*
X21390D01*
Y25510D01*
X21350D01*
Y25530D01*
X21330D01*
Y25550D01*
X21310D01*
Y25570D01*
X21270D01*
Y25590D01*
X21250D01*
Y25610D01*
X21230D01*
Y25630D01*
X21210D01*
Y25650D01*
X21190D01*
Y25670D01*
X21170D01*
Y25690D01*
X21130D01*
Y25710D01*
X21110D01*
Y25730D01*
X21090D01*
Y25750D01*
X21070D01*
Y25770D01*
X21050D01*
Y25790D01*
X21010D01*
Y25810D01*
X20990D01*
Y25830D01*
X20970D01*
Y25850D01*
X20950D01*
Y25870D01*
X20910D01*
Y25890D01*
X20890D01*
Y25910D01*
X20850D01*
Y25930D01*
X20830D01*
Y25950D01*
X20790D01*
Y25970D01*
X20750D01*
Y25990D01*
X20730D01*
Y26010D01*
X20710D01*
Y26030D01*
X20690D01*
Y26050D01*
X20650D01*
Y26070D01*
X20630D01*
Y26090D01*
X20610D01*
Y26110D01*
X20590D01*
Y26130D01*
X20570D01*
Y26150D01*
X20550D01*
Y26170D01*
X20530D01*
Y26190D01*
X20510D01*
Y26210D01*
X20470D01*
Y26230D01*
X20450D01*
Y26250D01*
X20430D01*
Y26330D01*
X20450D01*
Y26350D01*
X20470D01*
Y26310D01*
X20490D01*
Y26290D01*
X20530D01*
Y26270D01*
X20550D01*
Y26250D01*
X20590D01*
Y26230D01*
X20610D01*
Y26210D01*
X20630D01*
Y26190D01*
X20670D01*
Y26170D01*
X20690D01*
Y26150D01*
X20710D01*
Y26130D01*
X20730D01*
Y26110D01*
X20770D01*
Y26090D01*
X20790D01*
Y26070D01*
X20830D01*
Y26050D01*
X20850D01*
Y26030D01*
X20890D01*
Y26010D01*
X20930D01*
Y25990D01*
X20950D01*
Y25970D01*
X20990D01*
Y25950D01*
X21010D01*
Y25930D01*
X21050D01*
Y25910D01*
X21070D01*
Y25890D01*
X21090D01*
Y25870D01*
X21110D01*
Y25850D01*
X21130D01*
Y25830D01*
X21170D01*
Y25810D01*
X21190D01*
Y25790D01*
X21210D01*
Y25770D01*
X21230D01*
Y25750D01*
X21250D01*
Y25730D01*
X21270D01*
Y25710D01*
X21310D01*
Y25690D01*
X21330D01*
Y25670D01*
X21350D01*
Y25650D01*
X21370D01*
Y25630D01*
X21410D01*
Y25610D01*
X21430D01*
Y25590D01*
X21470D01*
Y25570D01*
X21490D01*
Y25550D01*
X21530D01*
Y25530D01*
X21550D01*
Y25510D01*
X21590D01*
Y25490D01*
X21610D01*
Y25470D01*
X21650D01*
Y25450D01*
X21670D01*
Y25430D01*
X21690D01*
Y25410D01*
X21730D01*
Y25390D01*
X21750D01*
Y25370D01*
X21770D01*
Y25350D01*
X21790D01*
Y25330D01*
X21810D01*
Y25310D01*
X21850D01*
Y25290D01*
X21870D01*
Y25270D01*
X21890D01*
Y25250D01*
X21910D01*
Y25230D01*
X21930D01*
Y25210D01*
X21950D01*
Y25190D01*
X21970D01*
Y25170D01*
X22010D01*
Y25150D01*
X22030D01*
Y25130D01*
X22050D01*
Y25110D01*
X22070D01*
Y25090D01*
X22090D01*
Y25070D01*
X22110D01*
Y25050D01*
X22150D01*
Y25030D01*
X22170D01*
Y25010D01*
X22190D01*
Y24990D01*
X22210D01*
Y24970D01*
X22230D01*
Y24950D01*
X22250D01*
Y24930D01*
X22270D01*
Y24910D01*
X22290D01*
Y24890D01*
X22310D01*
Y24870D01*
X22330D01*
Y24850D01*
X22350D01*
Y24830D01*
X22370D01*
Y24810D01*
X22390D01*
Y24790D01*
X22410D01*
Y24770D01*
X22430D01*
Y24750D01*
X22450D01*
Y24730D01*
X22470D01*
Y24710D01*
X22490D01*
Y24690D01*
X22510D01*
Y24670D01*
X22550D01*
Y24650D01*
X22570D01*
Y24630D01*
X22590D01*
Y24610D01*
X22610D01*
Y24590D01*
X22690D01*
Y24610D01*
X22950D01*
Y24630D01*
X23130D01*
Y24650D01*
X23310D01*
Y24670D01*
X23470D01*
Y24690D01*
X23670D01*
Y24710D01*
X23850D01*
Y24730D01*
X24030D01*
Y24750D01*
X24130D01*
Y24770D01*
X24250D01*
Y24790D01*
X24330D01*
Y24810D01*
X24410D01*
Y24830D01*
X24470D01*
Y24850D01*
X24550D01*
Y24870D01*
X24610D01*
Y24890D01*
X24650D01*
Y24910D01*
X24690D01*
Y24930D01*
X24730D01*
Y24950D01*
X24770D01*
Y24970D01*
X24810D01*
Y24990D01*
X24850D01*
Y25010D01*
X24890D01*
Y25030D01*
X24910D01*
Y25050D01*
X24950D01*
Y25070D01*
X24970D01*
Y25090D01*
X25010D01*
Y25110D01*
X25050D01*
Y25130D01*
X25070D01*
Y25150D01*
X25110D01*
Y25170D01*
X25130D01*
Y25190D01*
X25170D01*
Y25210D01*
X25190D01*
Y25230D01*
X25230D01*
Y25250D01*
X25250D01*
Y25270D01*
X25290D01*
Y25290D01*
X25310D01*
Y25310D01*
X25330D01*
Y25330D01*
X25370D01*
Y25350D01*
X25390D01*
Y25370D01*
X25430D01*
Y25390D01*
X25450D01*
Y25410D01*
X25470D01*
Y25430D01*
X25490D01*
Y25450D01*
X25510D01*
Y25470D01*
X25530D01*
Y25490D01*
X25550D01*
Y25510D01*
X25570D01*
Y25550D01*
X25590D01*
Y25570D01*
X25610D01*
Y25590D01*
X25630D01*
Y25610D01*
X25650D01*
Y25630D01*
X25670D01*
Y25650D01*
X25690D01*
Y25670D01*
X25710D01*
Y25710D01*
X25730D01*
Y25730D01*
X25750D01*
Y25770D01*
X25770D01*
Y25810D01*
X25790D01*
Y25830D01*
X25810D01*
Y25870D01*
X25830D01*
Y25910D01*
X25850D01*
Y25930D01*
X25870D01*
Y25970D01*
X25890D01*
Y26010D01*
X25910D01*
Y26050D01*
X25930D01*
Y26090D01*
X25950D01*
Y26130D01*
X25970D01*
Y26170D01*
X25990D01*
Y26210D01*
X26010D01*
Y26250D01*
X26030D01*
Y26270D01*
X26050D01*
Y26310D01*
X26070D01*
Y26350D01*
X26090D01*
Y26390D01*
X26110D01*
Y26430D01*
X26130D01*
Y26470D01*
X26150D01*
Y26510D01*
X26170D01*
Y26570D01*
X26190D01*
Y26630D01*
X26210D01*
Y26670D01*
X26230D01*
Y26730D01*
X26250D01*
Y26770D01*
X26270D01*
Y26830D01*
X26290D01*
Y26870D01*
X26310D01*
Y26930D01*
X26330D01*
Y26990D01*
X26350D01*
Y27030D01*
X26370D01*
Y27070D01*
X26390D01*
Y27130D01*
X26410D01*
Y27170D01*
X26430D01*
Y27210D01*
X26450D01*
Y27230D01*
X26470D01*
Y27270D01*
X26490D01*
Y27310D01*
X26510D01*
Y27350D01*
X26530D01*
Y27390D01*
X26550D01*
Y27430D01*
X26570D01*
Y27470D01*
X26590D01*
Y27510D01*
X26610D01*
Y27550D01*
X26630D01*
Y27590D01*
X26650D01*
Y27630D01*
X26670D01*
Y27670D01*
X26690D01*
Y27710D01*
X26710D01*
Y27770D01*
X26730D01*
Y27830D01*
X26750D01*
Y27910D01*
X26770D01*
Y28010D01*
X26790D01*
Y28110D01*
X26810D01*
Y28250D01*
X26830D01*
Y28330D01*
X26850D01*
Y28430D01*
X26870D01*
Y28510D01*
X26890D01*
Y28670D01*
X26910D01*
Y28770D01*
X26930D01*
Y28870D01*
X26950D01*
Y28990D01*
X26910D01*
Y28970D01*
X26870D01*
Y28950D01*
X26850D01*
Y28930D01*
X26810D01*
Y28910D01*
X26770D01*
Y28890D01*
X26730D01*
Y28870D01*
X26690D01*
Y28850D01*
X26670D01*
Y28830D01*
X26650D01*
Y28810D01*
X26610D01*
Y28790D01*
X26590D01*
Y28770D01*
X26550D01*
Y28750D01*
X26530D01*
Y28730D01*
X26490D01*
Y28710D01*
X26470D01*
Y28690D01*
X26450D01*
Y28670D01*
X26430D01*
Y28650D01*
X26410D01*
Y28630D01*
X26390D01*
Y28590D01*
X26370D01*
Y28570D01*
X26350D01*
Y28550D01*
X26330D01*
Y28530D01*
X26310D01*
Y28510D01*
X26270D01*
Y28490D01*
X26250D01*
Y28470D01*
X26230D01*
Y28450D01*
X26210D01*
Y28430D01*
X26170D01*
Y28410D01*
X26150D01*
Y28390D01*
X26130D01*
Y28370D01*
X26110D01*
Y28350D01*
X26090D01*
Y28330D01*
X26070D01*
Y28310D01*
X26050D01*
Y28290D01*
X26030D01*
Y28270D01*
X25990D01*
Y28250D01*
X25970D01*
Y28230D01*
X25930D01*
Y28210D01*
X25910D01*
Y28190D01*
X25890D01*
Y28170D01*
X25850D01*
Y28150D01*
X25830D01*
Y28130D01*
X25810D01*
Y28110D01*
X25790D01*
Y28090D01*
X25750D01*
Y28070D01*
X25710D01*
Y28050D01*
X25690D01*
Y28030D01*
X25650D01*
Y28010D01*
X25610D01*
Y27990D01*
X25590D01*
Y27970D01*
X25570D01*
Y27950D01*
X25530D01*
Y27930D01*
X25510D01*
Y27910D01*
X25470D01*
Y27890D01*
X25450D01*
Y27870D01*
X25410D01*
Y27850D01*
X25370D01*
Y27830D01*
X25350D01*
Y27810D01*
X25310D01*
Y27790D01*
X25290D01*
Y27770D01*
X25250D01*
Y27750D01*
X25230D01*
Y27730D01*
X25190D01*
Y27710D01*
X25170D01*
Y27690D01*
X25130D01*
Y27670D01*
X25110D01*
Y27650D01*
X25070D01*
Y27630D01*
X25030D01*
Y27610D01*
X25010D01*
Y27590D01*
X24970D01*
Y27570D01*
X24930D01*
Y27550D01*
X24890D01*
Y27530D01*
X24850D01*
Y27510D01*
X24810D01*
Y27490D01*
X24770D01*
Y27470D01*
X24730D01*
Y27450D01*
X24690D01*
Y27430D01*
X24650D01*
Y27410D01*
X24590D01*
Y27390D01*
X24550D01*
Y27370D01*
X24490D01*
Y27350D01*
X24450D01*
Y27330D01*
X24390D01*
Y27310D01*
X24330D01*
Y27290D01*
X24250D01*
Y27270D01*
X24150D01*
Y27250D01*
X24050D01*
Y27230D01*
X23910D01*
Y27210D01*
X23810D01*
Y27190D01*
X23290D01*
Y27210D01*
X23150D01*
Y27230D01*
X22990D01*
Y27250D01*
X22870D01*
Y27270D01*
X22710D01*
Y27290D01*
X22610D01*
Y27310D01*
X22530D01*
Y27330D01*
X22450D01*
Y27350D01*
X22370D01*
Y27370D01*
X22290D01*
Y27390D01*
X22210D01*
Y27410D01*
X22150D01*
Y27430D01*
X22090D01*
Y27450D01*
X22010D01*
Y27470D01*
X21970D01*
Y27490D01*
X21910D01*
Y27510D01*
X21870D01*
Y27530D01*
X21830D01*
Y27550D01*
X21770D01*
Y27570D01*
X21710D01*
Y27590D01*
X21670D01*
Y27610D01*
X21610D01*
Y27630D01*
X21550D01*
Y27650D01*
X21510D01*
Y27670D01*
X21470D01*
Y27690D01*
X21410D01*
Y27710D01*
X21370D01*
Y27730D01*
X21330D01*
Y27750D01*
X21290D01*
Y27770D01*
X21230D01*
Y27790D01*
X21190D01*
Y27810D01*
X21130D01*
Y27830D01*
X21090D01*
Y27850D01*
X21050D01*
Y27870D01*
X20990D01*
Y27890D01*
X20950D01*
Y27910D01*
X20910D01*
Y27930D01*
X20870D01*
Y27950D01*
X20830D01*
Y27970D01*
X20790D01*
Y27990D01*
X20750D01*
Y28010D01*
X20710D01*
Y28030D01*
X20670D01*
Y28050D01*
X20630D01*
Y28070D01*
X20610D01*
Y28090D01*
X20570D01*
Y28110D01*
X20550D01*
Y28130D01*
X20510D01*
Y28150D01*
X20490D01*
Y28170D01*
X20450D01*
Y28190D01*
X20430D01*
Y28210D01*
X20390D01*
Y28230D01*
X20370D01*
Y28250D01*
X20330D01*
Y28270D01*
X20310D01*
Y28290D01*
X20270D01*
Y28310D01*
X20250D01*
Y28330D01*
X20210D01*
Y28350D01*
X20190D01*
Y28370D01*
X20170D01*
Y28390D01*
X20130D01*
Y28410D01*
X20110D01*
Y28430D01*
X20090D01*
Y28450D01*
X20070D01*
Y28470D01*
X20050D01*
Y28490D01*
X20030D01*
Y28510D01*
X20010D01*
Y28530D01*
X19970D01*
Y28550D01*
X19950D01*
Y28570D01*
X19930D01*
Y28590D01*
X19910D01*
Y28610D01*
X19890D01*
Y28630D01*
X19870D01*
Y28650D01*
X19850D01*
Y28670D01*
X19830D01*
Y28690D01*
X19810D01*
Y28710D01*
X19770D01*
Y28730D01*
X19710D01*
Y28710D01*
X19690D01*
Y28690D01*
X19670D01*
Y28670D01*
X19650D01*
Y28650D01*
X19630D01*
Y28630D01*
X19590D01*
Y28610D01*
X19550D01*
Y28590D01*
X19510D01*
Y28570D01*
X19450D01*
Y28550D01*
X19310D01*
Y28570D01*
X19230D01*
Y28590D01*
X19190D01*
Y28610D01*
X19150D01*
Y28630D01*
X19130D01*
Y28650D01*
X19110D01*
Y28670D01*
X19090D01*
Y28690D01*
X19070D01*
Y28710D01*
X19050D01*
Y28730D01*
X19030D01*
Y28770D01*
X19010D01*
Y28810D01*
X18990D01*
Y28850D01*
X18970D01*
Y28870D01*
X18950D01*
Y28910D01*
X18930D01*
Y28930D01*
X18910D01*
Y28950D01*
X18850D01*
Y28970D01*
X18810D01*
Y28990D01*
X18790D01*
Y29010D01*
X18770D01*
Y29030D01*
X18750D01*
Y29050D01*
X18710D01*
Y29070D01*
X18690D01*
Y29090D01*
X18670D01*
Y29130D01*
X18650D01*
Y29150D01*
X18630D01*
Y29210D01*
X18470D01*
Y29190D01*
X18350D01*
Y29170D01*
X18250D01*
Y29150D01*
X18190D01*
Y29130D01*
X17970D01*
Y29150D01*
X17930D01*
Y29170D01*
X17890D01*
Y29190D01*
X17870D01*
Y29210D01*
X17830D01*
Y29230D01*
X17810D01*
Y29250D01*
X17790D01*
Y29270D01*
X17770D01*
Y29290D01*
X17750D01*
Y29310D01*
X17730D01*
Y29330D01*
X17710D01*
Y29350D01*
X17690D01*
Y29370D01*
X17670D01*
Y29430D01*
X17650D01*
Y29870D01*
X17670D01*
Y29910D01*
X17410D01*
Y29930D01*
D02*
G37*
G36*
X17570Y23670D02*
X17510D01*
Y23650D01*
X17270D01*
Y23630D01*
X16090D01*
Y23610D01*
X16070D01*
Y23530D01*
X16050D01*
Y23470D01*
X16030D01*
Y23410D01*
X16010D01*
Y23350D01*
X15990D01*
Y22870D01*
X16010D01*
Y22790D01*
X16030D01*
Y22750D01*
X16050D01*
Y22690D01*
X16070D01*
Y22650D01*
X16090D01*
Y22610D01*
X16110D01*
Y22590D01*
X16130D01*
Y22570D01*
X16150D01*
Y22530D01*
X16170D01*
Y22510D01*
X16190D01*
Y22490D01*
X16210D01*
Y22470D01*
X16230D01*
Y22450D01*
X16270D01*
Y22410D01*
X16290D01*
Y22330D01*
X16270D01*
Y22290D01*
X16250D01*
Y22270D01*
X16230D01*
Y22230D01*
X16210D01*
Y22150D01*
X16230D01*
Y22130D01*
X16250D01*
Y22110D01*
X16270D01*
Y22090D01*
X16290D01*
Y22050D01*
X16310D01*
Y22030D01*
X16330D01*
Y22010D01*
X16350D01*
Y21970D01*
X16370D01*
Y21910D01*
X16390D01*
Y21770D01*
X16410D01*
Y21690D01*
X16430D01*
Y21450D01*
X16410D01*
Y21390D01*
X16390D01*
Y21350D01*
X16370D01*
Y21330D01*
X16350D01*
Y21310D01*
X16330D01*
Y21290D01*
X16310D01*
Y21270D01*
X16270D01*
Y21250D01*
X16250D01*
Y21230D01*
X16210D01*
Y21210D01*
X16190D01*
Y21190D01*
X16150D01*
Y21170D01*
X16110D01*
Y21150D01*
X16090D01*
Y21130D01*
X16050D01*
Y21110D01*
X16010D01*
Y21090D01*
X15990D01*
Y21070D01*
X15950D01*
Y21050D01*
X15910D01*
Y21030D01*
X15870D01*
Y21010D01*
X15790D01*
Y20990D01*
X15730D01*
Y20970D01*
X15670D01*
Y20950D01*
X15630D01*
Y20930D01*
X15590D01*
Y20910D01*
X15570D01*
Y20890D01*
X15550D01*
Y20870D01*
X15530D01*
Y20830D01*
X15510D01*
Y20810D01*
X15670D01*
Y20790D01*
X15690D01*
Y20750D01*
X15710D01*
Y20730D01*
X15690D01*
Y20670D01*
X15670D01*
Y20630D01*
X15650D01*
Y20570D01*
X15690D01*
Y20590D01*
X15730D01*
Y20610D01*
X15830D01*
Y20590D01*
X15850D01*
Y20450D01*
X15830D01*
Y20390D01*
X15810D01*
Y20330D01*
X15830D01*
Y20350D01*
X15870D01*
Y20370D01*
X15990D01*
Y20350D01*
X16010D01*
Y20230D01*
X15990D01*
Y20150D01*
X15970D01*
Y20090D01*
X16050D01*
Y20110D01*
X16090D01*
Y20130D01*
X16110D01*
Y20150D01*
X16150D01*
Y20190D01*
X16170D01*
Y20210D01*
X16190D01*
Y20250D01*
X16210D01*
Y20270D01*
X16230D01*
Y20310D01*
X16250D01*
Y20330D01*
X16270D01*
Y20370D01*
X16290D01*
Y20410D01*
X16310D01*
Y20430D01*
X16330D01*
Y20470D01*
X16350D01*
Y20490D01*
X16370D01*
Y20510D01*
X16390D01*
Y20530D01*
X16430D01*
Y20550D01*
X16450D01*
Y20570D01*
X16490D01*
Y20590D01*
X16530D01*
Y20610D01*
X16590D01*
Y20630D01*
X16630D01*
Y20650D01*
X16670D01*
Y20670D01*
X16690D01*
Y20690D01*
X16730D01*
Y20710D01*
X16770D01*
Y20730D01*
X16810D01*
Y20750D01*
X16830D01*
Y20770D01*
X16870D01*
Y20790D01*
X16890D01*
Y20810D01*
X16930D01*
Y20830D01*
X16970D01*
Y20850D01*
X17010D01*
Y20870D01*
X17030D01*
Y20890D01*
X17070D01*
Y20910D01*
X17110D01*
Y20930D01*
X17150D01*
Y20950D01*
X17190D01*
Y20970D01*
X17230D01*
Y20990D01*
X17270D01*
Y21010D01*
X17290D01*
Y21030D01*
X17330D01*
Y21050D01*
X17370D01*
Y21070D01*
X17390D01*
Y21090D01*
X17410D01*
Y21150D01*
X17430D01*
Y21250D01*
X17450D01*
Y21370D01*
X17470D01*
Y21650D01*
X17450D01*
Y21750D01*
X17430D01*
Y21870D01*
X17410D01*
Y21970D01*
X17390D01*
Y22050D01*
X17370D01*
Y22090D01*
X17350D01*
Y22130D01*
X17330D01*
Y22170D01*
X17310D01*
Y22190D01*
X17290D01*
Y22230D01*
X17270D01*
Y22250D01*
X17250D01*
Y22290D01*
X17230D01*
Y22310D01*
X17210D01*
Y22350D01*
X17190D01*
Y22370D01*
X17170D01*
Y22550D01*
X17190D01*
Y22590D01*
X17210D01*
Y22630D01*
X17230D01*
Y22670D01*
X17250D01*
Y22710D01*
X17270D01*
Y22750D01*
X17290D01*
Y22790D01*
X17310D01*
Y22830D01*
X17330D01*
Y22870D01*
X17350D01*
Y22930D01*
X17370D01*
Y22950D01*
X17390D01*
Y22990D01*
X17410D01*
Y23030D01*
X17430D01*
Y23070D01*
X17450D01*
Y23110D01*
X17470D01*
Y23190D01*
X17490D01*
Y23270D01*
X17510D01*
Y23370D01*
X17530D01*
Y23470D01*
X17550D01*
Y23610D01*
X17570D01*
Y23670D01*
D02*
G37*
G36*
X20590Y24150D02*
X20470D01*
Y24130D01*
X20430D01*
Y24110D01*
X20410D01*
Y24070D01*
X20390D01*
Y24010D01*
X20370D01*
Y23930D01*
X20350D01*
Y23870D01*
X20330D01*
Y23810D01*
X20310D01*
Y23770D01*
X20290D01*
Y23730D01*
X20270D01*
Y23670D01*
X20250D01*
Y23550D01*
X20230D01*
Y23430D01*
X20210D01*
Y23310D01*
X20190D01*
Y23090D01*
X20210D01*
Y22990D01*
X20230D01*
Y22890D01*
X20250D01*
Y22830D01*
X20230D01*
Y22770D01*
X20210D01*
Y22710D01*
X20190D01*
Y22570D01*
X20170D01*
Y22490D01*
X20190D01*
Y22450D01*
X20210D01*
Y22390D01*
X20230D01*
Y22350D01*
X20250D01*
Y22330D01*
X20270D01*
Y22290D01*
X20290D01*
Y22250D01*
X20310D01*
Y22230D01*
X20330D01*
Y22210D01*
X20350D01*
Y22170D01*
X20370D01*
Y22150D01*
X20390D01*
Y22010D01*
X20410D01*
Y21910D01*
X20430D01*
Y21750D01*
X20450D01*
Y21670D01*
X20470D01*
Y21530D01*
X20490D01*
Y21210D01*
X20510D01*
Y21170D01*
X20490D01*
Y21150D01*
X20470D01*
Y21130D01*
X20450D01*
Y21110D01*
X20430D01*
Y21090D01*
X20410D01*
Y21070D01*
X20370D01*
Y21050D01*
X20350D01*
Y21030D01*
X20310D01*
Y21010D01*
X20290D01*
Y20990D01*
X20270D01*
Y20970D01*
X20250D01*
Y20950D01*
X20230D01*
Y20930D01*
X20210D01*
Y20910D01*
X20190D01*
Y20890D01*
X20170D01*
Y20870D01*
X20150D01*
Y20850D01*
X20130D01*
Y20830D01*
X20110D01*
Y20810D01*
X20070D01*
Y20770D01*
X20050D01*
Y20750D01*
X20030D01*
Y20730D01*
X20010D01*
Y20710D01*
X19990D01*
Y20670D01*
X19970D01*
Y20650D01*
X19930D01*
Y20610D01*
X19910D01*
Y20590D01*
X19890D01*
Y20570D01*
X19870D01*
Y20550D01*
X19850D01*
Y20510D01*
X19830D01*
Y20490D01*
X19810D01*
Y20470D01*
X19790D01*
Y20450D01*
X19770D01*
Y20410D01*
X19750D01*
Y20390D01*
X19730D01*
Y20350D01*
X19710D01*
Y20290D01*
X19730D01*
Y20310D01*
X19750D01*
Y20330D01*
X19790D01*
Y20350D01*
X19830D01*
Y20370D01*
X19930D01*
Y20350D01*
X19950D01*
Y20290D01*
X19930D01*
Y20270D01*
X19910D01*
Y20230D01*
X19890D01*
Y20190D01*
X19870D01*
Y20150D01*
X19850D01*
Y20090D01*
X19830D01*
Y20070D01*
X19870D01*
Y20090D01*
X19890D01*
Y20110D01*
X19910D01*
Y20130D01*
X19930D01*
Y20150D01*
X19950D01*
Y20170D01*
X19970D01*
Y20190D01*
X20010D01*
Y20210D01*
X20070D01*
Y20190D01*
X20090D01*
Y20030D01*
X20110D01*
Y20050D01*
X20170D01*
Y20030D01*
X20190D01*
Y20010D01*
X20210D01*
Y19790D01*
X20250D01*
Y19830D01*
X20290D01*
Y19870D01*
X20310D01*
Y19890D01*
X20330D01*
Y19910D01*
X20350D01*
Y19930D01*
X20370D01*
Y19950D01*
X20390D01*
Y19970D01*
X20410D01*
Y19990D01*
X20430D01*
Y20010D01*
X20450D01*
Y20030D01*
X20470D01*
Y20050D01*
X20490D01*
Y20070D01*
X20510D01*
Y20110D01*
X20530D01*
Y20130D01*
X20550D01*
Y20150D01*
X20570D01*
Y20170D01*
X20590D01*
Y20190D01*
X20610D01*
Y20210D01*
X20630D01*
Y20230D01*
X20650D01*
Y20250D01*
X20670D01*
Y20270D01*
X20690D01*
Y20290D01*
X20710D01*
Y20310D01*
X20730D01*
Y20330D01*
X20750D01*
Y20350D01*
X20770D01*
Y20370D01*
X20790D01*
Y20390D01*
X20810D01*
Y20410D01*
X20830D01*
Y20430D01*
X20850D01*
Y20450D01*
X20890D01*
Y20470D01*
X20910D01*
Y20490D01*
X20930D01*
Y20510D01*
X20970D01*
Y20530D01*
X20990D01*
Y20550D01*
X21030D01*
Y20570D01*
X21070D01*
Y20590D01*
X21110D01*
Y20610D01*
X21150D01*
Y20630D01*
X21170D01*
Y20650D01*
X21210D01*
Y20670D01*
X21250D01*
Y20690D01*
X21290D01*
Y20710D01*
X21310D01*
Y20730D01*
X21350D01*
Y20750D01*
X21370D01*
Y20770D01*
X21390D01*
Y20790D01*
X21410D01*
Y20810D01*
X21450D01*
Y20830D01*
X21470D01*
Y20850D01*
X21490D01*
Y20870D01*
X21510D01*
Y20890D01*
X21530D01*
Y20910D01*
X21550D01*
Y20930D01*
X21570D01*
Y20950D01*
X21590D01*
Y21030D01*
X21610D01*
Y21150D01*
X21630D01*
Y21290D01*
X21650D01*
Y21350D01*
X21630D01*
Y21490D01*
X21610D01*
Y21570D01*
X21590D01*
Y21770D01*
X21570D01*
Y21890D01*
X21550D01*
Y22030D01*
X21530D01*
Y22110D01*
X21510D01*
Y22190D01*
X21490D01*
Y22310D01*
X21470D01*
Y22410D01*
X21450D01*
Y22510D01*
X21430D01*
Y22610D01*
X21410D01*
Y22810D01*
X21390D01*
Y22830D01*
X21370D01*
Y22790D01*
X21350D01*
Y22730D01*
X21330D01*
Y22690D01*
X21310D01*
Y22630D01*
X21290D01*
Y22570D01*
X21270D01*
Y22530D01*
X21210D01*
Y22550D01*
X21190D01*
Y22610D01*
X21210D01*
Y22690D01*
X21230D01*
Y22750D01*
X21250D01*
Y22810D01*
X21270D01*
Y22870D01*
X21290D01*
Y22950D01*
X21310D01*
Y23050D01*
X21330D01*
Y23150D01*
X21350D01*
Y23230D01*
X21370D01*
Y23350D01*
X21390D01*
Y23430D01*
X21410D01*
Y23490D01*
X21430D01*
Y23570D01*
X21450D01*
Y23630D01*
X21470D01*
Y23650D01*
X21450D01*
Y23670D01*
X21410D01*
Y23690D01*
X21370D01*
Y23710D01*
X21330D01*
Y23730D01*
X21290D01*
Y23750D01*
X21250D01*
Y23770D01*
X21210D01*
Y23790D01*
X21170D01*
Y23810D01*
X21130D01*
Y23830D01*
X21090D01*
Y23850D01*
X21050D01*
Y23870D01*
X21010D01*
Y23890D01*
X20970D01*
Y23910D01*
X20950D01*
Y23930D01*
X20910D01*
Y23950D01*
X20890D01*
Y23970D01*
X20850D01*
Y23990D01*
X20830D01*
Y24010D01*
X20790D01*
Y24030D01*
X20770D01*
Y24050D01*
X20730D01*
Y24070D01*
X20690D01*
Y24090D01*
X20650D01*
Y24110D01*
X20630D01*
Y24130D01*
X20590D01*
Y24150D01*
D02*
G37*
%LPD*%
G36*
X14990Y28810D02*
X15010D01*
Y28530D01*
X15270D01*
Y28510D01*
X15350D01*
Y28490D01*
X15410D01*
Y28470D01*
X15450D01*
Y28450D01*
X15490D01*
Y28430D01*
X15510D01*
Y28410D01*
X15530D01*
Y28390D01*
X15570D01*
Y28370D01*
X15590D01*
Y28350D01*
X15610D01*
Y28310D01*
X15630D01*
Y28290D01*
X15650D01*
Y28270D01*
X15670D01*
Y28230D01*
X15690D01*
Y28190D01*
X15710D01*
Y28150D01*
X15730D01*
Y28090D01*
X15750D01*
Y28030D01*
X15770D01*
Y27790D01*
X15750D01*
Y27710D01*
X15730D01*
Y27630D01*
X15710D01*
Y27590D01*
X15690D01*
Y27550D01*
X15670D01*
Y27510D01*
X15650D01*
Y27490D01*
X15630D01*
Y27450D01*
X15610D01*
Y27430D01*
X15590D01*
Y27410D01*
X15570D01*
Y27390D01*
X15550D01*
Y27370D01*
X15530D01*
Y27350D01*
X15510D01*
Y27330D01*
X15490D01*
Y27310D01*
X15470D01*
Y27290D01*
X15450D01*
Y27270D01*
X15410D01*
Y27250D01*
X15370D01*
Y27230D01*
X15310D01*
Y27210D01*
X15270D01*
Y27190D01*
X14890D01*
Y27210D01*
X14830D01*
Y27230D01*
X14790D01*
Y27250D01*
X14750D01*
Y27270D01*
X14710D01*
Y27290D01*
X14690D01*
Y27310D01*
X14650D01*
Y27330D01*
X14630D01*
Y27350D01*
X14610D01*
Y27370D01*
X14590D01*
Y27390D01*
X14570D01*
Y27410D01*
X14550D01*
Y27430D01*
X14530D01*
Y27450D01*
X14510D01*
Y27490D01*
X14490D01*
Y27510D01*
X14470D01*
Y27550D01*
X14450D01*
Y27610D01*
X14430D01*
Y27690D01*
X14410D01*
Y28010D01*
X14430D01*
Y28050D01*
X14450D01*
Y28070D01*
X14470D01*
Y28110D01*
X14490D01*
Y28130D01*
X14510D01*
Y28170D01*
X14530D01*
Y28190D01*
X14550D01*
Y28210D01*
X14570D01*
Y28230D01*
X14590D01*
Y28250D01*
X14610D01*
Y28270D01*
X14630D01*
Y28310D01*
X14670D01*
Y28330D01*
X14690D01*
Y28430D01*
X14670D01*
Y28470D01*
X14650D01*
Y28510D01*
X14630D01*
Y28550D01*
X14610D01*
Y28590D01*
X14590D01*
Y28610D01*
X14570D01*
Y28650D01*
X14550D01*
Y28730D01*
X14570D01*
Y28750D01*
X14630D01*
Y28730D01*
X14650D01*
Y28710D01*
X14670D01*
Y28670D01*
X14690D01*
Y28650D01*
X14710D01*
Y28610D01*
X14730D01*
Y28570D01*
X14750D01*
Y28530D01*
X14770D01*
Y28490D01*
X14790D01*
Y28470D01*
X14810D01*
Y28490D01*
X14850D01*
Y28510D01*
X14930D01*
Y28710D01*
X14910D01*
Y28750D01*
X14930D01*
Y28830D01*
X14990D01*
Y28810D01*
D02*
G37*
G36*
X18510Y28190D02*
X18490D01*
Y28170D01*
X18470D01*
Y28150D01*
X18450D01*
Y28130D01*
X18430D01*
Y28110D01*
X18410D01*
Y28090D01*
X18390D01*
Y28070D01*
X18370D01*
Y28050D01*
X18350D01*
Y28030D01*
X18330D01*
Y27990D01*
X18290D01*
Y27970D01*
X18270D01*
Y27950D01*
X18250D01*
Y27930D01*
X18230D01*
Y27910D01*
X18190D01*
Y27890D01*
X18170D01*
Y27870D01*
X18150D01*
Y27850D01*
X18170D01*
Y27830D01*
Y27810D01*
X18250D01*
Y27830D01*
X18290D01*
Y27850D01*
X18350D01*
Y27870D01*
X18410D01*
Y27890D01*
X18490D01*
Y27910D01*
X18570D01*
Y27930D01*
X18670D01*
Y27910D01*
X18690D01*
Y27850D01*
X18670D01*
Y27830D01*
X18610D01*
Y27810D01*
X18530D01*
Y27790D01*
X18470D01*
Y27770D01*
X18390D01*
Y27750D01*
X18330D01*
Y27730D01*
X18270D01*
Y27710D01*
X18250D01*
Y27630D01*
X18270D01*
Y27310D01*
X18250D01*
Y27210D01*
X18230D01*
Y27170D01*
X18210D01*
Y27130D01*
X18190D01*
Y27090D01*
X18170D01*
Y27050D01*
X18150D01*
Y27010D01*
X18130D01*
Y26990D01*
X18110D01*
Y26950D01*
X18090D01*
Y26930D01*
X18070D01*
Y26910D01*
X18050D01*
Y26890D01*
X18030D01*
Y26870D01*
X18010D01*
Y26850D01*
X17970D01*
Y26830D01*
X17950D01*
Y26810D01*
X17910D01*
Y26790D01*
X17870D01*
Y26770D01*
X17830D01*
Y26750D01*
X17770D01*
Y26730D01*
X17470D01*
Y26750D01*
X17410D01*
Y26770D01*
X17350D01*
Y26790D01*
X17290D01*
Y26810D01*
X17270D01*
Y26830D01*
X17230D01*
Y26850D01*
X17210D01*
Y26870D01*
X17190D01*
Y26890D01*
X17170D01*
Y26910D01*
X17150D01*
Y26930D01*
X17130D01*
Y26950D01*
X17090D01*
Y26970D01*
X17070D01*
Y26990D01*
X17050D01*
Y27010D01*
X17030D01*
Y27030D01*
X17010D01*
Y27050D01*
X16990D01*
Y27070D01*
X16970D01*
Y27110D01*
X16950D01*
Y27130D01*
X16930D01*
Y27190D01*
X16910D01*
Y27230D01*
X16890D01*
Y27310D01*
X16870D01*
Y27410D01*
X16890D01*
Y27550D01*
X16910D01*
Y27590D01*
X16930D01*
Y27650D01*
X16950D01*
Y27670D01*
X16970D01*
Y27730D01*
X16990D01*
Y27750D01*
X17010D01*
Y27770D01*
X17030D01*
Y27790D01*
X17050D01*
Y27810D01*
X17070D01*
Y27830D01*
X17090D01*
Y27850D01*
X17110D01*
Y27870D01*
X17130D01*
Y27890D01*
X17150D01*
Y27910D01*
X17170D01*
Y27930D01*
X17210D01*
Y27950D01*
X17230D01*
Y27970D01*
X17270D01*
Y27990D01*
X17310D01*
Y28010D01*
X17350D01*
Y28030D01*
X17390D01*
Y28050D01*
X17430D01*
Y28070D01*
X17490D01*
Y28090D01*
X17730D01*
Y28070D01*
X17810D01*
Y28050D01*
X17870D01*
Y28030D01*
X17910D01*
Y28010D01*
X17950D01*
Y27990D01*
X17990D01*
Y27970D01*
X18030D01*
Y27950D01*
X18050D01*
Y27930D01*
X18070D01*
Y27910D01*
X18090D01*
Y27930D01*
X18110D01*
Y27950D01*
X18130D01*
Y27970D01*
X18150D01*
Y27990D01*
X18170D01*
Y28010D01*
X18210D01*
Y28030D01*
X18230D01*
Y28050D01*
X18250D01*
Y28070D01*
X18270D01*
Y28090D01*
X18290D01*
Y28130D01*
X18310D01*
Y28150D01*
X18330D01*
Y28170D01*
X18350D01*
Y28190D01*
X18370D01*
Y28210D01*
X18390D01*
Y28230D01*
X18430D01*
Y28250D01*
X18510D01*
Y28190D01*
D02*
G37*
G36*
X15290Y26370D02*
X16510D01*
Y26350D01*
X16650D01*
Y26330D01*
X16810D01*
Y26310D01*
X17210D01*
Y26290D01*
X17450D01*
Y26270D01*
X17550D01*
Y26250D01*
X17590D01*
Y25670D01*
X17570D01*
Y25590D01*
X17550D01*
Y25550D01*
X17530D01*
Y25490D01*
X17510D01*
Y25410D01*
X17490D01*
Y25330D01*
X17470D01*
Y25250D01*
X17450D01*
Y25210D01*
X17430D01*
Y25170D01*
X17410D01*
Y25130D01*
X17390D01*
Y25090D01*
X17370D01*
Y25050D01*
X17350D01*
Y24990D01*
X17330D01*
Y24970D01*
X17310D01*
Y24930D01*
X17290D01*
Y24890D01*
X17270D01*
Y24870D01*
X17250D01*
Y24830D01*
X17230D01*
Y24810D01*
X17210D01*
Y24790D01*
X17190D01*
Y24770D01*
X17170D01*
Y24750D01*
X17150D01*
Y24730D01*
X17130D01*
Y24690D01*
X17110D01*
Y24670D01*
X17090D01*
Y24650D01*
X17070D01*
Y24630D01*
X17050D01*
Y24610D01*
X17030D01*
Y24590D01*
X17010D01*
Y24570D01*
X16990D01*
Y24550D01*
X16970D01*
Y24530D01*
X16950D01*
Y24510D01*
X16930D01*
Y24490D01*
X16890D01*
Y24470D01*
X16870D01*
Y24450D01*
X16850D01*
Y24430D01*
X16810D01*
Y24410D01*
X16790D01*
Y24390D01*
X16750D01*
Y24370D01*
X16730D01*
Y24350D01*
X16710D01*
Y24330D01*
X16670D01*
Y24310D01*
X16650D01*
Y24290D01*
X16610D01*
Y24270D01*
X16570D01*
Y24250D01*
X16530D01*
Y24230D01*
X16490D01*
Y24210D01*
X16430D01*
Y24190D01*
X16350D01*
Y24170D01*
X16250D01*
Y24150D01*
X15610D01*
Y24170D01*
X15490D01*
Y24190D01*
X15370D01*
Y24210D01*
X15270D01*
Y24230D01*
X15170D01*
Y24250D01*
X15090D01*
Y24270D01*
X15010D01*
Y24290D01*
X14930D01*
Y24310D01*
X14870D01*
Y24330D01*
X14790D01*
Y24350D01*
X14750D01*
Y24370D01*
X14710D01*
Y24390D01*
X14650D01*
Y24410D01*
X14630D01*
Y24430D01*
X14590D01*
Y24450D01*
X14550D01*
Y24470D01*
X14510D01*
Y24490D01*
X14470D01*
Y24510D01*
X14430D01*
Y24530D01*
X14390D01*
Y24550D01*
X14350D01*
Y24570D01*
X14330D01*
Y24590D01*
X14290D01*
Y24610D01*
X14250D01*
Y24630D01*
X14210D01*
Y24650D01*
X14190D01*
Y24670D01*
X14150D01*
Y24690D01*
X14130D01*
Y24710D01*
X14090D01*
Y24730D01*
X14050D01*
Y24750D01*
X14030D01*
Y24770D01*
X13990D01*
Y24790D01*
X13970D01*
Y24810D01*
X13930D01*
Y24830D01*
X13910D01*
Y24850D01*
X13870D01*
Y24870D01*
X13850D01*
Y24890D01*
X13810D01*
Y24910D01*
X13790D01*
Y24930D01*
X13750D01*
Y24950D01*
X13730D01*
Y24970D01*
X13710D01*
Y24990D01*
X13690D01*
Y25010D01*
X13670D01*
Y25030D01*
X13650D01*
Y25050D01*
X13630D01*
Y25070D01*
X13610D01*
Y25090D01*
X13590D01*
Y25110D01*
X13570D01*
Y25130D01*
X13550D01*
Y25150D01*
X13530D01*
Y25170D01*
X13490D01*
Y25190D01*
X13470D01*
Y25210D01*
X13450D01*
Y25230D01*
X13430D01*
Y25270D01*
X13410D01*
Y25290D01*
X13390D01*
Y25350D01*
X13370D01*
Y25390D01*
X13350D01*
Y25490D01*
X13330D01*
Y25550D01*
X13350D01*
Y25730D01*
X13370D01*
Y25790D01*
X13390D01*
Y25830D01*
X13410D01*
Y25870D01*
X13430D01*
Y25910D01*
X13450D01*
Y25930D01*
X13470D01*
Y25970D01*
X13510D01*
Y25990D01*
X13530D01*
Y26050D01*
X13510D01*
Y26170D01*
X13530D01*
Y26210D01*
X13550D01*
Y26230D01*
X13570D01*
Y26250D01*
X13590D01*
Y26270D01*
X13630D01*
Y26290D01*
X13670D01*
Y26310D01*
X13750D01*
Y26330D01*
X13830D01*
Y26350D01*
X14390D01*
Y26370D01*
X14650D01*
Y26390D01*
X15290D01*
Y26370D01*
D02*
G37*
%LPC*%
G36*
X15270Y28410D02*
X14930D01*
Y28390D01*
X14870D01*
Y28370D01*
X14850D01*
Y28330D01*
X14830D01*
Y28310D01*
X14810D01*
Y28290D01*
X14770D01*
Y28270D01*
X14750D01*
Y28250D01*
X14730D01*
Y28230D01*
X14710D01*
Y28210D01*
X14690D01*
Y28190D01*
X14670D01*
Y28170D01*
X14650D01*
Y28150D01*
X14630D01*
Y28110D01*
X14610D01*
Y28090D01*
X14590D01*
Y28070D01*
X14570D01*
Y28030D01*
X14550D01*
Y27990D01*
X14530D01*
Y27950D01*
X14510D01*
Y27790D01*
X14530D01*
Y27690D01*
X14550D01*
Y27610D01*
X14570D01*
Y27570D01*
X14590D01*
Y27550D01*
X14610D01*
Y27510D01*
X14630D01*
Y27490D01*
X14650D01*
Y27470D01*
X14670D01*
Y27450D01*
X14690D01*
Y27430D01*
X14710D01*
Y27410D01*
X14750D01*
Y27390D01*
X14770D01*
Y27370D01*
X14810D01*
Y27350D01*
X14870D01*
Y27330D01*
X14910D01*
Y27310D01*
X14970D01*
Y27290D01*
X15170D01*
Y27310D01*
X15250D01*
Y27330D01*
X15310D01*
Y27350D01*
X15350D01*
Y27370D01*
X15390D01*
Y27390D01*
X15410D01*
Y27410D01*
X15430D01*
Y27430D01*
X15450D01*
Y27450D01*
X15470D01*
Y27470D01*
X15490D01*
Y27510D01*
X15510D01*
Y27530D01*
X15530D01*
Y27550D01*
X15550D01*
Y27570D01*
X15570D01*
Y27610D01*
X15590D01*
Y27650D01*
X15610D01*
Y27710D01*
X15630D01*
Y27790D01*
X15650D01*
Y28030D01*
X15630D01*
Y28090D01*
X15610D01*
Y28130D01*
X15590D01*
Y28170D01*
X15570D01*
Y28210D01*
X15550D01*
Y28230D01*
X15530D01*
Y28250D01*
X15510D01*
Y28270D01*
X15490D01*
Y28290D01*
X15470D01*
Y28310D01*
X15450D01*
Y28330D01*
X15430D01*
Y28350D01*
X15390D01*
Y28370D01*
X15350D01*
Y28390D01*
X15270D01*
Y28410D01*
D02*
G37*
%LPD*%
G36*
X15110Y28110D02*
X15210D01*
Y28090D01*
X15230D01*
Y28070D01*
X15270D01*
Y28050D01*
X15310D01*
Y28030D01*
X15330D01*
Y28010D01*
X15350D01*
Y27990D01*
X15370D01*
Y27970D01*
X15390D01*
Y27930D01*
X15410D01*
Y27770D01*
X15390D01*
Y27730D01*
X15370D01*
Y27690D01*
X15350D01*
Y27670D01*
X15330D01*
Y27650D01*
X15310D01*
Y27630D01*
X15290D01*
Y27610D01*
X15270D01*
Y27590D01*
X15250D01*
Y27570D01*
X15230D01*
Y27550D01*
X15190D01*
Y27530D01*
X14990D01*
Y27550D01*
X14930D01*
Y27570D01*
X14910D01*
Y27590D01*
X14890D01*
Y27610D01*
X14870D01*
Y27630D01*
X14850D01*
Y27650D01*
X14830D01*
Y27690D01*
X14810D01*
Y27730D01*
X14790D01*
Y27770D01*
Y27790D01*
Y27910D01*
X14810D01*
Y27970D01*
X14830D01*
Y28010D01*
X14850D01*
Y28050D01*
X14870D01*
Y28070D01*
X14890D01*
Y28090D01*
X14930D01*
Y28110D01*
X14990D01*
Y28130D01*
X15110D01*
Y28110D01*
D02*
G37*
%LPC*%
G36*
X17750Y27970D02*
X17510D01*
Y27950D01*
X17470D01*
Y27930D01*
X17410D01*
Y27910D01*
X17370D01*
Y27890D01*
X17330D01*
Y27870D01*
X17310D01*
Y27850D01*
X17270D01*
Y27830D01*
X17230D01*
Y27810D01*
X17210D01*
Y27790D01*
X17190D01*
Y27770D01*
X17170D01*
Y27750D01*
X17150D01*
Y27730D01*
X17130D01*
Y27710D01*
X17110D01*
Y27690D01*
X17090D01*
Y27670D01*
X17070D01*
Y27650D01*
X17030D01*
Y27630D01*
X17010D01*
Y27570D01*
X16990D01*
Y27450D01*
X16970D01*
Y27330D01*
X16990D01*
Y27270D01*
X17010D01*
Y27230D01*
X17030D01*
Y27190D01*
X17050D01*
Y27150D01*
X17070D01*
Y27130D01*
X17090D01*
Y27110D01*
X17110D01*
Y27090D01*
X17130D01*
Y27070D01*
X17150D01*
Y27050D01*
X17170D01*
Y27030D01*
X17210D01*
Y27010D01*
X17230D01*
Y26990D01*
X17250D01*
Y26970D01*
X17270D01*
Y26950D01*
X17290D01*
Y26930D01*
X17330D01*
Y26910D01*
X17350D01*
Y26890D01*
X17410D01*
Y26870D01*
X17470D01*
Y26850D01*
X17770D01*
Y26870D01*
X17810D01*
Y26890D01*
X17850D01*
Y26910D01*
X17890D01*
Y26930D01*
X17910D01*
Y26950D01*
X17950D01*
Y26970D01*
X17970D01*
Y26990D01*
X17990D01*
Y27010D01*
X18010D01*
Y27050D01*
X18030D01*
Y27070D01*
X18050D01*
Y27110D01*
X18070D01*
Y27150D01*
X18090D01*
Y27190D01*
X18110D01*
Y27230D01*
X18130D01*
Y27290D01*
X18150D01*
Y27650D01*
X18130D01*
Y27670D01*
X18110D01*
Y27730D01*
X18090D01*
Y27750D01*
X18070D01*
Y27770D01*
X18050D01*
Y27790D01*
X18030D01*
Y27810D01*
X18010D01*
Y27830D01*
X17990D01*
Y27850D01*
X17950D01*
Y27870D01*
X17930D01*
Y27890D01*
X17890D01*
Y27910D01*
X17850D01*
Y27930D01*
X17790D01*
Y27950D01*
X17750D01*
Y27970D01*
D02*
G37*
%LPD*%
G36*
Y27710D02*
X17790D01*
Y27690D01*
X17830D01*
Y27670D01*
X17870D01*
Y27650D01*
X17910D01*
Y27630D01*
X17930D01*
Y27610D01*
X17950D01*
Y27590D01*
X17970D01*
Y27570D01*
X17990D01*
Y27530D01*
X18010D01*
Y27370D01*
X17990D01*
Y27330D01*
X17970D01*
Y27290D01*
X17950D01*
Y27270D01*
X17930D01*
Y27230D01*
X17910D01*
Y27210D01*
X17890D01*
Y27190D01*
X17850D01*
Y27170D01*
X17830D01*
Y27150D01*
X17770D01*
Y27130D01*
X17590D01*
Y27150D01*
X17530D01*
Y27170D01*
X17490D01*
Y27190D01*
X17430D01*
Y27210D01*
X17410D01*
Y27230D01*
X17370D01*
Y27250D01*
X17350D01*
Y27270D01*
X17310D01*
Y27310D01*
X17290D01*
Y27330D01*
X17270D01*
Y27550D01*
X17290D01*
Y27590D01*
X17310D01*
Y27630D01*
X17330D01*
Y27650D01*
X17370D01*
Y27670D01*
X17390D01*
Y27690D01*
X17450D01*
Y27710D01*
X17510D01*
Y27730D01*
X17750D01*
Y27710D01*
D02*
G37*
%LPC*%
G36*
X17010Y26210D02*
X16830D01*
Y26190D01*
X16810D01*
Y26170D01*
X16830D01*
Y26070D01*
X16850D01*
Y25970D01*
X16870D01*
Y25850D01*
X16890D01*
Y25710D01*
X16910D01*
Y25610D01*
X16930D01*
Y25590D01*
X16970D01*
Y25610D01*
X17010D01*
Y25630D01*
X17030D01*
Y25650D01*
X17050D01*
Y25670D01*
X17070D01*
Y25690D01*
X17090D01*
Y25710D01*
X17110D01*
Y25730D01*
X17150D01*
Y25750D01*
X17190D01*
Y25770D01*
X17210D01*
Y25790D01*
X17230D01*
Y25810D01*
X17250D01*
Y25830D01*
X17270D01*
Y25850D01*
X17290D01*
Y25870D01*
X17310D01*
Y25890D01*
X17330D01*
Y25910D01*
X17350D01*
Y25950D01*
X17370D01*
Y25970D01*
X17390D01*
Y25990D01*
X17410D01*
Y26010D01*
X17430D01*
Y26030D01*
X17450D01*
Y26070D01*
X17470D01*
Y26150D01*
X17450D01*
Y26170D01*
X17250D01*
Y26190D01*
X17010D01*
Y26210D01*
D02*
G37*
G36*
X15030Y26290D02*
X14830D01*
Y26270D01*
X14670D01*
Y26250D01*
X14370D01*
Y26230D01*
X13850D01*
Y26210D01*
X13750D01*
Y26190D01*
X13710D01*
Y26170D01*
X13690D01*
Y26150D01*
X13710D01*
Y26110D01*
X13730D01*
Y26070D01*
X13750D01*
Y26030D01*
X13770D01*
Y26010D01*
X13790D01*
Y25970D01*
X13810D01*
Y25950D01*
X13830D01*
Y25930D01*
X13850D01*
Y25910D01*
X13870D01*
Y25870D01*
X13890D01*
Y25850D01*
X13910D01*
Y25830D01*
X13930D01*
Y25810D01*
X13950D01*
Y25790D01*
X13970D01*
Y25910D01*
X13990D01*
Y26030D01*
X14010D01*
Y26070D01*
X14090D01*
Y25890D01*
X14070D01*
Y25790D01*
X14050D01*
Y25670D01*
X14070D01*
Y25650D01*
X14090D01*
Y25630D01*
X14110D01*
Y25610D01*
X14130D01*
Y25590D01*
X14170D01*
Y25570D01*
X14190D01*
Y25550D01*
X14210D01*
Y25530D01*
X14230D01*
Y25510D01*
X14270D01*
Y25490D01*
X14290D01*
Y25470D01*
X14330D01*
Y25450D01*
X14370D01*
Y25430D01*
X14390D01*
Y25550D01*
X14410D01*
Y25710D01*
X14430D01*
Y25810D01*
X14450D01*
Y25990D01*
X14470D01*
Y26050D01*
X14490D01*
Y26070D01*
X14550D01*
Y26030D01*
X14570D01*
Y26010D01*
X14550D01*
Y25810D01*
X14530D01*
Y25710D01*
X14510D01*
Y25570D01*
X14490D01*
Y25430D01*
X14470D01*
Y25390D01*
X14490D01*
Y25370D01*
X14510D01*
Y25350D01*
X14550D01*
Y25330D01*
X14610D01*
Y25310D01*
X14650D01*
Y25290D01*
X14690D01*
Y25270D01*
X14730D01*
Y25250D01*
X14770D01*
Y25230D01*
X14830D01*
Y25210D01*
X14890D01*
Y25190D01*
X14950D01*
Y25310D01*
X14970D01*
Y25510D01*
X14990D01*
Y25670D01*
X15010D01*
Y25810D01*
X15030D01*
Y25970D01*
X15050D01*
Y26050D01*
X15070D01*
Y26090D01*
X15150D01*
Y25930D01*
X15130D01*
Y25790D01*
X15110D01*
Y25650D01*
X15090D01*
Y25510D01*
X15070D01*
Y25310D01*
X15050D01*
Y25150D01*
X15070D01*
Y25130D01*
X15150D01*
Y25110D01*
X15230D01*
Y25090D01*
X15310D01*
Y25070D01*
X15470D01*
Y25050D01*
X15590D01*
Y25170D01*
X15610D01*
Y25410D01*
X15630D01*
Y25670D01*
X15650D01*
Y25850D01*
X15670D01*
Y25950D01*
X15690D01*
Y26010D01*
X15710D01*
Y26030D01*
X15770D01*
Y26010D01*
X15790D01*
Y25950D01*
X15770D01*
Y25830D01*
X15750D01*
Y25650D01*
X15730D01*
Y25390D01*
X15710D01*
Y25210D01*
X15690D01*
Y25070D01*
X15830D01*
Y25090D01*
X15930D01*
Y25110D01*
X16010D01*
Y25130D01*
X16110D01*
Y25150D01*
X16170D01*
Y25170D01*
X16190D01*
Y25590D01*
X16210D01*
Y25830D01*
X16230D01*
Y25910D01*
X16250D01*
Y25930D01*
X16290D01*
Y25910D01*
X16310D01*
Y25890D01*
X16330D01*
Y25790D01*
X16310D01*
Y25230D01*
X16350D01*
Y25250D01*
X16390D01*
Y25270D01*
X16430D01*
Y25290D01*
X16470D01*
Y25310D01*
X16530D01*
Y25330D01*
X16570D01*
Y25350D01*
X16610D01*
Y25370D01*
X16650D01*
Y25390D01*
X16690D01*
Y25410D01*
X16730D01*
Y25430D01*
X16750D01*
Y25450D01*
X16790D01*
Y25470D01*
X16830D01*
Y25550D01*
X16810D01*
Y25670D01*
X16790D01*
Y25790D01*
X16770D01*
Y25930D01*
X16750D01*
Y26030D01*
X16730D01*
Y26110D01*
X16710D01*
Y26210D01*
X16650D01*
Y26230D01*
X16530D01*
Y26250D01*
X15270D01*
Y26270D01*
X15030D01*
Y26290D01*
D02*
G37*
G36*
X13670Y26010D02*
X13650D01*
Y25990D01*
X13630D01*
Y25970D01*
X13610D01*
Y25950D01*
X13590D01*
Y25930D01*
X13570D01*
Y25910D01*
X13550D01*
Y25890D01*
X13530D01*
Y25850D01*
X13510D01*
Y25810D01*
X13490D01*
Y25770D01*
X13470D01*
Y25710D01*
X13450D01*
Y25430D01*
X13470D01*
Y25390D01*
X13490D01*
Y25350D01*
X13510D01*
Y25310D01*
X13530D01*
Y25290D01*
X13550D01*
Y25270D01*
X13570D01*
Y25250D01*
X13590D01*
Y25230D01*
X13610D01*
Y25210D01*
X13630D01*
Y25190D01*
X13670D01*
Y25170D01*
X13690D01*
Y25150D01*
X13710D01*
Y25130D01*
X13730D01*
Y25110D01*
X13750D01*
Y25090D01*
X13770D01*
Y25070D01*
X13790D01*
Y25050D01*
X13810D01*
Y25030D01*
X13850D01*
Y25010D01*
X13870D01*
Y24990D01*
X13890D01*
Y24970D01*
X13930D01*
Y24950D01*
X13950D01*
Y24930D01*
X13990D01*
Y24910D01*
X14030D01*
Y24890D01*
X14050D01*
Y24870D01*
X14090D01*
Y24850D01*
X14130D01*
Y24830D01*
X14150D01*
Y24810D01*
X14190D01*
Y24790D01*
X14210D01*
Y24770D01*
X14250D01*
Y24750D01*
X14290D01*
Y24730D01*
X14310D01*
Y24710D01*
X14350D01*
Y24690D01*
X14390D01*
Y24670D01*
X14410D01*
Y24650D01*
X14450D01*
Y24630D01*
X14490D01*
Y24610D01*
X14530D01*
Y24590D01*
X14570D01*
Y24570D01*
X14610D01*
Y24550D01*
X14650D01*
Y24530D01*
X14690D01*
Y24510D01*
X14730D01*
Y24490D01*
X14770D01*
Y24470D01*
X14810D01*
Y24450D01*
X14870D01*
Y24430D01*
X14950D01*
Y24410D01*
X15010D01*
Y24390D01*
X15090D01*
Y24370D01*
X15170D01*
Y24350D01*
X15270D01*
Y24330D01*
X15370D01*
Y24310D01*
X15490D01*
Y24290D01*
X15610D01*
Y24270D01*
X16250D01*
Y24290D01*
X16350D01*
Y24310D01*
X16410D01*
Y24330D01*
X16470D01*
Y24350D01*
X16510D01*
Y24370D01*
X16530D01*
Y24390D01*
X16570D01*
Y24410D01*
X16610D01*
Y24430D01*
X16630D01*
Y24450D01*
X16670D01*
Y24470D01*
X16690D01*
Y24490D01*
X16730D01*
Y24510D01*
X16750D01*
Y24530D01*
X16770D01*
Y24550D01*
X16810D01*
Y24570D01*
X16830D01*
Y24590D01*
X16850D01*
Y24610D01*
X16890D01*
Y24630D01*
X16910D01*
Y24650D01*
X16930D01*
Y24670D01*
X16950D01*
Y24710D01*
X16970D01*
Y24730D01*
X16990D01*
Y24750D01*
X17010D01*
Y24770D01*
X17030D01*
Y24790D01*
X17050D01*
Y24810D01*
X17070D01*
Y24830D01*
X17090D01*
Y24850D01*
X17110D01*
Y24870D01*
X17130D01*
Y24910D01*
X17150D01*
Y24930D01*
X17170D01*
Y24970D01*
X17190D01*
Y24990D01*
X17210D01*
Y25030D01*
X17230D01*
Y25070D01*
X17250D01*
Y25110D01*
X17270D01*
Y25150D01*
X17290D01*
Y25190D01*
X17310D01*
Y25230D01*
X17330D01*
Y25270D01*
X17350D01*
Y25330D01*
X17370D01*
Y25430D01*
X17390D01*
Y25490D01*
X17410D01*
Y25550D01*
X17430D01*
Y25610D01*
X17450D01*
Y25670D01*
X17470D01*
Y25870D01*
X17450D01*
Y25850D01*
X17430D01*
Y25830D01*
X17410D01*
Y25810D01*
X17390D01*
Y25770D01*
X17370D01*
Y25750D01*
X17350D01*
Y25730D01*
X17330D01*
Y25710D01*
X17310D01*
Y25690D01*
X17270D01*
Y25670D01*
X17250D01*
Y25650D01*
X17210D01*
Y25630D01*
X17190D01*
Y25610D01*
X17150D01*
Y25590D01*
X17130D01*
Y25570D01*
X17110D01*
Y25550D01*
X17090D01*
Y25530D01*
X17070D01*
Y25510D01*
X17030D01*
Y25490D01*
X17010D01*
Y25470D01*
X16990D01*
Y25450D01*
X16970D01*
Y25430D01*
X16950D01*
Y25310D01*
X16970D01*
Y25210D01*
X16990D01*
Y25130D01*
X17010D01*
Y25070D01*
X17030D01*
Y25010D01*
X17050D01*
Y24910D01*
X17030D01*
Y24890D01*
X17010D01*
Y24910D01*
X16970D01*
Y24950D01*
X16950D01*
Y24990D01*
X16930D01*
Y25050D01*
X16910D01*
Y25110D01*
X16890D01*
Y25190D01*
X16870D01*
Y25270D01*
X16850D01*
Y25350D01*
X16830D01*
Y25330D01*
X16790D01*
Y25310D01*
X16750D01*
Y25290D01*
X16710D01*
Y25270D01*
X16670D01*
Y25250D01*
X16630D01*
Y25230D01*
X16590D01*
Y25210D01*
X16550D01*
Y25190D01*
X16510D01*
Y25170D01*
X16450D01*
Y25150D01*
X16410D01*
Y25130D01*
X16370D01*
Y25110D01*
X16330D01*
Y25090D01*
X16310D01*
Y24830D01*
X16290D01*
Y24630D01*
X16270D01*
Y24610D01*
X16230D01*
Y24630D01*
X16210D01*
Y24810D01*
X16190D01*
Y25030D01*
X16110D01*
Y25010D01*
X16030D01*
Y24990D01*
X15930D01*
Y24970D01*
X15830D01*
Y24950D01*
X15690D01*
Y24930D01*
X15670D01*
Y24410D01*
X15610D01*
Y24430D01*
X15590D01*
Y24550D01*
X15570D01*
Y24830D01*
X15590D01*
Y24930D01*
X15450D01*
Y24950D01*
X15310D01*
Y24970D01*
X15230D01*
Y24990D01*
X15150D01*
Y25010D01*
X15050D01*
Y24570D01*
X15030D01*
Y24510D01*
X15010D01*
Y24530D01*
X14990D01*
Y24550D01*
X14970D01*
Y24670D01*
X14950D01*
Y25050D01*
X14930D01*
Y25070D01*
X14870D01*
Y25090D01*
X14810D01*
Y25110D01*
X14750D01*
Y25130D01*
X14710D01*
Y25150D01*
X14670D01*
Y25170D01*
X14630D01*
Y25190D01*
X14590D01*
Y25210D01*
X14550D01*
Y25230D01*
X14490D01*
Y25250D01*
X14470D01*
Y25170D01*
X14450D01*
Y24930D01*
X14430D01*
Y24830D01*
X14370D01*
Y24870D01*
X14350D01*
Y24990D01*
X14370D01*
Y25310D01*
X14330D01*
Y25330D01*
X14310D01*
Y25350D01*
X14270D01*
Y25370D01*
X14230D01*
Y25390D01*
X14210D01*
Y25410D01*
X14190D01*
Y25430D01*
X14150D01*
Y25450D01*
X14130D01*
Y25470D01*
X14110D01*
Y25490D01*
X14090D01*
Y25510D01*
X14050D01*
Y25550D01*
X14010D01*
Y25490D01*
X13990D01*
Y25390D01*
X13970D01*
Y25250D01*
X13950D01*
Y25110D01*
X13930D01*
Y25090D01*
X13870D01*
Y25330D01*
X13890D01*
Y25450D01*
X13910D01*
Y25570D01*
X13930D01*
Y25650D01*
X13910D01*
Y25670D01*
X13890D01*
Y25710D01*
X13870D01*
Y25730D01*
X13850D01*
Y25750D01*
X13830D01*
Y25790D01*
X13810D01*
Y25810D01*
X13790D01*
Y25830D01*
X13770D01*
Y25870D01*
X13750D01*
Y25890D01*
X13730D01*
Y25930D01*
X13710D01*
Y25950D01*
X13690D01*
Y25990D01*
X13670D01*
Y26010D01*
D02*
G37*
%LPD*%
M02*
