G04*
G04 #@! TF.GenerationSoftware,Altium Limited,Altium Designer,22.3.1 (43)*
G04*
G04 Layer_Color=16711935*
%FSLAX24Y24*%
%MOIN*%
G70*
G04*
G04 #@! TF.SameCoordinates,79C3986D-5B2C-41C9-8E5D-3D0232DA578A*
G04*
G04*
G04 #@! TF.FilePolarity,Negative*
G04*
G01*
G75*
%ADD42C,0.0749*%
%ADD43R,0.0690X0.0690*%
%ADD44C,0.0690*%
%ADD45C,0.1182*%
%ADD46C,0.0651*%
%ADD47R,0.0651X0.0651*%
%ADD48C,0.2330*%
D42*
X21900Y23100D02*
D03*
X15600D02*
D03*
D43*
X25650Y34400D02*
D03*
X11850Y34450D02*
D03*
X12800Y12400D02*
D03*
D44*
X25650Y33400D02*
D03*
Y32400D02*
D03*
Y31400D02*
D03*
X11850Y33450D02*
D03*
Y32450D02*
D03*
Y31450D02*
D03*
X13800Y12400D02*
D03*
X12800Y11400D02*
D03*
Y10400D02*
D03*
X13800Y11400D02*
D03*
Y10400D02*
D03*
D45*
X12413Y37117D02*
D03*
X17587D02*
D03*
X21337Y12883D02*
D03*
X16163D02*
D03*
X20163Y37117D02*
D03*
X25337D02*
D03*
D46*
X13622Y36050D02*
D03*
X14606D02*
D03*
X15394D02*
D03*
X20128Y13950D02*
D03*
X19144D02*
D03*
X18356D02*
D03*
X21372Y36050D02*
D03*
X22356D02*
D03*
X23144D02*
D03*
D47*
X16378D02*
D03*
X17372Y13950D02*
D03*
X24128Y36050D02*
D03*
D48*
X27500Y40000D02*
D03*
X10000D02*
D03*
Y10000D02*
D03*
X27500D02*
D03*
M02*
