G04*
G04 #@! TF.GenerationSoftware,Altium Limited,Altium Designer,22.3.1 (43)*
G04*
G04 Layer_Color=8421504*
%FSLAX24Y24*%
%MOIN*%
G70*
G04*
G04 #@! TF.SameCoordinates,79C3986D-5B2C-41C9-8E5D-3D0232DA578A*
G04*
G04*
G04 #@! TF.FilePolarity,Positive*
G04*
G01*
G75*
%ADD16R,0.0551X0.2008*%
%ADD17O,0.0236X0.0768*%
%ADD18O,0.0768X0.0236*%
%ADD19R,0.0413X0.0571*%
%ADD20R,0.0787X0.0787*%
%ADD21R,0.0591X0.0591*%
%ADD22R,0.0571X0.0453*%
%ADD23R,0.0453X0.0571*%
%ADD24R,0.0591X0.0591*%
%ADD25R,0.0819X0.1500*%
%ADD26R,0.4500X0.3500*%
%ADD27R,0.0689X0.0591*%
%ADD28R,0.0374X0.0571*%
%ADD29R,0.0453X0.0866*%
%ADD30R,0.0591X0.0551*%
%ADD31R,0.0531X0.0374*%
%ADD32R,0.0335X0.0531*%
%ADD33R,0.0610X0.0512*%
D16*
X16683Y21151D02*
D03*
X18061D02*
D03*
X19439D02*
D03*
X20817D02*
D03*
D17*
X21698Y16127D02*
D03*
X22013D02*
D03*
X22328D02*
D03*
X22643D02*
D03*
X22957D02*
D03*
X23272D02*
D03*
X23587D02*
D03*
X23902D02*
D03*
Y19473D02*
D03*
X23587D02*
D03*
X23272D02*
D03*
X22957D02*
D03*
X22643D02*
D03*
X22328D02*
D03*
X22013D02*
D03*
X21698D02*
D03*
D18*
X24473Y16698D02*
D03*
Y17013D02*
D03*
Y17328D02*
D03*
Y17643D02*
D03*
Y17957D02*
D03*
Y18272D02*
D03*
Y18587D02*
D03*
Y18902D02*
D03*
X21127D02*
D03*
Y18587D02*
D03*
Y18272D02*
D03*
Y17957D02*
D03*
Y17643D02*
D03*
Y17328D02*
D03*
Y17013D02*
D03*
Y16698D02*
D03*
D19*
X16850Y19500D02*
D03*
X17578D02*
D03*
X23164Y12700D02*
D03*
X22436D02*
D03*
D20*
X19931Y17000D02*
D03*
X17569D02*
D03*
D21*
X28100Y23130D02*
D03*
Y21870D02*
D03*
X9350Y13630D02*
D03*
Y12370D02*
D03*
Y32630D02*
D03*
Y31370D02*
D03*
Y18380D02*
D03*
Y17120D02*
D03*
Y23130D02*
D03*
Y21870D02*
D03*
Y27880D02*
D03*
Y26620D02*
D03*
Y37380D02*
D03*
Y36120D02*
D03*
X28100Y18380D02*
D03*
Y17120D02*
D03*
Y27880D02*
D03*
Y26620D02*
D03*
Y32630D02*
D03*
Y31370D02*
D03*
Y37380D02*
D03*
Y36120D02*
D03*
Y13630D02*
D03*
Y12370D02*
D03*
D22*
X27100Y22156D02*
D03*
Y22844D02*
D03*
Y17406D02*
D03*
Y18094D02*
D03*
Y26906D02*
D03*
Y27594D02*
D03*
Y31656D02*
D03*
Y32344D02*
D03*
Y36406D02*
D03*
Y37094D02*
D03*
X10350Y36406D02*
D03*
Y37094D02*
D03*
Y31656D02*
D03*
Y32344D02*
D03*
Y26906D02*
D03*
Y27594D02*
D03*
Y22156D02*
D03*
Y22844D02*
D03*
Y17406D02*
D03*
Y18094D02*
D03*
Y12656D02*
D03*
Y13344D02*
D03*
X27100Y12656D02*
D03*
Y13344D02*
D03*
D23*
X19244Y39350D02*
D03*
X18556D02*
D03*
X14356Y9250D02*
D03*
X15044D02*
D03*
X23189D02*
D03*
X22500D02*
D03*
D24*
X18270Y40650D02*
D03*
X19530D02*
D03*
X12070Y9250D02*
D03*
X13330D02*
D03*
X25430D02*
D03*
X24170D02*
D03*
D25*
X13050Y20864D02*
D03*
X15050D02*
D03*
D26*
X14050Y16364D02*
D03*
D27*
X13438Y14000D02*
D03*
X11962D02*
D03*
D28*
X14984D02*
D03*
X14216D02*
D03*
D29*
X23995Y14900D02*
D03*
X24605D02*
D03*
D30*
X23800Y21298D02*
D03*
Y20550D02*
D03*
X22800Y21298D02*
D03*
Y20550D02*
D03*
X23150Y14302D02*
D03*
Y15050D02*
D03*
X22150Y14302D02*
D03*
Y15050D02*
D03*
D31*
X25200Y13209D02*
D03*
Y13800D02*
D03*
X24150Y13205D02*
D03*
Y13795D02*
D03*
D32*
X19425Y19500D02*
D03*
X20075D02*
D03*
X18200D02*
D03*
X18850D02*
D03*
D33*
X25665Y10114D02*
D03*
X22535D02*
D03*
X25665Y11886D02*
D03*
X22535D02*
D03*
M02*
