M48
;Layer_Color=9474304
;FILE_FORMAT=2:4
INCH,LZ
;TYPE=PLATED
T1F00S00C0.0200
T2F00S00C0.0362
T3F00S00C0.0402
T4F00S00C0.0906
T5F00S00C0.1260
;TYPE=NON_PLATED
T6F00S00C0.0669
%
T01
X0109Y0133
X0119Y0128
X012438Y013362
X0183Y0147
X0215Y01535
X02165Y0118
Y0106
X02255
X02315Y0119
X0247Y0127
X02565Y01135
X0251Y0101
X0271Y0142
X02535Y01625
Y01665
Y01705
X02515Y0177
X025484Y017934
X02205Y01805
X020916Y01632
X02105Y01565
X0206
X0166Y0179
Y01882
X0162Y0198
X0159Y02095
X01305Y01975
T02
X017372Y01395
X018356
X019144
X020128
X015394Y03605
X014606
X013622
X016378
X021372
X022356
X023144
X024128
T03
X0128Y0104
Y0114
Y0124
X0138
Y0114
Y0104
X01185Y03145
Y03245
Y03345
Y03445
X02565Y0344
Y0334
Y0324
Y0314
T04
X016163Y012883
X021337
X012413Y037117
X017587
X020163
X025337
T05
X01Y01
X0275
X01Y04
X0275
T06
X0219Y0231
X0156
M30
